STARTFONT 2.1
COMMENT 18x18 Japanese kanji font
COMMENT
COMMENT This font was created by modifying jiskan16.bdf which is
COMMENT from Japanese Industrial Standard, JIS X 9051-1984
COMMENT named "16-dots Matrix Character Patterns for Display Devices"
FONT -Misc-Fixed-Medium-I-Normal--18-180-72-72-C-180-JISX0208.1983-0
SIZE 18 72 72
FONTBOUNDINGBOX 18 18 0 -2
STARTPROPERTIES 19
FONT_ASCENT 16
FONT_DESCENT 2
DEFAULT_CHAR 8481
COPYRIGHT "from JIS X 9051-1984, by permission to use"
FONTNAME_REGISTRY ""
FOUNDRY "JIS"
FAMILY_NAME "Fixed"
WEIGHT_NAME "Medium"
SLANT "I"
SETWIDTH_NAME "Normal"
ADD_STYLE_NAME ""
PIXEL_SIZE 18
POINT_SIZE 180
RESOLUTION_X 72
RESOLUTION_Y 72
SPACING "C"
AVERAGE_WIDTH 180
CHARSET_REGISTRY "JISX0208.1983"
CHARSET_ENCODING "0"
ENDPROPERTIES
CHARS 6877
STARTCHAR 2121
ENCODING 8481
SWIDTH 1000 0
DWIDTH 18 0
BBX 18 18 0 -2
BITMAP
000000
000000
000000
000000
000000
000000
000000
000000
000000
000000
000000
000000
000000
000000
000000
000000
000000
000000
ENDCHAR
STARTCHAR 2122
ENCODING 8482
SWIDTH 1000 0
DWIDTH 18 0
BBX 18 18 0 -2
BITMAP
000000
000000
000000
000000
000000
000000
000000
000000
000000
000000
000000
000000
000000
000000
c00000
600000
200000
000000
ENDCHAR
STARTCHAR 2123
ENCODING 8483
SWIDTH 1000 0
DWIDTH 18 0
BBX 18 18 0 -2
BITMAP
000000
000000
000000
000000
000000
000000
000000
000000
000000
000000
000000
000000
000000
c00000
200000
200000
c00000
000000
ENDCHAR
STARTCHAR 2124
ENCODING 8484
SWIDTH 1000 0
DWIDTH 18 0
BBX 18 18 0 -2
BITMAP
000000
000000
000000
000000
000000
000000
000000
000000
000000
000000
000000
000000
000000
c00000
c00000
400000
800000
000000
ENDCHAR
STARTCHAR 2125
ENCODING 8485
SWIDTH 1000 0
DWIDTH 18 0
BBX 18 18 0 -2
BITMAP
000000
000000
000000
000000
000000
000000
000000
000000
000000
000000
000000
000000
000000
c00000
c00000
000000
000000
000000
ENDCHAR
STARTCHAR 2126
ENCODING 8486
SWIDTH 1000 0
DWIDTH 18 0
BBX 18 18 0 -2
BITMAP
000000
000000
000000
000000
000000
000000
000000
000000
00c000
00c000
000000
000000
000000
000000
000000
000000
000000
000000
ENDCHAR
STARTCHAR 2127
ENCODING 8487
SWIDTH 1000 0
DWIDTH 18 0
BBX 18 18 0 -2
BITMAP
000000
000000
000000
000000
000000
000000
000000
00c000
00c000
000000
000000
000000
000000
030000
030000
000000
000000
000000
ENDCHAR
STARTCHAR 2128
ENCODING 8488
SWIDTH 1000 0
DWIDTH 18 0
BBX 18 18 0 -2
BITMAP
000000
000000
000000
000000
000000
000000
000000
00c000
00c000
000000
000000
000000
000000
030000
030000
010000
020000
000000
ENDCHAR
STARTCHAR 2129
ENCODING 8489
SWIDTH 1000 0
DWIDTH 18 0
BBX 18 18 0 -2
BITMAP
000000
000000
00fc00
010200
040200
040200
020200
001800
006000
008000
010000
000000
000000
030000
030000
000000
000000
000000
ENDCHAR
STARTCHAR 212a
ENCODING 8490
SWIDTH 1000 0
DWIDTH 18 0
BBX 18 18 0 -2
BITMAP
000000
000000
003000
003000
006000
006000
006000
008000
008000
008000
010000
000000
000000
030000
030000
000000
000000
000000
ENDCHAR
STARTCHAR 212b
ENCODING 8491
SWIDTH 1000 0
DWIDTH 18 0
BBX 18 18 0 -2
BITMAP
000000
0a0000
0a0000
000000
000000
000000
000000
000000
000000
000000
000000
000000
000000
000000
000000
000000
000000
000000
ENDCHAR
STARTCHAR 212c
ENCODING 8492
SWIDTH 1000 0
DWIDTH 18 0
BBX 18 18 0 -2
BITMAP
000000
000000
000000
0c0000
240000
240000
180000
000000
000000
000000
000000
000000
000000
000000
000000
000000
000000
000000
ENDCHAR
STARTCHAR 212d
ENCODING 8493
SWIDTH 1000 0
DWIDTH 18 0
BBX 18 18 0 -2
BITMAP
000000
001800
006000
000000
000000
000000
000000
000000
000000
000000
000000
000000
000000
000000
000000
000000
000000
000000
ENDCHAR
STARTCHAR 212e
ENCODING 8494
SWIDTH 1000 0
DWIDTH 18 0
BBX 18 18 0 -2
BITMAP
000000
006000
001800
000000
000000
000000
000000
000000
000000
000000
000000
000000
000000
000000
000000
000000
000000
000000
ENDCHAR
STARTCHAR 212f
ENCODING 8495
SWIDTH 1000 0
DWIDTH 18 0
BBX 18 18 0 -2
BITMAP
000000
00cc00
00cc00
000000
000000
000000
000000
000000
000000
000000
000000
000000
000000
000000
000000
000000
000000
000000
ENDCHAR
STARTCHAR 2130
ENCODING 8496
SWIDTH 1000 0
DWIDTH 18 0
BBX 18 18 0 -2
BITMAP
000000
003000
00cc00
000000
000000
000000
000000
000000
000000
000000
000000
000000
000000
000000
000000
000000
000000
000000
ENDCHAR
STARTCHAR 2131
ENCODING 8497
SWIDTH 1000 0
DWIDTH 18 0
BBX 18 18 0 -2
BITMAP
000000
1fffe0
000000
000000
000000
000000
000000
000000
000000
000000
000000
000000
000000
000000
000000
000000
000000
000000
ENDCHAR
STARTCHAR 2132
ENCODING 8498
SWIDTH 1000 0
DWIDTH 18 0
BBX 18 18 0 -2
BITMAP
000000
000000
000000
000000
000000
000000
000000
000000
000000
000000
000000
000000
000000
000000
000000
000000
fffe00
000000
ENDCHAR
STARTCHAR 2133
ENCODING 8499
SWIDTH 1000 0
DWIDTH 18 0
BBX 18 18 0 -2
BITMAP
000000
000000
000000
000000
000000
018000
00c000
00c000
006000
003000
002000
003000
001000
000000
000000
000000
000000
000000
ENDCHAR
STARTCHAR 2134
ENCODING 8500
SWIDTH 1000 0
DWIDTH 18 0
BBX 18 18 0 -2
BITMAP
000000
000000
000000
000000
001400
031400
018000
018000
00c000
006000
004000
006000
002000
000000
000000
000000
000000
000000
ENDCHAR
STARTCHAR 2135
ENCODING 8501
SWIDTH 1000 0
DWIDTH 18 0
BBX 18 18 0 -2
BITMAP
000000
000000
000000
000000
020000
030000
018000
018000
00e000
003000
003000
006000
01c000
060000
000000
000000
000000
000000
ENDCHAR
STARTCHAR 2136
ENCODING 8502
SWIDTH 1000 0
DWIDTH 18 0
BBX 18 18 0 -2
BITMAP
000000
000000
000000
000000
020a00
030a00
018000
018000
00e000
003000
003000
006000
01c000
060000
000000
000000
000000
000000
ENDCHAR
STARTCHAR 2137
ENCODING 8503
SWIDTH 1000 0
DWIDTH 18 0
BBX 18 18 0 -2
BITMAP
000000
000000
000000
000000
010800
010800
010800
021000
021000
021000
042000
084000
084000
210000
000000
000000
000000
000000
ENDCHAR
STARTCHAR 2138
ENCODING 8504
SWIDTH 1000 0
DWIDTH 18 0
BBX 18 18 0 -2
BITMAP
000000
002000
007000
00d800
031800
060c00
0c0700
700380
000000
1ffe00
010000
010000
010000
020000
020000
fffe00
000000
000000
ENDCHAR
STARTCHAR 2139
ENCODING 8505
SWIDTH 1000 0
DWIDTH 18 0
BBX 18 18 0 -2
BITMAP
000000
000000
004000
004000
008000
01fe00
010200
060c00
040800
0c1800
336000
01c000
006000
006000
002000
000000
000000
000000
ENDCHAR
STARTCHAR 213a
ENCODING 8506
SWIDTH 1000 0
DWIDTH 18 0
BBX 18 18 0 -2
BITMAP
000000
000000
0000c0
000180
000600
01cc00
027800
086000
08f000
199800
260000
2c0000
280000
700000
600000
c00000
000000
000000
ENDCHAR
STARTCHAR 213b
ENCODING 8507
SWIDTH 1000 0
DWIDTH 18 0
BBX 18 18 0 -2
BITMAP
000000
000000
000000
00fc00
070e00
0c0300
080100
300300
200100
200100
600600
200400
300c00
387000
0fc000
000000
000000
000000
ENDCHAR
STARTCHAR 213c
ENCODING 8508
SWIDTH 1000 0
DWIDTH 18 0
BBX 18 18 0 -2
BITMAP
000000
000000
000000
000000
000000
000000
000000
200000
1fff00
000000
000000
000000
000000
000000
000000
000000
000000
000000
ENDCHAR
STARTCHAR 213d
ENCODING 8509
SWIDTH 1000 0
DWIDTH 18 0
BBX 18 18 0 -2
BITMAP
000000
000000
000000
000000
000000
000000
000000
000000
7fff80
000000
000000
000000
000000
000000
000000
000000
000000
000000
ENDCHAR
STARTCHAR 213e
ENCODING 8510
SWIDTH 1000 0
DWIDTH 18 0
BBX 18 18 0 -2
BITMAP
000000
000000
000000
000000
000000
000000
000000
000000
03f000
000000
000000
000000
000000
000000
000000
000000
000000
000000
ENDCHAR
STARTCHAR 213f
ENCODING 8511
SWIDTH 1000 0
DWIDTH 18 0
BBX 18 18 0 -2
BITMAP
000000
000020
000040
000080
000200
000400
000800
002000
004000
008000
020000
040000
080000
200000
400000
800000
000000
000000
ENDCHAR
STARTCHAR 2140
ENCODING 8512
SWIDTH 1000 0
DWIDTH 18 0
BBX 18 18 0 -2
BITMAP
000000
100000
080000
040000
040000
020000
010000
010000
008000
004000
004000
002000
001000
001000
000800
000400
000200
000000
ENDCHAR
STARTCHAR 2141
ENCODING 8513
SWIDTH 1000 0
DWIDTH 18 0
BBX 18 18 0 -2
BITMAP
000000
000000
000000
000000
000000
000000
000000
1e0000
218080
406100
003c00
000000
000000
000000
000000
000000
000000
000000
ENDCHAR
STARTCHAR 2142
ENCODING 8514
SWIDTH 1000 0
DWIDTH 18 0
BBX 18 18 0 -2
BITMAP
000000
008800
008800
008800
011000
011000
011000
022000
022000
022000
044000
044000
044000
088000
088000
088000
088000
000000
ENDCHAR
STARTCHAR 2143
ENCODING 8515
SWIDTH 1000 0
DWIDTH 18 0
BBX 18 18 0 -2
BITMAP
000000
002000
002000
002000
004000
004000
004000
008000
008000
008000
010000
010000
010000
020000
020000
020000
020000
000000
ENDCHAR
STARTCHAR 2144
ENCODING 8516
SWIDTH 1000 0
DWIDTH 18 0
BBX 18 18 0 -2
BITMAP
000000
000000
000000
000000
000000
000000
000000
000000
30c300
30c300
000000
000000
000000
000000
000000
000000
000000
000000
ENDCHAR
STARTCHAR 2145
ENCODING 8517
SWIDTH 1000 0
DWIDTH 18 0
BBX 18 18 0 -2
BITMAP
000000
000000
000000
000000
000000
000000
000000
000000
0c0c00
0c0c00
000000
000000
000000
000000
000000
000000
000000
000000
ENDCHAR
STARTCHAR 2146
ENCODING 8518
SWIDTH 1000 0
DWIDTH 18 0
BBX 18 18 0 -2
BITMAP
000000
000100
000200
000300
000600
000000
000000
000000
000000
000000
000000
000000
000000
000000
000000
000000
000000
000000
ENDCHAR
STARTCHAR 2147
ENCODING 8519
SWIDTH 1000 0
DWIDTH 18 0
BBX 18 18 0 -2
BITMAP
000000
030000
030000
010000
040000
000000
000000
000000
000000
000000
000000
000000
000000
000000
000000
000000
000000
000000
ENDCHAR
STARTCHAR 2148
ENCODING 8520
SWIDTH 1000 0
DWIDTH 18 0
BBX 18 18 0 -2
BITMAP
000000
000480
000900
000d80
001b00
000000
000000
000000
000000
000000
000000
000000
000000
000000
000000
000000
000000
000000
ENDCHAR
STARTCHAR 2149
ENCODING 8521
SWIDTH 1000 0
DWIDTH 18 0
BBX 18 18 0 -2
BITMAP
000000
06c000
06c000
024000
090000
000000
000000
000000
000000
000000
000000
000000
000000
000000
000000
000000
000000
000000
ENDCHAR
STARTCHAR 214a
ENCODING 8522
SWIDTH 1000 0
DWIDTH 18 0
BBX 18 18 0 -2
BITMAP
000000
000100
000200
000600
000800
001800
001000
002000
002000
002000
004000
004000
006000
004000
006000
002000
001000
000000
ENDCHAR
STARTCHAR 214b
ENCODING 8523
SWIDTH 1000 0
DWIDTH 18 0
BBX 18 18 0 -2
BITMAP
000000
020000
010000
018000
010000
018000
008000
010000
010000
010000
020000
020000
060000
080000
180000
100000
200000
000000
ENDCHAR
STARTCHAR 214c
ENCODING 8524
SWIDTH 1000 0
DWIDTH 18 0
BBX 18 18 0 -2
BITMAP
000000
000100
000600
001800
002000
002000
002000
004000
004000
004000
008000
008000
008000
010000
018000
006000
001000
000000
ENDCHAR
STARTCHAR 214d
ENCODING 8525
SWIDTH 1000 0
DWIDTH 18 0
BBX 18 18 0 -2
BITMAP
000000
020000
018000
006000
004000
004000
004000
008000
008000
008000
010000
010000
010000
020000
060000
180000
200000
000000
ENDCHAR
STARTCHAR 214e
ENCODING 8526
SWIDTH 1000 0
DWIDTH 18 0
BBX 18 18 0 -2
BITMAP
000000
001f00
001000
001000
002000
002000
002000
004000
004000
004000
008000
008000
008000
010000
010000
010000
01f000
000000
ENDCHAR
STARTCHAR 214f
ENCODING 8527
SWIDTH 1000 0
DWIDTH 18 0
BBX 18 18 0 -2
BITMAP
000000
03e000
002000
002000
004000
004000
004000
008000
008000
008000
010000
010000
010000
020000
020000
020000
3e0000
000000
ENDCHAR
STARTCHAR 2150
ENCODING 8528
SWIDTH 1000 0
DWIDTH 18 0
BBX 18 18 0 -2
BITMAP
000000
000100
000200
000400
000800
000800
000800
001000
002000
001000
002000
002000
002000
004000
004000
002000
001000
000000
ENDCHAR
STARTCHAR 2151
ENCODING 8529
SWIDTH 1000 0
DWIDTH 18 0
BBX 18 18 0 -2
BITMAP
000000
020000
010000
008000
010000
010000
010000
020000
010000
020000
040000
040000
040000
080000
080000
100000
200000
000000
ENDCHAR
STARTCHAR 2152
ENCODING 8530
SWIDTH 1000 0
DWIDTH 18 0
BBX 18 18 0 -2
BITMAP
000000
000100
000200
000200
000800
001000
001000
004000
008000
008000
008000
004000
004000
004000
002000
002000
001000
000000
ENDCHAR
STARTCHAR 2153
ENCODING 8531
SWIDTH 1000 0
DWIDTH 18 0
BBX 18 18 0 -2
BITMAP
000000
020000
010000
010000
010000
008000
008000
008000
004000
004000
010000
020000
020000
080000
100000
100000
200000
000000
ENDCHAR
STARTCHAR 2154
ENCODING 8532
SWIDTH 1000 0
DWIDTH 18 0
BBX 18 18 0 -2
BITMAP
000000
000240
000480
000480
001200
002400
002400
009000
012000
012000
012000
009000
009000
009000
004800
004800
002400
000000
ENDCHAR
STARTCHAR 2155
ENCODING 8533
SWIDTH 1000 0
DWIDTH 18 0
BBX 18 18 0 -2
BITMAP
000000
090000
048000
048000
048000
024000
024000
024000
012000
012000
048000
090000
090000
240000
480000
480000
900000
000000
ENDCHAR
STARTCHAR 2156
ENCODING 8534
SWIDTH 1000 0
DWIDTH 18 0
BBX 18 18 0 -2
BITMAP
000000
001f00
001000
001000
002000
002000
002000
004000
004000
004000
008000
008000
000000
000000
000000
000000
000000
000000
ENDCHAR
STARTCHAR 2157
ENCODING 8535
SWIDTH 1000 0
DWIDTH 18 0
BBX 18 18 0 -2
BITMAP
000000
000000
000000
000000
000000
000000
004000
008000
008000
008000
010000
010000
010000
020000
020000
020000
3e0000
000000
ENDCHAR
STARTCHAR 2158
ENCODING 8536
SWIDTH 1000 0
DWIDTH 18 0
BBX 18 18 0 -2
BITMAP
000000
003f00
002100
002f00
005000
005000
005000
00a000
00a000
00a000
014000
01c000
000000
000000
000000
000000
000000
000000
ENDCHAR
STARTCHAR 2159
ENCODING 8537
SWIDTH 1000 0
DWIDTH 18 0
BBX 18 18 0 -2
BITMAP
000000
000000
000000
000000
000000
000000
00e000
014000
014000
014000
028000
028000
028000
050000
3d0000
210000
3f0000
000000
ENDCHAR
STARTCHAR 215a
ENCODING 8538
SWIDTH 1000 0
DWIDTH 18 0
BBX 18 18 0 -2
BITMAP
000000
001f00
001e00
001c00
003000
003000
002000
004000
004000
004000
008000
008000
00c000
018000
01c000
01e000
01f000
000000
ENDCHAR
STARTCHAR 215b
ENCODING 8539
SWIDTH 1000 0
DWIDTH 18 0
BBX 18 18 0 -2
BITMAP
000000
03e000
01e000
00e000
00c000
00c000
004000
008000
008000
008000
010000
010000
030000
060000
0e0000
1e0000
3e0000
000000
ENDCHAR
STARTCHAR 215c
ENCODING 8540
SWIDTH 1000 0
DWIDTH 18 0
BBX 18 18 0 -2
BITMAP
000000
000000
000000
002000
004000
004000
004000
008000
1ffe00
008000
010000
010000
010000
020000
020000
000000
000000
000000
ENDCHAR
STARTCHAR 215d
ENCODING 8541
SWIDTH 1000 0
DWIDTH 18 0
BBX 18 18 0 -2
BITMAP
000000
000000
000000
000000
000000
000000
000000
000000
1ffe00
000000
000000
000000
000000
000000
000000
000000
000000
000000
ENDCHAR
STARTCHAR 215e
ENCODING 8542
SWIDTH 1000 0
DWIDTH 18 0
BBX 18 18 0 -2
BITMAP
000000
000000
000000
002000
004000
004000
004000
1ffe00
008000
008000
010000
010000
000000
000000
7ff800
000000
000000
000000
ENDCHAR
STARTCHAR 215f
ENCODING 8543
SWIDTH 1000 0
DWIDTH 18 0
BBX 18 18 0 -2
BITMAP
000000
000000
000000
000000
040200
020400
010800
012000
00c000
00c000
024000
042000
081000
201000
000000
000000
000000
000000
ENDCHAR
STARTCHAR 2160
ENCODING 8544
SWIDTH 1000 0
DWIDTH 18 0
BBX 18 18 0 -2
BITMAP
000000
000000
000000
000000
006000
006000
000000
000000
1ffe00
000000
000000
018000
018000
000000
000000
000000
000000
000000
ENDCHAR
STARTCHAR 2161
ENCODING 8545
SWIDTH 1000 0
DWIDTH 18 0
BBX 18 18 0 -2
BITMAP
000000
000000
000000
000000
000000
000000
0fff00
000000
000000
000000
3ffc00
000000
000000
000000
000000
000000
000000
000000
ENDCHAR
STARTCHAR 2162
ENCODING 8546
SWIDTH 1000 0
DWIDTH 18 0
BBX 18 18 0 -2
BITMAP
000000
000000
000000
000800
001000
002000
0fff00
004000
008000
008000
3ffc00
010000
020000
040000
000000
000000
000000
000000
ENDCHAR
STARTCHAR 2163
ENCODING 8547
SWIDTH 1000 0
DWIDTH 18 0
BBX 18 18 0 -2
BITMAP
000000
000000
0000c0
000300
001800
006000
018000
0c0000
300000
0c0000
040000
030000
00c000
004000
003000
000c00
000000
000000
ENDCHAR
STARTCHAR 2164
ENCODING 8548
SWIDTH 1000 0
DWIDTH 18 0
BBX 18 18 0 -2
BITMAP
000000
000000
0c0000
030000
018000
006000
001800
000c00
000300
000c00
002000
00c000
030000
080000
300000
c00000
000000
000000
ENDCHAR
STARTCHAR 2165
ENCODING 8549
SWIDTH 1000 0
DWIDTH 18 0
BBX 18 18 0 -2
BITMAP
000000
000000
000000
000380
003800
01c000
0e0000
038000
007000
000e00
000000
3ffc00
000000
000000
7ff800
000000
000000
000000
ENDCHAR
STARTCHAR 2166
ENCODING 8550
SWIDTH 1000 0
DWIDTH 18 0
BBX 18 18 0 -2
BITMAP
000000
000000
000000
070000
01c000
003800
000700
007000
038000
1c0000
000000
3ffc00
000000
000000
7ff800
000000
000000
000000
ENDCHAR
STARTCHAR 2167
ENCODING 8551
SWIDTH 1000 0
DWIDTH 18 0
BBX 18 18 0 -2
BITMAP
000000
000000
000000
000000
000000
070e00
089100
20c100
20c100
20c100
418200
224400
1c3800
000000
000000
000000
000000
000000
ENDCHAR
STARTCHAR 2168
ENCODING 8552
SWIDTH 1000 0
DWIDTH 18 0
BBX 18 18 0 -2
BITMAP
000000
000000
000000
000000
006000
006000
000000
000000
000000
000000
000000
000000
300c00
601800
000000
000000
000000
000000
ENDCHAR
STARTCHAR 2169
ENCODING 8553
SWIDTH 1000 0
DWIDTH 18 0
BBX 18 18 0 -2
BITMAP
000000
000000
001fc0
0000c0
000280
000480
000880
002100
0f4100
108000
408000
408000
408000
810000
420000
3c0000
000000
000000
ENDCHAR
STARTCHAR 216a
ENCODING 8554
SWIDTH 1000 0
DWIDTH 18 0
BBX 18 18 0 -2
BITMAP
000000
000000
007800
008400
020400
020400
020400
040800
021000
01e000
010000
1ff800
010000
020000
020000
020000
020000
000000
ENDCHAR
STARTCHAR 216b
ENCODING 8555
SWIDTH 1000 0
DWIDTH 18 0
BBX 18 18 0 -2
BITMAP
000000
000000
060000
090000
120000
0c0000
000000
000000
000000
000000
000000
000000
000000
000000
000000
000000
000000
000000
ENDCHAR
STARTCHAR 216c
ENCODING 8556
SWIDTH 1000 0
DWIDTH 18 0
BBX 18 18 0 -2
BITMAP
000000
000000
010000
030000
0c0000
080000
000000
000000
000000
000000
000000
000000
000000
000000
000000
000000
000000
000000
ENDCHAR
STARTCHAR 216d
ENCODING 8557
SWIDTH 1000 0
DWIDTH 18 0
BBX 18 18 0 -2
BITMAP
000000
000000
022000
066000
198000
110000
000000
000000
000000
000000
000000
000000
000000
000000
000000
000000
000000
000000
ENDCHAR
STARTCHAR 216e
ENCODING 8558
SWIDTH 1000 0
DWIDTH 18 0
BBX 18 18 0 -2
BITMAP
000000
000000
0c1e40
126140
258180
190080
030080
040000
040000
040000
0c0000
040200
060600
061800
01e000
000000
000000
000000
ENDCHAR
STARTCHAR 216f
ENCODING 8559
SWIDTH 1000 0
DWIDTH 18 0
BBX 18 18 0 -2
BITMAP
000000
000000
0f87c0
020100
040200
020400
1fff80
021000
022000
014000
7ffe00
010000
010000
020000
020000
0f8000
000000
000000
ENDCHAR
STARTCHAR 2170
ENCODING 8560
SWIDTH 1000 0
DWIDTH 18 0
BBX 18 18 0 -2
BITMAP
000000
000000
002000
00fc00
024c00
044600
044000
048000
038000
00f000
011000
010800
110800
322000
1fc000
020000
000000
000000
ENDCHAR
STARTCHAR 2171
ENCODING 8561
SWIDTH 1000 0
DWIDTH 18 0
BBX 18 18 0 -2
BITMAP
000000
000000
000000
000000
000000
000000
000800
01e000
023000
044800
088000
090000
090000
0c2000
07c000
080000
000000
000000
ENDCHAR
STARTCHAR 2172
ENCODING 8562
SWIDTH 1000 0
DWIDTH 18 0
BBX 18 18 0 -2
BITMAP
000000
000000
003e00
004100
010100
010000
010000
020000
020000
3ff800
020000
020000
3a0000
8c0400
8b0800
70f000
000000
000000
ENDCHAR
STARTCHAR 2173
ENCODING 8563
SWIDTH 1000 0
DWIDTH 18 0
BBX 18 18 0 -2
BITMAP
000000
000000
070040
088080
110200
110400
110800
222000
1c4000
008e00
022200
042200
082200
204400
404400
803800
000000
000000
ENDCHAR
STARTCHAR 2174
ENCODING 8564
SWIDTH 1000 0
DWIDTH 18 0
BBX 18 18 0 -2
BITMAP
000000
004200
004200
004200
008400
07ff00
07ff00
021000
021000
021000
042000
3ff800
3ff800
108000
108000
108000
108000
000000
ENDCHAR
STARTCHAR 2175
ENCODING 8565
SWIDTH 1000 0
DWIDTH 18 0
BBX 18 18 0 -2
BITMAP
000000
000000
01e000
031000
042000
046000
06c000
073e00
060800
0f1800
332000
61e000
40c000
83c400
466c00
3c3800
000000
000000
ENDCHAR
STARTCHAR 2176
ENCODING 8566
SWIDTH 1000 0
DWIDTH 18 0
BBX 18 18 0 -2
BITMAP
000000
000000
000000
000000
000000
004000
064c00
06b000
03e000
008000
07c000
0d6000
193000
020000
000000
000000
000000
000000
ENDCHAR
STARTCHAR 2177
ENCODING 8567
SWIDTH 1000 0
DWIDTH 18 0
BBX 18 18 0 -2
BITMAP
000000
000000
000000
007800
030c00
040200
046a00
113200
122200
122200
24c800
137000
100400
183000
07c000
000000
000000
000000
ENDCHAR
STARTCHAR 2178
ENCODING 8568
SWIDTH 1000 0
DWIDTH 18 0
BBX 18 18 0 -2
BITMAP
000000
000000
00f800
018e00
030c00
038000
01e000
067000
041800
060800
073000
01e000
007000
186000
1c6000
07c000
000000
000000
ENDCHAR
STARTCHAR 2179
ENCODING 8569
SWIDTH 1000 0
DWIDTH 18 0
BBX 18 18 0 -2
BITMAP
000000
000000
002000
005000
00a000
011000
011000
3e3e00
100400
080800
082000
082000
111000
252000
58d000
603000
000000
000000
ENDCHAR
STARTCHAR 217a
ENCODING 8570
SWIDTH 1000 0
DWIDTH 18 0
BBX 18 18 0 -2
BITMAP
000000
000000
002000
002000
00e000
00e000
01f000
3ffe00
1ffc00
0ff800
0fe000
0fe000
1ef000
38e000
707000
401000
000000
000000
ENDCHAR
STARTCHAR 217b
ENCODING 8571
SWIDTH 1000 0
DWIDTH 18 0
BBX 18 18 0 -2
BITMAP
000000
000000
007800
018600
040200
080100
080100
200100
200100
200100
400200
200400
200400
201000
186000
078000
000000
000000
ENDCHAR
STARTCHAR 217c
ENCODING 8572
SWIDTH 1000 0
DWIDTH 18 0
BBX 18 18 0 -2
BITMAP
000000
000000
007800
01fe00
07fe00
0fff00
0fff00
3fff00
3fff00
3fff00
7ffe00
3ffc00
3ffc00
3ff000
1fe000
078000
000000
000000
ENDCHAR
STARTCHAR 217d
ENCODING 8573
SWIDTH 1000 0
DWIDTH 18 0
BBX 18 18 0 -2
BITMAP
000000
000000
007800
018600
040200
08f100
090900
240900
240900
240900
481200
242400
23c400
201000
186000
078000
000000
000000
ENDCHAR
STARTCHAR 217e
ENCODING 8574
SWIDTH 1000 0
DWIDTH 18 0
BBX 18 18 0 -2
BITMAP
000000
003000
004800
008400
020400
040200
080100
200100
400080
400080
400200
200400
100800
102000
084000
048000
030000
000000
ENDCHAR
STARTCHAR 2221
ENCODING 8737
SWIDTH 1000 0
DWIDTH 18 0
BBX 18 18 0 -2
BITMAP
000000
003000
007800
00fc00
03fc00
07fe00
0fff00
3fff00
7fff80
7fff80
7ffe00
3ffc00
1ff800
1fe000
0fc000
078000
030000
000000
ENDCHAR
STARTCHAR 2222
ENCODING 8738
SWIDTH 1000 0
DWIDTH 18 0
BBX 18 18 0 -2
BITMAP
000000
000000
0fffc0
080040
100080
100080
100080
200100
200100
200100
400200
400200
400200
800400
800400
fffc00
000000
000000
ENDCHAR
STARTCHAR 2223
ENCODING 8739
SWIDTH 1000 0
DWIDTH 18 0
BBX 18 18 0 -2
BITMAP
000000
000000
0fffc0
0fffc0
1fff80
1fff80
1fff80
3fff00
3fff00
3fff00
7ffe00
7ffe00
7ffe00
fffc00
fffc00
fffc00
000000
000000
ENDCHAR
STARTCHAR 2224
ENCODING 8740
SWIDTH 1000 0
DWIDTH 18 0
BBX 18 18 0 -2
BITMAP
000000
000000
000000
002000
00a000
00a000
011000
022000
041000
040800
101000
100800
200800
400800
fffc00
000000
000000
000000
ENDCHAR
STARTCHAR 2225
ENCODING 8741
SWIDTH 1000 0
DWIDTH 18 0
BBX 18 18 0 -2
BITMAP
000000
000000
000000
002000
00e000
00e000
01f000
03f000
07f000
07f800
1ff000
1ff800
3ffc00
7ff800
fffc00
000000
000000
000000
ENDCHAR
STARTCHAR 2226
ENCODING 8742
SWIDTH 1000 0
DWIDTH 18 0
BBX 18 18 0 -2
BITMAP
000000
000000
000000
0fffc0
080100
080200
040200
080800
040800
041000
044000
044000
028000
050000
020000
000000
000000
000000
ENDCHAR
STARTCHAR 2227
ENCODING 8743
SWIDTH 1000 0
DWIDTH 18 0
BBX 18 18 0 -2
BITMAP
000000
000000
000000
0fffc0
0fff00
0fff00
07fe00
0ff800
07f800
07f000
07e000
07c000
038000
070000
020000
000000
000000
000000
ENDCHAR
STARTCHAR 2228
ENCODING 8744
SWIDTH 1000 0
DWIDTH 18 0
BBX 18 18 0 -2
BITMAP
000000
000000
000000
043080
046200
020400
010800
012000
18c600
18c600
024000
042000
081000
231000
430800
000000
000000
000000
ENDCHAR
STARTCHAR 2229
ENCODING 8745
SWIDTH 1000 0
DWIDTH 18 0
BBX 18 18 0 -2
BITMAP
000000
000000
0fffc0
0fffc0
000000
000000
1fff80
3fff00
00c000
00c000
018000
018000
018000
030000
030000
030000
000000
000000
ENDCHAR
STARTCHAR 222a
ENCODING 8746
SWIDTH 1000 0
DWIDTH 18 0
BBX 18 18 0 -2
BITMAP
000000
000000
000000
000000
000000
000000
000200
000200
7fff80
000200
000800
000000
000000
000000
000000
000000
000000
000000
ENDCHAR
STARTCHAR 222b
ENCODING 8747
SWIDTH 1000 0
DWIDTH 18 0
BBX 18 18 0 -2
BITMAP
000000
000000
000000
000000
000000
000000
040000
100000
7fff80
100000
100000
000000
000000
000000
000000
000000
000000
000000
ENDCHAR
STARTCHAR 222c
ENCODING 8748
SWIDTH 1000 0
DWIDTH 18 0
BBX 18 18 0 -2
BITMAP
000000
002000
002000
007000
015000
004000
004000
008000
008000
008000
010000
010000
010000
020000
020000
020000
020000
000000
ENDCHAR
STARTCHAR 222d
ENCODING 8749
SWIDTH 1000 0
DWIDTH 18 0
BBX 18 18 0 -2
BITMAP
000000
002000
002000
002000
004000
004000
004000
008000
008000
008000
010000
010000
010000
0a8000
070000
020000
020000
000000
ENDCHAR
STARTCHAR 222e
ENCODING 8750
SWIDTH 1000 0
DWIDTH 18 0
BBX 18 18 0 -2
BITMAP
000000
000000
000000
0fffc0
1fff80
1fff80
1fff80
000000
000000
000000
7ffe00
7ffe00
7ffe00
fffc00
000000
000000
000000
000000
ENDCHAR
STARTCHAR 223a
ENCODING 8762
SWIDTH 1000 0
DWIDTH 18 0
BBX 18 18 0 -2
BITMAP
000000
000000
000000
000000
01fe00
020000
040000
080000
0ffc00
080000
100000
080000
07f800
000000
000000
000000
000000
000000
ENDCHAR
STARTCHAR 223b
ENCODING 8763
SWIDTH 1000 0
DWIDTH 18 0
BBX 18 18 0 -2
BITMAP
000000
000000
000000
000000
07f800
000400
000200
000400
0ffc00
000400
000800
001000
1fe000
000000
000000
000000
000000
000000
ENDCHAR
STARTCHAR 223c
ENCODING 8764
SWIDTH 1000 0
DWIDTH 18 0
BBX 18 18 0 -2
BITMAP
000000
000000
000000
01ff80
040000
080000
080000
100000
100000
080000
0ffc00
000000
000000
7ff800
000000
000000
000000
000000
ENDCHAR
STARTCHAR 223d
ENCODING 8765
SWIDTH 1000 0
DWIDTH 18 0
BBX 18 18 0 -2
BITMAP
000000
000000
000000
07fe00
000200
000100
000100
000200
000200
000400
3ff000
000000
000000
7ff800
000000
000000
000000
000000
ENDCHAR
STARTCHAR 223e
ENCODING 8766
SWIDTH 1000 0
DWIDTH 18 0
BBX 18 18 0 -2
BITMAP
000000
000000
000000
000000
01ff00
020000
040000
100000
100000
100000
200000
100000
080000
0ff800
000000
000000
000000
000000
ENDCHAR
STARTCHAR 223f
ENCODING 8767
SWIDTH 1000 0
DWIDTH 18 0
BBX 18 18 0 -2
BITMAP
000000
000000
000000
000000
0ff800
000400
000200
000200
000200
000200
000400
000800
001000
7fc000
000000
000000
000000
000000
ENDCHAR
STARTCHAR 2240
ENCODING 8768
SWIDTH 1000 0
DWIDTH 18 0
BBX 18 18 0 -2
BITMAP
000000
000000
000000
020100
040200
040200
040200
080400
080400
080400
100800
100800
081000
084000
078000
000000
000000
000000
ENDCHAR
STARTCHAR 2241
ENCODING 8769
SWIDTH 1000 0
DWIDTH 18 0
BBX 18 18 0 -2
BITMAP
000000
000000
000000
007800
010800
020400
040200
080400
080400
080400
100800
100800
100800
201000
201000
000000
000000
000000
ENDCHAR
STARTCHAR 224a
ENCODING 8778
SWIDTH 1000 0
DWIDTH 18 0
BBX 18 18 0 -2
BITMAP
000000
000000
000000
002000
004000
00a000
00a000
022000
022000
041000
082000
101000
101000
401000
401000
000000
000000
000000
ENDCHAR
STARTCHAR 224b
ENCODING 8779
SWIDTH 1000 0
DWIDTH 18 0
BBX 18 18 0 -2
BITMAP
000000
000000
000000
040100
080200
040400
040400
041000
041000
022000
044000
028000
028000
020000
020000
000000
000000
000000
ENDCHAR
STARTCHAR 224c
ENCODING 8780
SWIDTH 1000 0
DWIDTH 18 0
BBX 18 18 0 -2
BITMAP
000000
000000
000000
000000
000000
000000
000000
1ffe00
000200
000200
000400
000400
000000
000000
000000
000000
000000
000000
ENDCHAR
STARTCHAR 224d
ENCODING 8781
SWIDTH 1000 0
DWIDTH 18 0
BBX 18 18 0 -2
BITMAP
000000
000000
000000
000000
000400
000200
3fff00
000100
000080
000100
fffc00
000800
001000
000000
000000
000000
000000
000000
ENDCHAR
STARTCHAR 224e
ENCODING 8782
SWIDTH 1000 0
DWIDTH 18 0
BBX 18 18 0 -2
BITMAP
000000
000000
000000
000000
020400
040200
0fff00
200100
400080
200100
3ffc00
100800
081000
000000
000000
000000
000000
000000
ENDCHAR
STARTCHAR 224f
ENCODING 8783
SWIDTH 1000 0
DWIDTH 18 0
BBX 18 18 0 -2
BITMAP
000000
000000
080080
080080
080200
080200
07fc00
080800
041000
041000
044000
044000
028000
050000
020000
020000
000000
000000
ENDCHAR
STARTCHAR 2250
ENCODING 8784
SWIDTH 1000 0
DWIDTH 18 0
BBX 18 18 0 -2
BITMAP
000000
000000
000000
03fe00
000400
000400
000400
000800
0ff800
000800
001000
001000
001000
3fe000
000000
000000
000000
000000
ENDCHAR
STARTCHAR 225c
ENCODING 8796
SWIDTH 1000 0
DWIDTH 18 0
BBX 18 18 0 -2
BITMAP
000000
000000
000000
000100
000400
000800
001000
004000
008000
010000
040000
080000
100000
7ff800
000000
000000
000000
000000
ENDCHAR
STARTCHAR 225d
ENCODING 8797
SWIDTH 1000 0
DWIDTH 18 0
BBX 18 18 0 -2
BITMAP
000000
000000
000000
002000
004000
004000
004000
008000
008000
008000
010000
010000
010000
7ff800
000000
000000
000000
000000
ENDCHAR
STARTCHAR 225e
ENCODING 8798
SWIDTH 1000 0
DWIDTH 18 0
BBX 18 18 0 -2
BITMAP
000000
00fc00
070380
180060
000000
000000
000000
000000
000000
000000
000000
000000
000000
000000
000000
000000
000000
000000
ENDCHAR
STARTCHAR 225f
ENCODING 8799
SWIDTH 1000 0
DWIDTH 18 0
BBX 18 18 0 -2
BITMAP
000000
000000
003c00
006600
010400
000400
000400
01d800
023000
041000
186000
104000
10c000
330000
1e0000
000000
000000
000000
ENDCHAR
STARTCHAR 2260
ENCODING 8800
SWIDTH 1000 0
DWIDTH 18 0
BBX 18 18 0 -2
BITMAP
000000
000000
0fffc0
060080
0c0300
060200
060600
060800
061800
031000
066000
034000
03c000
030000
030000
000000
000000
000000
ENDCHAR
STARTCHAR 2261
ENCODING 8801
SWIDTH 1000 0
DWIDTH 18 0
BBX 18 18 0 -2
BITMAP
000000
000000
000000
000000
0fff00
000000
000000
000000
1ffe00
000000
000000
000000
3ffc00
000000
000000
000000
000000
000000
ENDCHAR
STARTCHAR 2262
ENCODING 8802
SWIDTH 1000 0
DWIDTH 18 0
BBX 18 18 0 -2
BITMAP
000000
000000
000000
030000
060000
000000
0fff00
000000
000000
000000
3ffc00
000000
001800
003000
000000
000000
000000
000000
ENDCHAR
STARTCHAR 2263
ENCODING 8803
SWIDTH 1000 0
DWIDTH 18 0
BBX 18 18 0 -2
BITMAP
000000
000000
000840
001080
00c600
010800
063000
108000
210000
108000
108000
084000
063000
021000
010800
008400
000000
000000
ENDCHAR
STARTCHAR 2264
ENCODING 8804
SWIDTH 1000 0
DWIDTH 18 0
BBX 18 18 0 -2
BITMAP
000000
000000
084000
042000
063000
010800
00c600
004200
002100
004200
010800
021000
0c6000
210000
420000
840000
000000
000000
ENDCHAR
STARTCHAR 2265
ENCODING 8805
SWIDTH 1000 0
DWIDTH 18 0
BBX 18 18 0 -2
BITMAP
000000
001fe0
001000
001000
004000
004000
004000
008000
010000
010000
020000
220000
740000
680000
380000
300000
100000
000000
ENDCHAR
STARTCHAR 2266
ENCODING 8806
SWIDTH 1000 0
DWIDTH 18 0
BBX 18 18 0 -2
BITMAP
000000
000000
000000
000000
000000
070e00
081100
204100
204100
208100
410200
220400
1c3800
000000
000000
000000
000000
000000
ENDCHAR
STARTCHAR 2267
ENCODING 8807
SWIDTH 1000 0
DWIDTH 18 0
BBX 18 18 0 -2
BITMAP
000000
000000
000000
000000
000000
070e00
089100
20c000
20c000
20c000
418000
224400
1c3800
000000
000000
000000
000000
000000
ENDCHAR
STARTCHAR 2268
ENCODING 8808
SWIDTH 1000 0
DWIDTH 18 0
BBX 18 18 0 -2
BITMAP
000000
000000
000000
000000
0c0300
0c0300
000000
000000
000000
000000
000000
000000
018000
030000
000000
000000
000000
000000
ENDCHAR
STARTCHAR 2269
ENCODING 8809
SWIDTH 1000 0
DWIDTH 18 0
BBX 18 18 0 -2
BITMAP
000000
003800
004800
004000
008000
00c000
00c000
008000
00c000
00c000
008000
00c000
00c000
008000
008000
048000
070000
000000
ENDCHAR
STARTCHAR 226a
ENCODING 8810
SWIDTH 1000 0
DWIDTH 18 0
BBX 18 18 0 -2
BITMAP
000000
01c700
024900
020800
041000
061800
061800
041000
061800
061800
041000
061800
061800
041000
041000
249000
38e000
000000
ENDCHAR
STARTCHAR 2272
ENCODING 8818
SWIDTH 1000 0
DWIDTH 18 0
BBX 18 18 0 -2
BITMAP
000000
003000
004800
004800
006000
000000
006000
00c000
012000
012000
042000
0ff000
081000
201000
f87c00
000000
000000
000000
ENDCHAR
STARTCHAR 2273
ENCODING 8819
SWIDTH 1000 0
DWIDTH 18 0
BBX 18 18 0 -2
BITMAP
000000
000000
060800
090800
122000
124000
124000
250000
1a0000
02c600
0a5200
125200
125200
44a400
84a400
831800
000000
000000
ENDCHAR
STARTCHAR 2274
ENCODING 8820
SWIDTH 1000 0
DWIDTH 18 0
BBX 18 18 0 -2
BITMAP
000000
000400
008400
008400
010f00
01ff00
0ff800
1e1000
021000
021000
043c00
07fc00
3fe000
784000
084000
084000
080000
000000
ENDCHAR
STARTCHAR 2275
ENCODING 8821
SWIDTH 1000 0
DWIDTH 18 0
BBX 18 18 0 -2
BITMAP
000000
008000
008000
008000
010000
010000
010000
02f000
031800
021800
043000
043000
046000
098000
0a0000
0c0000
080000
000000
ENDCHAR
STARTCHAR 2276
ENCODING 8822
SWIDTH 1000 0
DWIDTH 18 0
BBX 18 18 0 -2
BITMAP
000000
001000
001000
001800
003800
002c00
002600
004600
004200
004200
008800
009000
008000
1f0000
3f0000
3e0000
1c0000
000000
ENDCHAR
STARTCHAR 2277
ENCODING 8823
SWIDTH 1000 0
DWIDTH 18 0
BBX 18 18 0 -2
BITMAP
000000
002000
007000
012400
07fc00
024800
004000
03e000
01c000
01c000
038000
038000
038000
020000
020000
020000
020000
000000
ENDCHAR
STARTCHAR 2278
ENCODING 8824
SWIDTH 1000 0
DWIDTH 18 0
BBX 18 18 0 -2
BITMAP
000000
002000
007000
012400
07fc00
024800
00e000
01c000
008000
008000
038000
038000
092000
3fe000
124000
070000
020000
000000
ENDCHAR
STARTCHAR 2279
ENCODING 8825
SWIDTH 1000 0
DWIDTH 18 0
BBX 18 18 0 -2
BITMAP
000000
000000
00fc00
01e400
07c800
07c800
07c800
079000
039000
009000
012000
012000
012000
024000
024000
024000
024000
000000
ENDCHAR
STARTCHAR 227e
ENCODING 8830
SWIDTH 1000 0
DWIDTH 18 0
BBX 18 18 0 -2
BITMAP
000000
007800
018600
020100
080100
100080
100080
400080
400080
400080
800100
400200
400200
400800
201000
186000
078000
000000
ENDCHAR
STARTCHAR 2330
ENCODING 9008
SWIDTH 1000 0
DWIDTH 18 0
BBX 18 18 0 -2
BITMAP
000000
000000
007800
008400
020400
020400
060600
080400
080400
080400
100800
181800
081000
102000
084000
078000
000000
000000
ENDCHAR
STARTCHAR 2331
ENCODING 9009
SWIDTH 1000 0
DWIDTH 18 0
BBX 18 18 0 -2
BITMAP
000000
000000
002000
006000
014000
024000
004000
008000
008000
008000
010000
010000
010000
020000
020000
0f8000
000000
000000
ENDCHAR
STARTCHAR 2332
ENCODING 9010
SWIDTH 1000 0
DWIDTH 18 0
BBX 18 18 0 -2
BITMAP
000000
000000
00fc00
018200
060200
040200
000200
000c00
001800
003000
00c000
018000
030000
0c0000
180000
3ff000
000000
000000
ENDCHAR
STARTCHAR 2333
ENCODING 9011
SWIDTH 1000 0
DWIDTH 18 0
BBX 18 18 0 -2
BITMAP
000000
000000
007c00
01c200
060200
000200
000200
000800
03f000
000800
000800
000800
000800
003000
00e000
3f8000
000000
000000
ENDCHAR
STARTCHAR 2334
ENCODING 9012
SWIDTH 1000 0
DWIDTH 18 0
BBX 18 18 0 -2
BITMAP
000000
000000
000c00
001c00
006800
00c800
018800
061000
0c1000
181000
202000
3ffc00
002000
004000
004000
01f000
000000
000000
ENDCHAR
STARTCHAR 2335
ENCODING 9013
SWIDTH 1000 0
DWIDTH 18 0
BBX 18 18 0 -2
BITMAP
000000
000000
03ff00
020000
040000
040000
040000
0bf000
0c0800
080400
000800
000800
001800
006000
01c000
3f0000
000000
000000
ENDCHAR
STARTCHAR 2336
ENCODING 9014
SWIDTH 1000 0
DWIDTH 18 0
BBX 18 18 0 -2
BITMAP
000000
000000
001e00
007000
018000
030000
020000
0de000
0a1800
0c0c00
100800
100800
180800
103000
186000
078000
000000
000000
ENDCHAR
STARTCHAR 2337
ENCODING 9015
SWIDTH 1000 0
DWIDTH 18 0
BBX 18 18 0 -2
BITMAP
000000
000000
03ff80
020100
040600
040400
000c00
001000
003000
002000
00c000
008000
008000
030000
020000
020000
000000
000000
ENDCHAR
STARTCHAR 2338
ENCODING 9016
SWIDTH 1000 0
DWIDTH 18 0
BBX 18 18 0 -2
BITMAP
000000
000000
007800
018600
060600
040200
040200
040800
03f000
040800
100800
100800
100800
303000
186000
078000
000000
000000
ENDCHAR
STARTCHAR 2339
ENCODING 9017
SWIDTH 1000 0
DWIDTH 18 0
BBX 18 18 0 -2
BITMAP
000000
000000
007800
018600
060400
040600
040200
080400
0c0c00
061400
03d800
001000
003000
00c000
038000
1e0000
000000
000000
ENDCHAR
STARTCHAR 2341
ENCODING 9025
SWIDTH 1000 0
DWIDTH 18 0
BBX 18 18 0 -2
BITMAP
000000
000000
002000
007000
00a000
01b000
011000
063000
041000
07f000
183000
101000
301800
401000
f07c00
000000
000000
000000
ENDCHAR
STARTCHAR 2342
ENCODING 9026
SWIDTH 1000 0
DWIDTH 18 0
BBX 18 18 0 -2
BITMAP
000000
000000
07fc00
010200
020200
020200
020200
040800
07f000
040c00
080400
080400
080400
101000
7fe000
000000
000000
000000
ENDCHAR
STARTCHAR 2343
ENCODING 9027
SWIDTH 1000 0
DWIDTH 18 0
BBX 18 18 0 -2
BITMAP
000000
000000
007900
018500
060600
040200
0c0200
100000
100000
100000
300000
100800
181800
186000
078000
000000
000000
000000
ENDCHAR
STARTCHAR 2344
ENCODING 9028
SWIDTH 1000 0
DWIDTH 18 0
BBX 18 18 0 -2
BITMAP
000000
000000
07f800
010600
020600
020200
020300
040200
040200
040200
080c00
080800
081800
106000
7f8000
000000
000000
000000
ENDCHAR
STARTCHAR 2345
ENCODING 9029
SWIDTH 1000 0
DWIDTH 18 0
BBX 18 18 0 -2
BITMAP
000000
000000
07ff00
010100
020100
020000
021000
042000
07e000
042000
084000
080000
080400
101000
7ff000
000000
000000
000000
ENDCHAR
STARTCHAR 2346
ENCODING 9030
SWIDTH 1000 0
DWIDTH 18 0
BBX 18 18 0 -2
BITMAP
000000
000000
03ff80
008080
010100
010000
010800
021000
03f000
021000
042000
040000
040000
080000
3e0000
000000
000000
000000
ENDCHAR
STARTCHAR 2347
ENCODING 9031
SWIDTH 1000 0
DWIDTH 18 0
BBX 18 18 0 -2
BITMAP
000000
000000
007900
018700
060200
040200
0c0000
100000
100000
101f00
300800
100800
181800
185000
079000
000000
000000
000000
ENDCHAR
STARTCHAR 2348
ENCODING 9032
SWIDTH 1000 0
DWIDTH 18 0
BBX 18 18 0 -2
BITMAP
000000
000000
0f87c0
020100
040200
040200
040200
080400
0ffc00
080400
100800
100800
100800
201000
f87c00
000000
000000
000000
ENDCHAR
STARTCHAR 2349
ENCODING 9033
SWIDTH 1000 0
DWIDTH 18 0
BBX 18 18 0 -2
BITMAP
000000
000000
00f800
002000
004000
004000
004000
008000
008000
008000
010000
010000
010000
020000
0f8000
000000
000000
000000
ENDCHAR
STARTCHAR 234a
ENCODING 9034
SWIDTH 1000 0
DWIDTH 18 0
BBX 18 18 0 -2
BITMAP
000000
000000
001f00
000400
000800
000800
000800
001000
001000
001000
002000
002000
102000
308000
1f0000
000000
000000
000000
ENDCHAR
STARTCHAR 234b
ENCODING 9035
SWIDTH 1000 0
DWIDTH 18 0
BBX 18 18 0 -2
BITMAP
000000
000000
07cf80
010600
021800
023000
026000
058000
078000
04c000
08c000
086000
083000
103000
7c7c00
000000
000000
000000
ENDCHAR
STARTCHAR 234c
ENCODING 9036
SWIDTH 1000 0
DWIDTH 18 0
BBX 18 18 0 -2
BITMAP
000000
000000
03e000
008000
010000
010000
010000
020000
020000
020000
040000
040400
040400
080800
3ff800
000000
000000
000000
ENDCHAR
STARTCHAR 234d
ENCODING 9037
SWIDTH 1000 0
DWIDTH 18 0
BBX 18 18 0 -2
BITMAP
000000
000000
1e03c0
060300
0e0e00
0a0a00
0a0a00
163400
122400
122400
26c800
228800
238800
421000
e23c00
000000
000000
000000
ENDCHAR
STARTCHAR 234e
ENCODING 9038
SWIDTH 1000 0
DWIDTH 18 0
BBX 18 18 0 -2
BITMAP
000000
000000
0f07c0
038100
050200
058200
04c200
088400
08c400
086400
104800
106800
103800
203000
f01000
000000
000000
000000
ENDCHAR
STARTCHAR 234f
ENCODING 9039
SWIDTH 1000 0
DWIDTH 18 0
BBX 18 18 0 -2
BITMAP
000000
000000
007800
018600
060600
040200
0c0300
100200
100200
100200
300c00
100800
181800
186000
078000
000000
000000
000000
ENDCHAR
STARTCHAR 2350
ENCODING 9040
SWIDTH 1000 0
DWIDTH 18 0
BBX 18 18 0 -2
BITMAP
000000
000000
03fe00
008100
010100
010100
010100
020400
03f800
020000
040000
040000
040000
080000
3e0000
000000
000000
000000
ENDCHAR
STARTCHAR 2351
ENCODING 9041
SWIDTH 1000 0
DWIDTH 18 0
BBX 18 18 0 -2
BITMAP
000000
000000
007800
018600
060600
040200
0c0300
100200
100200
100200
300c00
118800
1a5800
186000
07a400
001800
000000
000000
ENDCHAR
STARTCHAR 2352
ENCODING 9042
SWIDTH 1000 0
DWIDTH 18 0
BBX 18 18 0 -2
BITMAP
000000
000000
07fc00
010200
020200
020200
020200
040800
07f000
041000
083000
081000
081800
101000
7c7c00
000000
000000
000000
ENDCHAR
STARTCHAR 2353
ENCODING 9043
SWIDTH 1000 0
DWIDTH 18 0
BBX 18 18 0 -2
BITMAP
000000
000000
00f900
010500
040600
040200
040200
060000
01e000
001800
100800
100800
180800
282000
27c000
000000
000000
000000
ENDCHAR
STARTCHAR 2354
ENCODING 9044
SWIDTH 1000 0
DWIDTH 18 0
BBX 18 18 0 -2
BITMAP
000000
000000
0fff80
082080
104100
004000
004000
008000
008000
008000
010000
010000
010000
020000
0f8000
000000
000000
000000
ENDCHAR
STARTCHAR 2355
ENCODING 9045
SWIDTH 1000 0
DWIDTH 18 0
BBX 18 18 0 -2
BITMAP
000000
000000
0f87c0
020100
040200
040200
040200
080400
080400
080400
100800
100800
181800
186000
078000
000000
000000
000000
ENDCHAR
STARTCHAR 2356
ENCODING 9046
SWIDTH 1000 0
DWIDTH 18 0
BBX 18 18 0 -2
BITMAP
000000
000000
0f87c0
020100
060600
020400
020c00
061000
021000
023000
064000
02c000
028000
070000
020000
000000
000000
000000
ENDCHAR
STARTCHAR 2357
ENCODING 9047
SWIDTH 1000 0
DWIDTH 18 0
BBX 18 18 0 -2
BITMAP
000000
000000
1f33e0
043080
086100
08f100
0c9300
092400
0b3400
0a1400
142800
1c3800
0c3000
102000
102000
000000
000000
000000
ENDCHAR
STARTCHAR 2358
ENCODING 9048
SWIDTH 1000 0
DWIDTH 18 0
BBX 18 18 0 -2
BITMAP
000000
000000
0f8f80
020200
060c00
031800
01b000
01c000
008000
01c000
06c000
0c6000
183000
202000
f0f800
000000
000000
000000
ENDCHAR
STARTCHAR 2359
ENCODING 9049
SWIDTH 1000 0
DWIDTH 18 0
BBX 18 18 0 -2
BITMAP
000000
000000
0f8f80
020200
060c00
020800
031800
022000
036000
01c000
010000
010000
010000
020000
0f8000
000000
000000
000000
ENDCHAR
STARTCHAR 235a
ENCODING 9050
SWIDTH 1000 0
DWIDTH 18 0
BBX 18 18 0 -2
BITMAP
000000
000000
03ff00
020600
041800
001000
003000
00c000
008000
018000
060000
040000
0c0800
301000
7ff000
000000
000000
000000
ENDCHAR
STARTCHAR 2361
ENCODING 9057
SWIDTH 1000 0
DWIDTH 18 0
BBX 18 18 0 -2
BITMAP
000000
000000
000000
000000
000000
000000
000000
03e000
041000
001000
07e000
082000
082000
10d000
0f3000
000000
000000
000000
ENDCHAR
STARTCHAR 2362
ENCODING 9058
SWIDTH 1000 0
DWIDTH 18 0
BBX 18 18 0 -2
BITMAP
000000
000000
038000
008000
010000
010000
010000
02f000
030800
020400
040800
040800
040800
0c2000
0bc000
000000
000000
000000
ENDCHAR
STARTCHAR 2363
ENCODING 9059
SWIDTH 1000 0
DWIDTH 18 0
BBX 18 18 0 -2
BITMAP
000000
000000
000000
000000
000000
000000
000000
01f000
020800
040000
080000
080000
080000
082000
07c000
000000
000000
000000
ENDCHAR
STARTCHAR 2364
ENCODING 9060
SWIDTH 1000 0
DWIDTH 18 0
BBX 18 18 0 -2
BITMAP
000000
000000
001c00
000400
000800
000800
000800
03d000
043000
081000
102000
102000
102000
10c000
0f7000
000000
000000
000000
ENDCHAR
STARTCHAR 2365
ENCODING 9061
SWIDTH 1000 0
DWIDTH 18 0
BBX 18 18 0 -2
BITMAP
000000
000000
000000
000000
000000
000000
000000
01e000
021000
040800
0ff000
080000
080000
082000
07c000
000000
000000
000000
ENDCHAR
STARTCHAR 2366
ENCODING 9062
SWIDTH 1000 0
DWIDTH 18 0
BBX 18 18 0 -2
BITMAP
000000
000000
000e00
001100
004000
004000
004000
07f000
008000
008000
010000
010000
010000
020000
0f8000
000000
000000
000000
ENDCHAR
STARTCHAR 2367
ENCODING 9063
SWIDTH 1000 0
DWIDTH 18 0
BBX 18 18 0 -2
BITMAP
000000
000000
000000
000000
000000
000000
000000
03ec00
041000
041000
082000
07c000
080000
1fe000
201000
201000
1fe000
000000
ENDCHAR
STARTCHAR 2368
ENCODING 9064
SWIDTH 1000 0
DWIDTH 18 0
BBX 18 18 0 -2
BITMAP
000000
000000
038000
008000
010000
010000
010000
02f000
031800
020800
041000
041000
041000
082000
3c7800
000000
000000
000000
ENDCHAR
STARTCHAR 2369
ENCODING 9065
SWIDTH 1000 0
DWIDTH 18 0
BBX 18 18 0 -2
BITMAP
000000
000000
000000
003000
006000
000000
000000
01c000
004000
004000
008000
008000
008000
010000
07c000
000000
000000
000000
ENDCHAR
STARTCHAR 236a
ENCODING 9066
SWIDTH 1000 0
DWIDTH 18 0
BBX 18 18 0 -2
BITMAP
000000
000000
000000
001800
003000
000000
000000
00e000
002000
002000
004000
004000
004000
008000
008000
210000
1e0000
000000
ENDCHAR
STARTCHAR 236b
ENCODING 9067
SWIDTH 1000 0
DWIDTH 18 0
BBX 18 18 0 -2
BITMAP
000000
000000
070000
010000
020000
020000
020000
047c00
043000
04c000
0e0000
090000
08c000
106000
7cf800
000000
000000
000000
ENDCHAR
STARTCHAR 236c
ENCODING 9068
SWIDTH 1000 0
DWIDTH 18 0
BBX 18 18 0 -2
BITMAP
000000
000000
00e000
002000
004000
004000
004000
008000
008000
008000
010000
010000
010000
020000
0f8000
000000
000000
000000
ENDCHAR
STARTCHAR 236d
ENCODING 9069
SWIDTH 1000 0
DWIDTH 18 0
BBX 18 18 0 -2
BITMAP
000000
000000
000000
000000
000000
000000
000000
1b9c00
0c6200
084200
108400
108400
108400
210800
739c00
000000
000000
000000
ENDCHAR
STARTCHAR 236e
ENCODING 9070
SWIDTH 1000 0
DWIDTH 18 0
BBX 18 18 0 -2
BITMAP
000000
000000
000000
000000
000000
000000
000000
0ef000
031800
020800
041000
041000
041000
082000
3c7800
000000
000000
000000
ENDCHAR
STARTCHAR 236f
ENCODING 9071
SWIDTH 1000 0
DWIDTH 18 0
BBX 18 18 0 -2
BITMAP
000000
000000
000000
000000
000000
000000
000000
01e000
021000
040800
081000
081000
081000
084000
078000
000000
000000
000000
ENDCHAR
STARTCHAR 2370
ENCODING 9072
SWIDTH 1000 0
DWIDTH 18 0
BBX 18 18 0 -2
BITMAP
000000
000000
000000
000000
000000
000000
000000
0ef000
030800
020400
040800
040800
061000
0bc000
080000
080000
3e0000
000000
ENDCHAR
STARTCHAR 2371
ENCODING 9073
SWIDTH 1000 0
DWIDTH 18 0
BBX 18 18 0 -2
BITMAP
000000
000000
000000
000000
000000
000000
000000
03d000
043000
081000
102000
102000
086000
0f4000
004000
004000
01f000
000000
ENDCHAR
STARTCHAR 2372
ENCODING 9074
SWIDTH 1000 0
DWIDTH 18 0
BBX 18 18 0 -2
BITMAP
000000
000000
000000
000000
000000
000000
000000
073800
014800
018000
020000
020000
020000
040000
1f0000
000000
000000
000000
ENDCHAR
STARTCHAR 2373
ENCODING 9075
SWIDTH 1000 0
DWIDTH 18 0
BBX 18 18 0 -2
BITMAP
000000
000000
000000
000000
000000
000000
000000
03e800
041800
040800
078000
006000
081000
182000
17c000
000000
000000
000000
ENDCHAR
STARTCHAR 2374
ENCODING 9076
SWIDTH 1000 0
DWIDTH 18 0
BBX 18 18 0 -2
BITMAP
000000
000000
000000
004000
008000
008000
008000
0ff000
010000
010000
020000
020000
020000
022000
01c000
000000
000000
000000
ENDCHAR
STARTCHAR 2375
ENCODING 9077
SWIDTH 1000 0
DWIDTH 18 0
BBX 18 18 0 -2
BITMAP
000000
000000
000000
000000
000000
000000
000000
0e3800
020800
020800
041000
041000
041000
0c6000
07b800
000000
000000
000000
ENDCHAR
STARTCHAR 2376
ENCODING 9078
SWIDTH 1000 0
DWIDTH 18 0
BBX 18 18 0 -2
BITMAP
000000
000000
000000
000000
000000
000000
000000
1e3c00
041000
063000
044000
06c000
028000
070000
020000
000000
000000
000000
ENDCHAR
STARTCHAR 2377
ENCODING 9079
SWIDTH 1000 0
DWIDTH 18 0
BBX 18 18 0 -2
BITMAP
000000
000000
000000
000000
000000
000000
000000
3ccf00
08c400
0dec00
0a5000
0a5000
0e7000
084000
084000
000000
000000
000000
ENDCHAR
STARTCHAR 2378
ENCODING 9080
SWIDTH 1000 0
DWIDTH 18 0
BBX 18 18 0 -2
BITMAP
000000
000000
000000
000000
000000
000000
000000
0f3c00
021000
012000
018000
024000
042000
102000
7cf800
000000
000000
000000
ENDCHAR
STARTCHAR 2379
ENCODING 9081
SWIDTH 1000 0
DWIDTH 18 0
BBX 18 18 0 -2
BITMAP
000000
000000
000000
000000
000000
000000
000000
0f1e00
020800
031800
022000
036000
014000
018000
030000
260000
1c0000
000000
ENDCHAR
STARTCHAR 237a
ENCODING 9082
SWIDTH 1000 0
DWIDTH 18 0
BBX 18 18 0 -2
BITMAP
000000
000000
000000
000000
000000
000000
000000
07f800
041000
042000
008000
010000
021000
082000
1fe000
000000
000000
000000
ENDCHAR
STARTCHAR 2421
ENCODING 9249
SWIDTH 1000 0
DWIDTH 18 0
BBX 18 18 0 -2
BITMAP
000000
000000
000000
000000
000000
010000
011000
0fe000
020000
0fa000
14c000
252000
462000
4a4000
308000
030000
000000
000000
ENDCHAR
STARTCHAR 2422
ENCODING 9250
SWIDTH 1000 0
DWIDTH 18 0
BBX 18 18 0 -2
BITMAP
000000
000000
004000
002100
044e00
03f000
008000
017800
03a600
052100
1a4100
218200
428200
4c0c00
303000
01c000
000000
000000
ENDCHAR
STARTCHAR 2423
ENCODING 9251
SWIDTH 1000 0
DWIDTH 18 0
BBX 18 18 0 -2
BITMAP
000000
000000
000000
000000
000000
000000
080000
102000
101000
101000
201000
201000
207000
282000
300000
100000
000000
000000
ENDCHAR
STARTCHAR 2424
ENCODING 9252
SWIDTH 1000 0
DWIDTH 18 0
BBX 18 18 0 -2
BITMAP
000000
000000
000000
040000
040400
040200
080100
100100
100100
100100
221a00
240600
240200
380000
180000
000000
000000
000000
ENDCHAR
STARTCHAR 2425
ENCODING 9253
SWIDTH 1000 0
DWIDTH 18 0
BBX 18 18 0 -2
BITMAP
000000
000000
000000
000000
010000
00e000
004000
000000
03e000
0c1000
001000
002000
002000
00c000
030000
0c0000
000000
000000
ENDCHAR
STARTCHAR 2426
ENCODING 9254
SWIDTH 1000 0
DWIDTH 18 0
BBX 18 18 0 -2
BITMAP
000000
004000
003c00
000800
000000
007800
058400
060400
000400
000400
000800
001000
002000
004000
018000
060000
000000
000000
ENDCHAR
STARTCHAR 2427
ENCODING 9255
SWIDTH 1000 0
DWIDTH 18 0
BBX 18 18 0 -2
BITMAP
000000
000000
000000
000000
010000
00e000
004000
000000
0fe000
004000
018000
020000
070000
190000
210000
40e000
000000
000000
ENDCHAR
STARTCHAR 2428
ENCODING 9256
SWIDTH 1000 0
DWIDTH 18 0
BBX 18 18 0 -2
BITMAP
000000
004000
003c00
000800
000000
047c00
038800
003000
004000
008000
01c000
022000
042000
184000
204000
403c00
000000
000000
ENDCHAR
STARTCHAR 2429
ENCODING 9257
SWIDTH 1000 0
DWIDTH 18 0
BBX 18 18 0 -2
BITMAP
000000
000000
000000
000000
000000
010000
011000
139000
0e0800
020000
05e000
061000
1c1000
282000
484000
398000
000000
000000
ENDCHAR
STARTCHAR 242a
ENCODING 9258
SWIDTH 1000 0
DWIDTH 18 0
BBX 18 18 0 -2
BITMAP
000000
000000
010000
008000
010600
012100
09c080
0e0000
023800
03c400
060400
0c0400
340400
4a3800
39c000
080000
000000
000000
ENDCHAR
STARTCHAR 242b
ENCODING 9259
SWIDTH 1000 0
DWIDTH 18 0
BBX 18 18 0 -2
BITMAP
000000
000000
008000
00c000
010000
016400
139200
1e3200
022200
042100
044e00
084200
104000
288000
450000
860000
000000
000000
ENDCHAR
STARTCHAR c242c
ENCODING 9260
SWIDTH 1000 0
DWIDTH 18 0
BBX 18 18 0 -2
BITMAP
000000
000080
008240
00c100
010000
016400
139200
1e3200
022200
042100
044e00
084200
104000
288000
450000
860000
000000
000000
ENDCHAR
STARTCHAR 242d
ENCODING 9261
SWIDTH 1000 0
DWIDTH 18 0
BBX 18 18 0 -2
BITMAP
000000
000000
002000
001100
022e00
01f000
001100
081e00
07f000
000800
001000
07f800
080800
100000
080000
07c000
000000
000000
ENDCHAR
STARTCHAR 242e
ENCODING 9262
SWIDTH 1000 0
DWIDTH 18 0
BBX 18 18 0 -2
BITMAP
000000
000080
004040
004300
045c80
03e000
002200
103c00
0fe000
001000
002000
0ff000
101000
200000
100000
0f8000
000000
000000
ENDCHAR
STARTCHAR 242f
ENCODING 9263
SWIDTH 1000 0
DWIDTH 18 0
BBX 18 18 0 -2
BITMAP
000000
000000
000200
000200
000c00
001000
00e000
038000
040000
040000
060000
018000
004000
004000
002000
001000
001000
000000
ENDCHAR
STARTCHAR 2430
ENCODING 9264
SWIDTH 1000 0
DWIDTH 18 0
BBX 18 18 0 -2
BITMAP
000000
000000
000200
000200
000c80
001040
006200
038100
040000
040000
060000
018000
004000
004000
002000
001000
001000
000000
ENDCHAR
STARTCHAR 2431
ENCODING 9265
SWIDTH 1000 0
DWIDTH 18 0
BBX 18 18 0 -2
BITMAP
000000
000000
000400
040200
040400
040480
088700
10f800
100800
100800
201000
281000
282000
704000
218000
060000
000000
000000
ENDCHAR
STARTCHAR 2432
ENCODING 9266
SWIDTH 1000 0
DWIDTH 18 0
BBX 18 18 0 -2
BITMAP
000000
000000
000800
080540
080940
080800
110f00
21f000
201000
201000
402000
502000
502000
e0c000
430000
0c0000
000000
000000
ENDCHAR
STARTCHAR 2433
ENCODING 9267
SWIDTH 1000 0
DWIDTH 18 0
BBX 18 18 0 -2
BITMAP
000000
000000
000000
008700
00f800
001000
002000
000000
000000
000000
080000
100000
100000
180800
07f000
000000
000000
000000
ENDCHAR
STARTCHAR 2434
ENCODING 9268
SWIDTH 1000 0
DWIDTH 18 0
BBX 18 18 0 -2
BITMAP
000000
000000
000000
008700
00f800
001100
002080
000800
000400
000000
080000
100000
100000
180800
07f000
000000
000000
000000
ENDCHAR
STARTCHAR 2435
ENCODING 9269
SWIDTH 1000 0
DWIDTH 18 0
BBX 18 18 0 -2
BITMAP
000000
000000
006000
001000
002100
041e00
03f000
002000
001000
001000
0ff000
101000
200000
200000
180000
07c000
000000
000000
ENDCHAR
STARTCHAR 2436
ENCODING 9270
SWIDTH 1000 0
DWIDTH 18 0
BBX 18 18 0 -2
BITMAP
000000
000480
006240
001000
002100
041e00
03f000
002000
001000
001000
0ff000
101000
200000
200000
180000
07c000
000000
000000
ENDCHAR
STARTCHAR 2437
ENCODING 9271
SWIDTH 1000 0
DWIDTH 18 0
BBX 18 18 0 -2
BITMAP
000000
000000
020000
010000
030000
020000
020000
040000
040000
040000
080400
080400
080800
103000
08c000
070000
000000
000000
ENDCHAR
STARTCHAR 2438
ENCODING 9272
SWIDTH 1000 0
DWIDTH 18 0
BBX 18 18 0 -2
BITMAP
000000
000000
020000
010400
030200
021000
020800
040000
040000
040000
080400
080400
080800
103000
08c000
070000
000000
000000
ENDCHAR
STARTCHAR 2439
ENCODING 9273
SWIDTH 1000 0
DWIDTH 18 0
BBX 18 18 0 -2
BITMAP
000000
000000
001000
000800
101f80
0ff000
001000
002000
03e000
042000
084000
07c000
008000
010000
060000
180000
000000
000000
ENDCHAR
STARTCHAR 243a
ENCODING 9274
SWIDTH 1000 0
DWIDTH 18 0
BBX 18 18 0 -2
BITMAP
000000
000080
001240
000900
081f80
07f000
001000
002000
01e000
022000
044000
03c000
008000
010000
060000
180000
000000
000000
ENDCHAR
STARTCHAR 243b
ENCODING 9275
SWIDTH 1000 0
DWIDTH 18 0
BBX 18 18 0 -2
BITMAP
000000
000000
000400
010200
010400
010400
010780
13f800
0e0800
020800
041000
045000
042000
080000
080000
07f000
000000
000000
ENDCHAR
STARTCHAR 243c
ENCODING 9276
SWIDTH 1000 0
DWIDTH 18 0
BBX 18 18 0 -2
BITMAP
000000
000040
000840
020500
020900
020800
020f00
27f000
1c1000
041000
082000
08a000
084000
100000
100000
0fe000
000000
000000
ENDCHAR
STARTCHAR 243d
ENCODING 9277
SWIDTH 1000 0
DWIDTH 18 0
BBX 18 18 0 -2
BITMAP
000000
000000
013e00
00c400
001800
006000
008000
030f00
0c7000
1fe000
018000
020000
040000
040000
020000
01e000
000000
000000
ENDCHAR
STARTCHAR c243e
ENCODING 9278
SWIDTH 1000 0
DWIDTH 18 0
BBX 18 18 0 -2
BITMAP
000000
000080
013e40
00c500
001880
006000
008000
030f00
0c7000
1fe000
018000
020000
040000
040000
020000
01e000
000000
000000
ENDCHAR
STARTCHAR 243f
ENCODING 9279
SWIDTH 1000 0
DWIDTH 18 0
BBX 18 18 0 -2
BITMAP
000000
000000
008000
008000
012000
11c000
0f0000
043c00
044600
080800
100000
100000
210000
420000
410000
80f800
000000
000000
ENDCHAR
STARTCHAR 2440
ENCODING 9280
SWIDTH 1000 0
DWIDTH 18 0
BBX 18 18 0 -2
BITMAP
000000
000080
008040
008200
012100
11c000
0f0000
043c00
044600
040800
080000
100000
110000
220000
410000
80f800
000000
000000
ENDCHAR
STARTCHAR 2441
ENCODING 9281
SWIDTH 1000 0
DWIDTH 18 0
BBX 18 18 0 -2
BITMAP
000000
000000
004000
004000
008800
08f000
078000
010000
023c00
03c200
0e0200
080400
000400
001800
006000
078000
000000
000000
ENDCHAR
STARTCHAR 2442
ENCODING 9282
SWIDTH 1000 0
DWIDTH 18 0
BBX 18 18 0 -2
BITMAP
000000
000080
004040
004200
008900
08f000
078000
010000
023c00
03c200
0e0200
080400
000400
001800
006000
078000
000000
000000
ENDCHAR
STARTCHAR 2443
ENCODING 9283
SWIDTH 1000 0
DWIDTH 18 0
BBX 18 18 0 -2
BITMAP
000000
000000
000000
000000
000000
000000
000000
01e000
061000
180800
000800
001000
002000
01c000
0e0000
000000
000000
000000
ENDCHAR
STARTCHAR 2444
ENCODING 9284
SWIDTH 1000 0
DWIDTH 18 0
BBX 18 18 0 -2
BITMAP
000000
000000
000000
000000
007800
018600
160100
180100
000100
000100
000200
000400
001800
00e000
070000
000000
000000
000000
ENDCHAR
STARTCHAR 2445
ENCODING 9285
SWIDTH 1000 0
DWIDTH 18 0
BBX 18 18 0 -2
BITMAP
000000
000080
000240
000100
007800
018600
160100
180100
000100
000100
000200
000400
001800
00e000
070000
000000
000000
000000
ENDCHAR
STARTCHAR 2446
ENCODING 9286
SWIDTH 1000 0
DWIDTH 18 0
BBX 18 18 0 -2
BITMAP
000000
000000
000000
001fc0
08e600
070800
003000
004000
004000
008000
010000
010000
010000
010000
00f800
000000
000000
000000
ENDCHAR
STARTCHAR 2447
ENCODING 9287
SWIDTH 1000 0
DWIDTH 18 0
BBX 18 18 0 -2
BITMAP
000000
000000
000000
001fc0
08e600
070880
003040
004400
004200
008000
010000
010000
010000
010000
00f800
000000
000000
000000
ENDCHAR
STARTCHAR 2448
ENCODING 9288
SWIDTH 1000 0
DWIDTH 18 0
BBX 18 18 0 -2
BITMAP
000000
000000
008000
004000
008000
008000
008200
013c00
00c000
030000
0c0000
100000
200000
200000
180800
07f000
000000
000000
ENDCHAR
STARTCHAR 2449
ENCODING 9289
SWIDTH 1000 0
DWIDTH 18 0
BBX 18 18 0 -2
BITMAP
000000
000080
008440
004200
008000
008000
008200
013c00
00c000
070000
080000
100000
200000
200000
180800
07f000
000000
000000
ENDCHAR
STARTCHAR 244a
ENCODING 9290
SWIDTH 1000 0
DWIDTH 18 0
BBX 18 18 0 -2
BITMAP
000000
000000
008000
009000
11e000
0f0f00
020180
040400
081000
101000
101000
201000
41f000
043800
042400
03c000
000000
000000
ENDCHAR
STARTCHAR 244b
ENCODING 9291
SWIDTH 1000 0
DWIDTH 18 0
BBX 18 18 0 -2
BITMAP
000000
000000
000000
040000
044f00
043200
040400
080000
100000
100000
210000
210000
290000
510000
60f800
200000
000000
000000
ENDCHAR
STARTCHAR 244c
ENCODING 9292
SWIDTH 1000 0
DWIDTH 18 0
BBX 18 18 0 -2
BITMAP
000000
000000
002000
001000
082000
047c00
05c200
0a8200
0c8200
190200
2b0400
2a0400
4cfc00
550800
211400
00e000
000000
000000
ENDCHAR
STARTCHAR 244d
ENCODING 9293
SWIDTH 1000 0
DWIDTH 18 0
BBX 18 18 0 -2
BITMAP
000000
000000
020000
010000
020e00
033100
16c100
1d0200
060200
040200
080400
187c00
288c00
511400
30e000
100000
000000
000000
ENDCHAR
STARTCHAR 244e
ENCODING 9294
SWIDTH 1000 0
DWIDTH 18 0
BBX 18 18 0 -2
BITMAP
000000
000000
000000
007c00
01a200
022100
042080
084080
108100
108100
210200
210200
120400
1c3800
01c000
000000
000000
000000
ENDCHAR
STARTCHAR 244f
ENCODING 9295
SWIDTH 1000 0
DWIDTH 18 0
BBX 18 18 0 -2
BITMAP
000000
000000
000400
040200
040480
048700
047c00
080800
100800
100800
200800
200800
28f800
521800
621400
21e000
000000
000000
ENDCHAR
STARTCHAR 2450
ENCODING 9296
SWIDTH 1000 0
DWIDTH 18 0
BBX 18 18 0 -2
BITMAP
000000
000120
000890
080400
080900
090e00
08f800
101000
201000
201000
401000
401000
51f000
a43000
c42800
43c000
000000
000000
ENDCHAR
STARTCHAR 2451
ENCODING 9297
SWIDTH 1000 0
DWIDTH 18 0
BBX 18 18 0 -2
BITMAP
000000
000080
000940
080540
080980
090e00
08f800
101000
201000
201000
401000
401000
51f000
a43000
c42800
43c000
000000
000000
ENDCHAR
STARTCHAR 2452
ENCODING 9298
SWIDTH 1000 0
DWIDTH 18 0
BBX 18 18 0 -2
BITMAP
000000
000000
000000
004400
118800
0e0800
020800
041400
081300
101000
202000
202000
404000
408000
210000
1e0000
000000
000000
ENDCHAR
STARTCHAR 2453
ENCODING 9299
SWIDTH 1000 0
DWIDTH 18 0
BBX 18 18 0 -2
BITMAP
000000
000080
000040
00c500
110880
0e0800
020800
041400
081300
101000
202000
202000
404000
408000
210000
1e0000
000000
000000
ENDCHAR
STARTCHAR 2454
ENCODING 9300
SWIDTH 1000 0
DWIDTH 18 0
BBX 18 18 0 -2
BITMAP
000000
000080
000140
004540
118880
0e0800
020c00
041400
081300
101000
202000
202000
404000
408000
210000
1e0000
000000
000000
ENDCHAR
STARTCHAR 2455
ENCODING 9301
SWIDTH 1000 0
DWIDTH 18 0
BBX 18 18 0 -2
BITMAP
000000
000000
008000
007800
002000
004000
008000
010000
008000
007000
039800
0c4400
504200
c08400
088000
070000
000000
000000
ENDCHAR
STARTCHAR 2456
ENCODING 9302
SWIDTH 1000 0
DWIDTH 18 0
BBX 18 18 0 -2
BITMAP
000000
000000
008080
007840
002200
004100
008000
010000
008000
007000
039800
0c4400
504200
c08400
088000
070000
000000
000000
ENDCHAR
STARTCHAR 2457
ENCODING 9303
SWIDTH 1000 0
DWIDTH 18 0
BBX 18 18 0 -2
BITMAP
000000
000000
008080
007940
002240
004180
008000
010000
008000
007000
039800
0c4400
504200
c08400
088000
070000
000000
000000
ENDCHAR
STARTCHAR 2458
ENCODING 9304
SWIDTH 1000 0
DWIDTH 18 0
BBX 18 18 0 -2
BITMAP
000000
000000
000000
000000
000000
00c000
012000
062000
082000
301000
001000
001000
000800
000c00
000000
000000
000000
000000
ENDCHAR
STARTCHAR 2459
ENCODING 9305
SWIDTH 1000 0
DWIDTH 18 0
BBX 18 18 0 -2
BITMAP
000000
000000
000080
000040
000400
00c200
012000
062000
082000
301000
001000
001000
000800
000c00
000000
000000
000000
000000
ENDCHAR
STARTCHAR 245a
ENCODING 9306
SWIDTH 1000 0
DWIDTH 18 0
BBX 18 18 0 -2
BITMAP
000000
000000
000000
000300
000480
00c480
012300
062000
282000
101000
001000
001000
000800
000c00
000000
000000
000000
000000
ENDCHAR
STARTCHAR 245b
ENCODING 9307
SWIDTH 1000 0
DWIDTH 18 0
BBX 18 18 0 -2
BITMAP
000000
000000
000000
042380
043c00
040400
040580
090e00
10f800
100800
200800
200800
29f800
521800
621400
21e000
000000
000000
ENDCHAR
STARTCHAR 245c
ENCODING 9308
SWIDTH 1000 0
DWIDTH 18 0
BBX 18 18 0 -2
BITMAP
000000
000080
000240
084300
087c00
080800
080900
121e00
21f000
201000
401000
401000
53f000
a43000
c42800
43c000
000000
000000
ENDCHAR
STARTCHAR 245d
ENCODING 9309
SWIDTH 1000 0
DWIDTH 18 0
BBX 18 18 0 -2
BITMAP
000000
000080
000140
042140
043e80
040400
040480
090f00
10f800
100800
200800
200800
29f800
521800
621400
21e000
000000
000000
ENDCHAR
STARTCHAR 245e
ENCODING 9310
SWIDTH 1000 0
DWIDTH 18 0
BBX 18 18 0 -2
BITMAP
000000
000000
000800
000800
041300
03fc00
001000
002200
042c00
03f000
004000
002000
0fe000
107000
104800
0f8000
000000
000000
ENDCHAR
STARTCHAR 245f
ENCODING 9311
SWIDTH 1000 0
DWIDTH 18 0
BBX 18 18 0 -2
BITMAP
000000
000000
027000
018800
003000
002000
004400
008400
07c400
193400
221800
440c00
881200
902000
604000
038000
000000
000000
ENDCHAR
STARTCHAR 2460
ENCODING 9312
SWIDTH 1000 0
DWIDTH 18 0
BBX 18 18 0 -2
BITMAP
000000
000000
020000
010000
124000
0f8600
020100
040100
1c0000
240800
480800
300800
100800
201000
206000
1f8000
000000
000000
ENDCHAR
STARTCHAR 2461
ENCODING 9313
SWIDTH 1000 0
DWIDTH 18 0
BBX 18 18 0 -2
BITMAP
000000
000000
000800
020c00
021000
027c00
039200
062200
0a4100
128100
210200
230400
2c0800
303000
01c000
000000
000000
000000
ENDCHAR
STARTCHAR 2462
ENCODING 9314
SWIDTH 1000 0
DWIDTH 18 0
BBX 18 18 0 -2
BITMAP
000000
000000
004000
002000
004000
044000
03f000
010400
090200
112100
1fc200
040200
080400
080800
041000
03e000
000000
000000
ENDCHAR
STARTCHAR 2463
ENCODING 9315
SWIDTH 1000 0
DWIDTH 18 0
BBX 18 18 0 -2
BITMAP
000000
000000
000000
000000
000000
004000
042000
040000
04f000
070800
3c0800
041000
04e000
040000
040000
040000
000000
000000
ENDCHAR
STARTCHAR 2464
ENCODING 9316
SWIDTH 1000 0
DWIDTH 18 0
BBX 18 18 0 -2
BITMAP
000000
000000
003000
000800
040000
021e00
02e100
270100
1e0100
020100
048600
047800
040000
040000
040000
040000
000000
000000
ENDCHAR
STARTCHAR 2465
ENCODING 9317
SWIDTH 1000 0
DWIDTH 18 0
BBX 18 18 0 -2
BITMAP
000000
000000
000000
000000
000000
004000
082000
11e000
125000
144800
289000
309000
24a000
27c000
020000
0c0000
000000
000000
ENDCHAR
STARTCHAR 2466
ENCODING 9318
SWIDTH 1000 0
DWIDTH 18 0
BBX 18 18 0 -2
BITMAP
000000
000000
000800
040400
040800
043e00
08c900
111100
121100
141100
2a2200
31a400
107800
008000
030000
0c0000
000000
000000
ENDCHAR
STARTCHAR 2467
ENCODING 9319
SWIDTH 1000 0
DWIDTH 18 0
BBX 18 18 0 -2
BITMAP
000000
000000
000000
000000
000000
008000
004000
008000
00f000
008000
010000
010000
3f0000
43c000
422000
3c0000
000000
000000
ENDCHAR
STARTCHAR 2468
ENCODING 9320
SWIDTH 1000 0
DWIDTH 18 0
BBX 18 18 0 -2
BITMAP
000000
000000
002000
001000
002000
002100
003e00
004000
004000
004000
004000
1fc000
207000
409800
310400
0e0000
000000
000000
ENDCHAR
STARTCHAR 2469
ENCODING 9321
SWIDTH 1000 0
DWIDTH 18 0
BBX 18 18 0 -2
BITMAP
000000
000000
008000
007800
002000
000000
010000
060000
047800
078400
0c0400
080400
000400
001800
00e000
070000
000000
000000
ENDCHAR
STARTCHAR 246a
ENCODING 9322
SWIDTH 1000 0
DWIDTH 18 0
BBX 18 18 0 -2
BITMAP
000000
000000
010000
009c00
012400
024200
028200
050400
050400
060400
0c0800
040800
001000
006000
018000
060000
000000
000000
ENDCHAR
STARTCHAR 246b
ENCODING 9323
SWIDTH 1000 0
DWIDTH 18 0
BBX 18 18 0 -2
BITMAP
000000
000000
000000
013e00
01c800
001000
002000
00c000
01f800
070400
080400
100400
038400
044800
045000
03e000
000000
000000
ENDCHAR
STARTCHAR 246c
ENCODING 9324
SWIDTH 1000 0
DWIDTH 18 0
BBX 18 18 0 -2
BITMAP
000000
000000
020000
010000
020c00
033200
16c200
1d0400
060400
0c0800
081000
181000
282300
502400
101800
100000
000000
000000
ENDCHAR
STARTCHAR 246d
ENCODING 9325
SWIDTH 1000 0
DWIDTH 18 0
BBX 18 18 0 -2
BITMAP
000000
000000
000000
013e00
01c800
001000
002000
00c000
01f800
070400
080400
100400
000400
001000
006000
078000
000000
000000
ENDCHAR
STARTCHAR 246e
ENCODING 9326
SWIDTH 1000 0
DWIDTH 18 0
BBX 18 18 0 -2
BITMAP
000000
000000
000000
000000
000000
020000
020000
066000
1d9000
060800
081000
181000
381000
506000
138000
100000
000000
000000
ENDCHAR
STARTCHAR 246f
ENCODING 9327
SWIDTH 1000 0
DWIDTH 18 0
BBX 18 18 0 -2
BITMAP
000000
000000
020000
010000
020000
033c00
16c300
1d0100
060100
0c0100
180200
280200
480c00
103000
11c000
100000
000000
000000
ENDCHAR
STARTCHAR 2470
ENCODING 9328
SWIDTH 1000 0
DWIDTH 18 0
BBX 18 18 0 -2
BITMAP
000000
000000
000000
017800
019000
002000
002000
01fc00
068200
188100
210100
220200
45c200
4a2c00
323000
01c000
000000
000000
ENDCHAR
STARTCHAR 2471
ENCODING 9329
SWIDTH 1000 0
DWIDTH 18 0
BBX 18 18 0 -2
BITMAP
000000
000000
013c00
00c800
003000
004000
00fc00
030400
040400
08e400
011800
02e000
040000
1c7000
228800
410400
000000
000000
ENDCHAR
STARTCHAR 2472
ENCODING 9330
SWIDTH 1000 0
DWIDTH 18 0
BBX 18 18 0 -2
BITMAP
000000
000000
002000
002400
087800
07c000
010100
03c200
072c00
183000
21c000
024000
044000
080000
081000
07e000
000000
000000
ENDCHAR
STARTCHAR 2473
ENCODING 9331
SWIDTH 1000 0
DWIDTH 18 0
BBX 18 18 0 -2
BITMAP
000000
000000
002000
003000
004000
004000
008000
010000
020000
078000
064000
084200
104200
208400
408800
407000
000000
000000
ENDCHAR
STARTCHAR 2521
ENCODING 9505
SWIDTH 1000 0
DWIDTH 18 0
BBX 18 18 0 -2
BITMAP
000000
000000
000000
000000
000000
000000
1ffc00
000800
011000
01e000
010000
020000
020000
040000
080000
300000
000000
000000
ENDCHAR
STARTCHAR 2522
ENCODING 9506
SWIDTH 1000 0
DWIDTH 18 0
BBX 18 18 0 -2
BITMAP
000000
000000
000000
1fff80
000080
000100
004600
004800
00b000
00c000
010000
010000
020000
040000
180000
600000
000000
000000
ENDCHAR
STARTCHAR 2523
ENCODING 9507
SWIDTH 1000 0
DWIDTH 18 0
BBX 18 18 0 -2
BITMAP
000000
000000
000000
000000
000000
000400
000400
000800
001000
006000
018000
068000
388000
010000
010000
010000
000000
000000
ENDCHAR
STARTCHAR 2524
ENCODING 9508
SWIDTH 1000 0
DWIDTH 18 0
BBX 18 18 0 -2
BITMAP
000000
000000
000080
000080
000100
000200
000400
001800
006000
03a000
3c4000
004000
004000
008000
008000
008000
000000
000000
ENDCHAR
STARTCHAR 2525
ENCODING 9509
SWIDTH 1000 0
DWIDTH 18 0
BBX 18 18 0 -2
BITMAP
000000
000000
000000
000000
000000
004000
004000
0ff800
080800
080800
101000
001000
002000
00c000
030000
0c0000
000000
000000
ENDCHAR
STARTCHAR 2526
ENCODING 9510
SWIDTH 1000 0
DWIDTH 18 0
BBX 18 18 0 -2
BITMAP
000000
000000
001000
001000
07ff00
040100
040100
080200
080200
080200
000400
000800
001000
004000
018000
060000
000000
000000
ENDCHAR
STARTCHAR 2527
ENCODING 9511
SWIDTH 1000 0
DWIDTH 18 0
BBX 18 18 0 -2
BITMAP
000000
000000
000000
000000
000000
000000
000000
0fe000
010000
010000
020000
020000
020000
040000
7fc000
000000
000000
000000
ENDCHAR
STARTCHAR 2528
ENCODING 9512
SWIDTH 1000 0
DWIDTH 18 0
BBX 18 18 0 -2
BITMAP
000000
000000
000000
000000
07ff00
002000
002000
004000
004000
004000
008000
008000
008000
010000
7ffc00
000000
000000
000000
ENDCHAR
STARTCHAR 2529
ENCODING 9513
SWIDTH 1000 0
DWIDTH 18 0
BBX 18 18 0 -2
BITMAP
000000
000000
000000
000000
000000
002000
002000
1ff800
004000
01c000
028000
048000
188000
210000
410000
030000
000000
000000
ENDCHAR
STARTCHAR 252a
ENCODING 9514
SWIDTH 1000 0
DWIDTH 18 0
BBX 18 18 0 -2
BITMAP
000000
000000
000400
000400
000800
0fff80
000800
003000
005000
009000
012000
022000
0c2000
704000
004000
01c000
000000
000000
ENDCHAR
STARTCHAR 252b
ENCODING 9515
SWIDTH 1000 0
DWIDTH 18 0
BBX 18 18 0 -2
BITMAP
000000
000000
004000
004000
008000
1ffe00
008200
010400
010400
020400
040800
041800
081000
102000
202000
c1c000
000000
000000
ENDCHAR
STARTCHAR 252c
ENCODING 9516
SWIDTH 1000 0
DWIDTH 18 0
BBX 18 18 0 -2
BITMAP
000000
000000
004480
004240
008000
1ffe00
008200
010400
010400
020400
040800
040800
081000
102000
202000
c1c000
000000
000000
ENDCHAR
STARTCHAR 252d
ENCODING 9517
SWIDTH 1000 0
DWIDTH 18 0
BBX 18 18 0 -2
BITMAP
000000
000000
004000
004000
008000
0ffe00
008000
008000
008000
008000
7ffc00
008000
008000
010000
010000
010000
000000
000000
ENDCHAR
STARTCHAR 252e
ENCODING 9518
SWIDTH 1000 0
DWIDTH 18 0
BBX 18 18 0 -2
BITMAP
000000
000200
008900
008400
010000
1ffc00
010000
010000
010000
010000
fff800
010000
010000
020000
020000
020000
000000
000000
ENDCHAR
STARTCHAR 252f
ENCODING 9519
SWIDTH 1000 0
DWIDTH 18 0
BBX 18 18 0 -2
BITMAP
000000
000000
000000
002000
007f00
008100
010100
020200
0c0400
000400
000800
001000
002000
00c000
030000
1c0000
000000
000000
ENDCHAR
STARTCHAR 2530
ENCODING 9520
SWIDTH 1000 0
DWIDTH 18 0
BBX 18 18 0 -2
BITMAP
000000
000080
000240
004100
00fe00
010200
020200
040400
180800
000800
001000
002000
004000
018000
060000
380000
000000
000000
ENDCHAR
STARTCHAR 2531
ENCODING 9521
SWIDTH 1000 0
DWIDTH 18 0
BBX 18 18 0 -2
BITMAP
000000
000000
008000
008000
010000
01ff80
020800
040800
081000
101000
002000
004000
008000
010000
060000
180000
000000
000000
ENDCHAR
STARTCHAR 2532
ENCODING 9522
SWIDTH 1000 0
DWIDTH 18 0
BBX 18 18 0 -2
BITMAP
000000
000080
008240
008100
010000
01ff80
020800
040800
081000
101000
002000
004000
008000
010000
060000
180000
000000
000000
ENDCHAR
STARTCHAR 2533
ENCODING 9523
SWIDTH 1000 0
DWIDTH 18 0
BBX 18 18 0 -2
BITMAP
000000
000000
000000
000000
0ffe00
000200
000200
000400
000400
000400
000800
000800
000800
001000
7ff000
000000
000000
000000
ENDCHAR
STARTCHAR 2534
ENCODING 9524
SWIDTH 1000 0
DWIDTH 18 0
BBX 18 18 0 -2
BITMAP
000000
000480
000240
000000
0ffe00
000200
000200
000400
000400
000400
000800
000800
000800
001000
7ff000
000000
000000
000000
ENDCHAR
STARTCHAR 2535
ENCODING 9525
SWIDTH 1000 0
DWIDTH 18 0
BBX 18 18 0 -2
BITMAP
000000
000000
010200
010200
020400
020400
1fff00
040400
040800
040800
081000
001000
006000
008000
030000
1c0000
000000
000000
ENDCHAR
STARTCHAR 2536
ENCODING 9526
SWIDTH 1000 0
DWIDTH 18 0
BBX 18 18 0 -2
BITMAP
000000
000000
020480
020440
040900
040880
3ffe00
081000
081000
081000
102000
004000
004000
018000
060000
380000
000000
000000
ENDCHAR
STARTCHAR 2537
ENCODING 9527
SWIDTH 1000 0
DWIDTH 18 0
BBX 18 18 0 -2
BITMAP
000000
000000
070000
00c000
000000
000100
000100
1c0200
030400
000400
000800
001000
006000
018000
060000
780000
000000
000000
ENDCHAR
STARTCHAR 2538
ENCODING 9528
SWIDTH 1000 0
DWIDTH 18 0
BBX 18 18 0 -2
BITMAP
000000
000000
000080
070240
018100
000000
000100
1c0200
030200
000400
000800
001000
006000
018000
060000
780000
000000
000000
ENDCHAR
STARTCHAR 2539
ENCODING 9529
SWIDTH 1000 0
DWIDTH 18 0
BBX 18 18 0 -2
BITMAP
000000
000000
000000
07fe00
000200
000400
000800
001000
002000
004000
008000
014000
062000
082000
301000
c00800
000000
000000
ENDCHAR
STARTCHAR c253a
ENCODING 9530
SWIDTH 1000 0
DWIDTH 18 0
BBX 18 18 0 -2
BITMAP
000000
000280
000140
07fe00
000200
000400
000800
001000
002000
004000
008000
014000
062000
082000
301000
c00800
000000
000000
ENDCHAR
STARTCHAR 253b
ENCODING 9531
SWIDTH 1000 0
DWIDTH 18 0
BBX 18 18 0 -2
BITMAP
000000
000000
010000
010000
020000
023f00
1fc200
040400
040800
041000
086000
080000
080000
080000
07f000
000000
000000
000000
ENDCHAR
STARTCHAR 253c
ENCODING 9532
SWIDTH 1000 0
DWIDTH 18 0
BBX 18 18 0 -2
BITMAP
000000
000080
010240
010100
020000
023f00
1fc200
040400
040800
041000
086000
080000
080000
080000
07f000
000000
000000
000000
ENDCHAR
STARTCHAR 253d
ENCODING 9533
SWIDTH 1000 0
DWIDTH 18 0
BBX 18 18 0 -2
BITMAP
000000
000000
000000
040080
040100
020100
020100
020200
000400
000400
000800
001000
002000
00c000
030000
1c0000
000000
000000
ENDCHAR
STARTCHAR 253e
ENCODING 9534
SWIDTH 1000 0
DWIDTH 18 0
BBX 18 18 0 -2
BITMAP
000000
000480
000240
040000
040100
020100
020100
020200
000400
000400
000800
001000
002000
00c000
030000
1c0000
000000
000000
ENDCHAR
STARTCHAR 253f
ENCODING 9535
SWIDTH 1000 0
DWIDTH 18 0
BBX 18 18 0 -2
BITMAP
000000
000000
000000
002000
007f00
008100
008100
030200
0cc400
003400
001800
001000
002000
00c000
030000
1c0000
000000
000000
ENDCHAR
STARTCHAR 2540
ENCODING 9536
SWIDTH 1000 0
DWIDTH 18 0
BBX 18 18 0 -2
BITMAP
000000
000080
000240
002100
007f00
008100
008100
030200
0cc400
003400
001800
001000
002000
00c000
030000
1c0000
000000
000000
ENDCHAR
STARTCHAR 2541
ENCODING 9537
SWIDTH 1000 0
DWIDTH 18 0
BBX 18 18 0 -2
BITMAP
000000
000000
000100
000e00
03f000
002000
002000
004000
1fff00
004000
008000
008000
010000
020000
040000
380000
000000
000000
ENDCHAR
STARTCHAR 2542
ENCODING 9538
SWIDTH 1000 0
DWIDTH 18 0
BBX 18 18 0 -2
BITMAP
000000
000000
000100
000e00
03f080
002240
002100
004000
1fff00
004000
008000
008000
010000
020000
040000
380000
000000
000000
ENDCHAR
STARTCHAR 2543
ENCODING 9539
SWIDTH 1000 0
DWIDTH 18 0
BBX 18 18 0 -2
BITMAP
000000
000000
000000
000000
000000
000000
010400
120800
110800
090800
101000
002000
002000
00c000
030000
1c0000
000000
000000
ENDCHAR
STARTCHAR 2544
ENCODING 9540
SWIDTH 1000 0
DWIDTH 18 0
BBX 18 18 0 -2
BITMAP
000000
000000
000000
004000
084100
084100
042100
044200
040200
000200
000400
000800
001000
006000
018000
0e0000
000000
000000
ENDCHAR
STARTCHAR 2545
ENCODING 9541
SWIDTH 1000 0
DWIDTH 18 0
BBX 18 18 0 -2
BITMAP
000000
000080
000240
004100
084000
084100
042100
044200
040200
000200
000400
000800
001000
006000
018000
0e0000
000000
000000
ENDCHAR
STARTCHAR 2546
ENCODING 9542
SWIDTH 1000 0
DWIDTH 18 0
BBX 18 18 0 -2
BITMAP
000000
000000
000000
03ff80
000000
000000
000000
1fff00
004000
004000
008000
008000
010000
020000
040000
380000
000000
000000
ENDCHAR
STARTCHAR 2547
ENCODING 9543
SWIDTH 1000 0
DWIDTH 18 0
BBX 18 18 0 -2
BITMAP
000000
000000
000000
07fe80
000040
000200
000100
3ffe00
008000
008000
010000
010000
020000
040000
080000
700000
000000
000000
ENDCHAR
STARTCHAR 2548
ENCODING 9544
SWIDTH 1000 0
DWIDTH 18 0
BBX 18 18 0 -2
BITMAP
000000
000000
008000
008000
010000
010000
010000
030000
02c000
023000
041000
040000
040000
080000
080000
080000
000000
000000
ENDCHAR
STARTCHAR 2549
ENCODING 9545
SWIDTH 1000 0
DWIDTH 18 0
BBX 18 18 0 -2
BITMAP
000000
000000
008100
008080
010800
010400
010000
030000
02c000
023000
041000
040000
040000
080000
080000
080000
000000
000000
ENDCHAR
STARTCHAR 254a
ENCODING 9546
SWIDTH 1000 0
DWIDTH 18 0
BBX 18 18 0 -2
BITMAP
000000
000000
000800
000800
001000
001000
0fff80
002000
002000
004000
004000
008000
010000
020000
0c0000
300000
000000
000000
ENDCHAR
STARTCHAR 254b
ENCODING 9547
SWIDTH 1000 0
DWIDTH 18 0
BBX 18 18 0 -2
BITMAP
000000
000000
000000
000000
03fe00
000000
000000
000000
000000
000000
000000
000000
000000
7ffc00
000000
000000
000000
000000
ENDCHAR
STARTCHAR 254c
ENCODING 9548
SWIDTH 1000 0
DWIDTH 18 0
BBX 18 18 0 -2
BITMAP
000000
000000
000000
03ff00
000200
000200
000400
000800
060800
011000
00a000
004000
01a000
061000
180800
600000
000000
000000
ENDCHAR
STARTCHAR 254d
ENCODING 9549
SWIDTH 1000 0
DWIDTH 18 0
BBX 18 18 0 -2
BITMAP
000000
000000
006000
001800
000000
07fe00
000400
000800
001000
006000
01b000
068c00
388200
010000
010000
010000
000000
000000
ENDCHAR
STARTCHAR 254e
ENCODING 9550
SWIDTH 1000 0
DWIDTH 18 0
BBX 18 18 0 -2
BITMAP
000000
000000
000000
000100
000200
000200
000400
000800
000800
001000
002000
004000
008000
020000
0c0000
300000
000000
000000
ENDCHAR
STARTCHAR 254f
ENCODING 9551
SWIDTH 1000 0
DWIDTH 18 0
BBX 18 18 0 -2
BITMAP
000000
000000
000000
000800
010800
010400
010400
020400
040400
040200
080200
100200
200400
400400
800400
000000
000000
000000
ENDCHAR
STARTCHAR 2550
ENCODING 9552
SWIDTH 1000 0
DWIDTH 18 0
BBX 18 18 0 -2
BITMAP
000000
000000
000080
000a40
010900
010400
010400
020400
040400
040200
080200
100200
200200
400400
800400
000000
000000
000000
ENDCHAR
STARTCHAR 2551
ENCODING 9553
SWIDTH 1000 0
DWIDTH 18 0
BBX 18 18 0 -2
BITMAP
000000
000080
000140
000940
010880
010400
010400
020400
040400
040400
080200
100200
200200
400400
800400
000000
000000
000000
ENDCHAR
STARTCHAR 2552
ENCODING 9554
SWIDTH 1000 0
DWIDTH 18 0
BBX 18 18 0 -2
BITMAP
000000
000000
040000
040000
080400
081800
08e000
1f0000
100000
100000
200000
200000
200000
200000
1ff000
000000
000000
000000
ENDCHAR
STARTCHAR 2553
ENCODING 9555
SWIDTH 1000 0
DWIDTH 18 0
BBX 18 18 0 -2
BITMAP
000000
000000
040000
040080
080440
080200
087800
1f8000
100000
100000
200000
200000
200000
200000
1ff000
000000
000000
000000
ENDCHAR
STARTCHAR 2554
ENCODING 9556
SWIDTH 1000 0
DWIDTH 18 0
BBX 18 18 0 -2
BITMAP
000000
000180
040240
040240
080180
081800
08e000
1f0000
100000
100000
200000
200000
200000
200000
1ff000
000000
000000
000000
ENDCHAR
STARTCHAR 2555
ENCODING 9557
SWIDTH 1000 0
DWIDTH 18 0
BBX 18 18 0 -2
BITMAP
000000
000000
000000
000000
1ffe00
000200
000200
000400
000800
000800
001000
002000
00c000
030000
0c0000
700000
000000
000000
ENDCHAR
STARTCHAR 2556
ENCODING 9558
SWIDTH 1000 0
DWIDTH 18 0
BBX 18 18 0 -2
BITMAP
000000
000080
000240
000100
1ffe00
000200
000200
000400
000800
000800
001000
002000
00c000
030000
0c0000
700000
000000
000000
ENDCHAR
STARTCHAR 2557
ENCODING 9559
SWIDTH 1000 0
DWIDTH 18 0
BBX 18 18 0 -2
BITMAP
000000
000080
000140
000140
1ffe80
000200
000200
000400
000800
000800
002000
002000
004000
030000
0c0000
700000
000000
000000
ENDCHAR
STARTCHAR 2558
ENCODING 9560
SWIDTH 1000 0
DWIDTH 18 0
BBX 18 18 0 -2
BITMAP
000000
000000
000000
000000
000000
018000
024000
0c4000
102000
201000
001000
000800
000400
000400
000200
000000
000000
000000
ENDCHAR
STARTCHAR 2559
ENCODING 9561
SWIDTH 1000 0
DWIDTH 18 0
BBX 18 18 0 -2
BITMAP
000000
000000
000000
000100
000080
018800
064400
084000
102000
201000
001000
000800
000400
000400
000200
000000
000000
000000
ENDCHAR
STARTCHAR 255a
ENCODING 9562
SWIDTH 1000 0
DWIDTH 18 0
BBX 18 18 0 -2
BITMAP
000000
000000
000000
000600
000900
018900
024600
0c4000
102000
201000
001000
000800
000400
000400
000200
000000
000000
000000
ENDCHAR
STARTCHAR 255b
ENCODING 9563
SWIDTH 1000 0
DWIDTH 18 0
BBX 18 18 0 -2
BITMAP
000000
000000
001000
001000
002000
0fff80
002000
004000
004000
024800
049000
088800
108800
210800
410400
010000
000000
000000
ENDCHAR
STARTCHAR 255c
ENCODING 9564
SWIDTH 1000 0
DWIDTH 18 0
BBX 18 18 0 -2
BITMAP
000000
000080
002440
002200
004000
1fff00
004000
008000
008000
049000
092000
111000
211000
421000
820800
020000
000000
000000
ENDCHAR
STARTCHAR 255d
ENCODING 9565
SWIDTH 1000 0
DWIDTH 18 0
BBX 18 18 0 -2
BITMAP
000000
000000
002080
002140
004140
1ffe80
004000
008000
008000
049000
092000
111000
211000
421000
820800
020000
000000
000000
ENDCHAR
STARTCHAR 255e
ENCODING 9566
SWIDTH 1000 0
DWIDTH 18 0
BBX 18 18 0 -2
BITMAP
000000
000000
000000
0fff80
000080
000100
000200
000400
000800
0c3000
06c000
010000
008000
008000
004000
000000
000000
000000
ENDCHAR
STARTCHAR 255f
ENCODING 9567
SWIDTH 1000 0
DWIDTH 18 0
BBX 18 18 0 -2
BITMAP
000000
000000
01f000
000c00
000200
000000
000000
078000
007000
000800
000000
000000
1f0000
01c000
003000
000800
000000
000000
ENDCHAR
STARTCHAR 2560
ENCODING 9568
SWIDTH 1000 0
DWIDTH 18 0
BBX 18 18 0 -2
BITMAP
000000
000000
001000
001000
002000
004000
004000
008000
011000
010800
020800
040800
081800
10e800
7f0400
000400
000000
000000
ENDCHAR
STARTCHAR 2561
ENCODING 9569
SWIDTH 1000 0
DWIDTH 18 0
BBX 18 18 0 -2
BITMAP
000000
000000
000200
000200
000400
000400
030800
019000
006000
006000
00a000
011000
020800
0c0000
300000
000000
000000
000000
ENDCHAR
STARTCHAR 2562
ENCODING 9570
SWIDTH 1000 0
DWIDTH 18 0
BBX 18 18 0 -2
BITMAP
000000
000000
000000
0fff00
010000
010000
010000
020000
7ffe00
020000
040000
040000
040000
080000
07f000
000000
000000
000000
ENDCHAR
STARTCHAR 2563
ENCODING 9571
SWIDTH 1000 0
DWIDTH 18 0
BBX 18 18 0 -2
BITMAP
000000
000000
000000
000000
000000
010000
010000
020000
02f800
1f1000
042000
044000
020000
040000
040000
040000
000000
000000
ENDCHAR
STARTCHAR 2564
ENCODING 9572
SWIDTH 1000 0
DWIDTH 18 0
BBX 18 18 0 -2
BITMAP
000000
000000
008000
008000
010000
010f80
01f080
3f0300
010400
010800
012000
010000
010000
020000
020000
020000
000000
000000
ENDCHAR
STARTCHAR 2565
ENCODING 9573
SWIDTH 1000 0
DWIDTH 18 0
BBX 18 18 0 -2
BITMAP
000000
000000
000000
000000
000000
000000
000000
0fc000
004000
004000
008000
008000
008000
010000
7fe000
000000
000000
000000
ENDCHAR
STARTCHAR 2566
ENCODING 9574
SWIDTH 1000 0
DWIDTH 18 0
BBX 18 18 0 -2
BITMAP
000000
000000
000000
03fe00
000400
000400
000400
000800
000800
000800
001000
001000
001000
002000
7ffc00
000000
000000
000000
ENDCHAR
STARTCHAR 2567
ENCODING 9575
SWIDTH 1000 0
DWIDTH 18 0
BBX 18 18 0 -2
BITMAP
000000
000000
000000
000000
000000
000000
07f800
001000
001000
001000
0fe000
002000
002000
004000
3fc000
000000
000000
000000
ENDCHAR
STARTCHAR 2568
ENCODING 9576
SWIDTH 1000 0
DWIDTH 18 0
BBX 18 18 0 -2
BITMAP
000000
000000
000000
07ff00
000200
000200
000200
000400
0ffc00
000400
000800
000800
000800
001000
7ff000
000000
000000
000000
ENDCHAR
STARTCHAR 2569
ENCODING 9577
SWIDTH 1000 0
DWIDTH 18 0
BBX 18 18 0 -2
BITMAP
000000
000000
000000
03ff80
000000
000000
000000
1fff00
000100
000100
000200
000400
001800
006000
018000
0e0000
000000
000000
ENDCHAR
STARTCHAR 256a
ENCODING 9578
SWIDTH 1000 0
DWIDTH 18 0
BBX 18 18 0 -2
BITMAP
000000
000000
000100
010100
020200
020200
020200
040400
040400
040400
080800
001000
001000
006000
018000
0e0000
000000
000000
ENDCHAR
STARTCHAR 256b
ENCODING 9579
SWIDTH 1000 0
DWIDTH 18 0
BBX 18 18 0 -2
BITMAP
000000
000000
000000
000400
010800
010800
010800
021080
021080
021080
042100
082200
102400
204800
407000
800000
000000
000000
ENDCHAR
STARTCHAR 256c
ENCODING 9580
SWIDTH 1000 0
DWIDTH 18 0
BBX 18 18 0 -2
BITMAP
000000
000000
010000
010000
020000
020000
020000
040100
040100
040200
080400
080800
081000
106000
118000
1e0000
000000
000000
ENDCHAR
STARTCHAR 256d
ENCODING 9581
SWIDTH 1000 0
DWIDTH 18 0
BBX 18 18 0 -2
BITMAP
000000
000000
000000
000000
07ff00
040100
040100
080200
080200
080200
100400
100400
100400
200800
3ff800
000000
000000
000000
ENDCHAR
STARTCHAR 256e
ENCODING 9582
SWIDTH 1000 0
DWIDTH 18 0
BBX 18 18 0 -2
BITMAP
000000
000000
000000
000000
000000
000000
07fc00
040400
080800
080800
001000
001000
002000
00c000
030000
0c0000
000000
000000
ENDCHAR
STARTCHAR 256f
ENCODING 9583
SWIDTH 1000 0
DWIDTH 18 0
BBX 18 18 0 -2
BITMAP
000000
000000
000000
03ff80
020080
040100
040100
080200
080200
000400
000800
000800
001000
006000
018000
0e0000
000000
000000
ENDCHAR
STARTCHAR 2570
ENCODING 9584
SWIDTH 1000 0
DWIDTH 18 0
BBX 18 18 0 -2
BITMAP
000000
000000
000400
000400
000800
0fff80
010800
021000
021000
021000
042000
3ffe00
002000
004000
004000
004000
000000
000000
ENDCHAR
STARTCHAR 2571
ENCODING 9585
SWIDTH 1000 0
DWIDTH 18 0
BBX 18 18 0 -2
BITMAP
000000
000000
000000
000000
07ff00
000100
000200
004400
005800
006000
008000
008000
008000
010000
7ffc00
000000
000000
000000
ENDCHAR
STARTCHAR 2572
ENCODING 9586
SWIDTH 1000 0
DWIDTH 18 0
BBX 18 18 0 -2
BITMAP
000000
000000
000000
03ff80
000080
000100
000100
07fe00
000200
000200
000400
000800
001000
006000
038000
1c0000
000000
000000
ENDCHAR
STARTCHAR 2573
ENCODING 9587
SWIDTH 1000 0
DWIDTH 18 0
BBX 18 18 0 -2
BITMAP
000000
000000
000000
030000
018000
004000
000080
000100
000100
000200
000400
000800
003000
00c000
030000
1c0000
000000
000000
ENDCHAR
STARTCHAR 2574
ENCODING 9588
SWIDTH 1000 0
DWIDTH 18 0
BBX 18 18 0 -2
BITMAP
000000
000080
004440
004200
1ffc00
100400
100400
200800
200800
200800
001000
002000
004000
018000
060000
180000
000000
000000
ENDCHAR
STARTCHAR 2575
ENCODING 9589
SWIDTH 1000 0
DWIDTH 18 0
BBX 18 18 0 -2
BITMAP
000000
000000
000000
000000
000000
008000
008000
1ff000
011000
011000
021000
042000
082000
104000
208000
430000
000000
000000
ENDCHAR
STARTCHAR 2576
ENCODING 9590
SWIDTH 1000 0
DWIDTH 18 0
BBX 18 18 0 -2
BITMAP
000000
000000
000000
000000
000000
020000
020000
07f800
084000
104000
208000
008000
010000
020000
040000
180000
000000
000000
ENDCHAR
STARTCHAR 2621
ENCODING 9761
SWIDTH 1000 0
DWIDTH 18 0
BBX 18 18 0 -2
BITMAP
000000
000000
001000
001000
005000
005000
008800
011000
020800
020800
0ff800
080800
100400
200800
701c00
000000
000000
000000
ENDCHAR
STARTCHAR 2622
ENCODING 9762
SWIDTH 1000 0
DWIDTH 18 0
BBX 18 18 0 -2
BITMAP
000000
000000
03fc00
010300
020100
020100
020100
040c00
07f000
040c00
080400
080400
080400
103000
3fc000
000000
000000
000000
ENDCHAR
STARTCHAR 2623
ENCODING 9763
SWIDTH 1000 0
DWIDTH 18 0
BBX 18 18 0 -2
BITMAP
000000
000000
03ff80
010080
020100
020000
020000
040000
040000
040000
080000
080000
080000
100000
380000
000000
000000
000000
ENDCHAR
STARTCHAR 2624
ENCODING 9764
SWIDTH 1000 0
DWIDTH 18 0
BBX 18 18 0 -2
BITMAP
000000
000000
001000
001000
005000
005000
008800
011000
020800
020800
080800
080800
100400
200800
7ffc00
000000
000000
000000
ENDCHAR
STARTCHAR 2625
ENCODING 9765
SWIDTH 1000 0
DWIDTH 18 0
BBX 18 18 0 -2
BITMAP
000000
000000
03ff00
010100
020200
020000
020000
041000
07f000
041000
080000
080000
080800
101000
3ff000
000000
000000
000000
ENDCHAR
STARTCHAR 2626
ENCODING 9766
SWIDTH 1000 0
DWIDTH 18 0
BBX 18 18 0 -2
BITMAP
000000
000000
03ff80
020100
040400
000800
000800
002000
004000
008000
020000
020000
040400
100800
3ff800
000000
000000
000000
ENDCHAR
STARTCHAR 2627
ENCODING 9767
SWIDTH 1000 0
DWIDTH 18 0
BBX 18 18 0 -2
BITMAP
000000
000000
038380
010100
020200
020200
020200
040400
07fc00
040400
080800
080800
080800
101000
383800
000000
000000
000000
ENDCHAR
STARTCHAR 2628
ENCODING 9768
SWIDTH 1000 0
DWIDTH 18 0
BBX 18 18 0 -2
BITMAP
000000
000000
007c00
018300
040100
040100
090480
120900
13f900
120900
241200
100400
100400
183000
07c000
000000
000000
000000
ENDCHAR
STARTCHAR 2629
ENCODING 9769
SWIDTH 1000 0
DWIDTH 18 0
BBX 18 18 0 -2
BITMAP
000000
000000
003800
001000
002000
002000
002000
004000
004000
004000
008000
008000
008000
010000
038000
000000
000000
000000
ENDCHAR
STARTCHAR 262a
ENCODING 9770
SWIDTH 1000 0
DWIDTH 18 0
BBX 18 18 0 -2
BITMAP
000000
000000
038380
010200
020800
021000
022000
048000
054000
062000
084000
082000
082000
102000
383800
000000
000000
000000
ENDCHAR
STARTCHAR 262b
ENCODING 9771
SWIDTH 1000 0
DWIDTH 18 0
BBX 18 18 0 -2
BITMAP
000000
000000
001000
001000
005000
005000
008800
011000
020800
020800
080800
080800
100400
200800
701c00
000000
000000
000000
ENDCHAR
STARTCHAR 262c
ENCODING 9772
SWIDTH 1000 0
DWIDTH 18 0
BBX 18 18 0 -2
BITMAP
000000
000000
0e00e0
050140
0a0280
090480
090480
120900
111100
111100
222200
214200
214200
410400
e10e00
000000
000000
000000
ENDCHAR
STARTCHAR 262d
ENCODING 9773
SWIDTH 1000 0
DWIDTH 18 0
BBX 18 18 0 -2
BITMAP
000000
000000
0701c0
028080
048100
048100
044100
084200
084200
082200
102400
102400
101400
201800
701800
000000
000000
000000
ENDCHAR
STARTCHAR 262e
ENCODING 9774
SWIDTH 1000 0
DWIDTH 18 0
BBX 18 18 0 -2
BITMAP
000000
000000
03ff80
020080
040100
000000
000000
080200
0ffe00
080200
000000
000000
100400
200800
3ff800
000000
000000
000000
ENDCHAR
STARTCHAR 262f
ENCODING 9775
SWIDTH 1000 0
DWIDTH 18 0
BBX 18 18 0 -2
BITMAP
000000
000000
007c00
018300
040100
040100
080080
100100
100100
100100
200200
200200
100400
200800
183000
07c000
000000
000000
ENDCHAR
STARTCHAR 2630
ENCODING 9776
SWIDTH 1000 0
DWIDTH 18 0
BBX 18 18 0 -2
BITMAP
000000
000000
03ff80
010100
020200
020200
020200
040400
040400
040400
080800
080800
080800
101000
383800
000000
000000
000000
ENDCHAR
STARTCHAR 2631
ENCODING 9777
SWIDTH 1000 0
DWIDTH 18 0
BBX 18 18 0 -2
BITMAP
000000
000000
03fc00
010300
020100
020100
020100
040c00
07f000
040000
080000
080000
080000
100000
380000
000000
000000
000000
ENDCHAR
STARTCHAR 2632
ENCODING 9778
SWIDTH 1000 0
DWIDTH 18 0
BBX 18 18 0 -2
BITMAP
000000
000000
03ff80
010080
010100
008000
004000
004000
002000
004000
010000
020000
040400
100800
3ff800
000000
000000
000000
ENDCHAR
STARTCHAR 2633
ENCODING 9779
SWIDTH 1000 0
DWIDTH 18 0
BBX 18 18 0 -2
BITMAP
000000
000000
07ffc0
041040
082080
002000
002000
004000
004000
004000
008000
008000
008000
010000
038000
000000
000000
000000
ENDCHAR
STARTCHAR 2634
ENCODING 9780
SWIDTH 1000 0
DWIDTH 18 0
BBX 18 18 0 -2
BITMAP
000000
000000
03c700
002880
002080
002000
002000
004000
004000
004000
008000
008000
008000
010000
038000
000000
000000
000000
ENDCHAR
STARTCHAR 2635
ENCODING 9781
SWIDTH 1000 0
DWIDTH 18 0
BBX 18 18 0 -2
BITMAP
000000
000000
003800
001000
03fe00
042100
082080
104100
104100
104100
208200
108400
0ff800
010000
038000
000000
000000
000000
ENDCHAR
STARTCHAR 2636
ENCODING 9782
SWIDTH 1000 0
DWIDTH 18 0
BBX 18 18 0 -2
BITMAP
000000
000000
0701c0
010100
010400
008800
008800
00a000
004000
00a000
022000
022000
041000
101000
701c00
000000
000000
000000
ENDCHAR
STARTCHAR 2637
ENCODING 9783
SWIDTH 1000 0
DWIDTH 18 0
BBX 18 18 0 -2
BITMAP
000000
000000
0638c0
091120
022200
022200
022200
044400
044400
044400
049000
03e000
008000
010000
038000
000000
000000
000000
ENDCHAR
STARTCHAR 2638
ENCODING 9784
SWIDTH 1000 0
DWIDTH 18 0
BBX 18 18 0 -2
BITMAP
000000
000000
007c00
018300
040100
040100
080080
100100
100100
100100
100400
100400
0c1800
444400
7c7c00
000000
000000
000000
ENDCHAR
STARTCHAR 2641
ENCODING 9793
SWIDTH 1000 0
DWIDTH 18 0
BBX 18 18 0 -2
BITMAP
000000
000000
000000
000000
000000
000000
003000
019200
020a00
040c00
081000
083000
085000
112000
0e1800
000000
000000
000000
ENDCHAR
STARTCHAR 2642
ENCODING 9794
SWIDTH 1000 0
DWIDTH 18 0
BBX 18 18 0 -2
BITMAP
000000
000000
001c00
002200
008400
008400
008400
010800
02f000
021000
041000
041000
041000
0c4000
138000
100000
100000
000000
ENDCHAR
STARTCHAR 2643
ENCODING 9795
SWIDTH 1000 0
DWIDTH 18 0
BBX 18 18 0 -2
BITMAP
000000
000000
000000
000000
000000
000000
01cc00
046000
004000
004000
010000
010000
010000
020000
040000
040000
040000
000000
ENDCHAR
STARTCHAR 2644
ENCODING 9796
SWIDTH 1000 0
DWIDTH 18 0
BBX 18 18 0 -2
BITMAP
000000
000000
001c00
002200
002000
001000
007800
011000
010800
020800
041000
041000
042000
084000
078000
000000
000000
000000
ENDCHAR
STARTCHAR 2645
ENCODING 9797
SWIDTH 1000 0
DWIDTH 18 0
BBX 18 18 0 -2
BITMAP
000000
000000
000000
000000
000000
000000
007800
010800
010000
00e000
020000
040000
041000
084000
078000
000000
000000
000000
ENDCHAR
STARTCHAR 2646
ENCODING 9798
SWIDTH 1000 0
DWIDTH 18 0
BBX 18 18 0 -2
BITMAP
000000
000000
002000
004e00
00a000
004000
008000
010000
020000
020000
040000
040000
040000
07c000
002000
002000
01c000
000000
ENDCHAR
STARTCHAR 2647
ENCODING 9799
SWIDTH 1000 0
DWIDTH 18 0
BBX 18 18 0 -2
BITMAP
000000
000000
000000
000000
000000
000000
039c00
00c400
008400
008400
010800
021000
021000
082000
084000
004000
004000
000000
ENDCHAR
STARTCHAR 2648
ENCODING 9800
SWIDTH 1000 0
DWIDTH 18 0
BBX 18 18 0 -2
BITMAP
000000
000000
001c00
002200
008400
008400
010400
020800
03f000
041000
082000
084000
084000
110000
0e0000
000000
000000
000000
ENDCHAR
STARTCHAR 2649
ENCODING 9801
SWIDTH 1000 0
DWIDTH 18 0
BBX 18 18 0 -2
BITMAP
000000
000000
000000
000000
000000
000000
001000
002000
004000
004000
010000
010000
020000
048000
030000
000000
000000
000000
ENDCHAR
STARTCHAR 264a
ENCODING 9802
SWIDTH 1000 0
DWIDTH 18 0
BBX 18 18 0 -2
BITMAP
000000
000000
000000
000000
000000
000000
008600
013000
014000
018000
028000
048000
048800
112000
10c000
000000
000000
000000
ENDCHAR
STARTCHAR 264b
ENCODING 9803
SWIDTH 1000 0
DWIDTH 18 0
BBX 18 18 0 -2
BITMAP
000000
000000
003800
000400
000800
000800
001000
002000
004000
006000
014000
014000
024000
088000
107000
000000
000000
000000
ENDCHAR
STARTCHAR 264c
ENCODING 9804
SWIDTH 1000 0
DWIDTH 18 0
BBX 18 18 0 -2
BITMAP
000000
000000
000000
000000
000000
000000
004200
008400
010400
010800
021000
042000
042000
08c800
173000
100000
200000
000000
ENDCHAR
STARTCHAR 264d
ENCODING 9805
SWIDTH 1000 0
DWIDTH 18 0
BBX 18 18 0 -2
BITMAP
000000
000000
000000
000000
000000
000000
020200
020400
020400
020400
041000
041000
042000
098000
1e0000
000000
000000
000000
ENDCHAR
STARTCHAR 264e
ENCODING 9806
SWIDTH 1000 0
DWIDTH 18 0
BBX 18 18 0 -2
BITMAP
000000
000000
001000
002000
007c00
008000
008000
008000
00f000
010000
040000
040000
040000
070000
008000
008000
070000
000000
ENDCHAR
STARTCHAR 264f
ENCODING 9807
SWIDTH 1000 0
DWIDTH 18 0
BBX 18 18 0 -2
BITMAP
000000
000000
000000
000000
000000
000000
007800
010800
010800
020800
041000
041000
042000
084000
078000
000000
000000
000000
ENDCHAR
STARTCHAR 2650
ENCODING 9808
SWIDTH 1000 0
DWIDTH 18 0
BBX 18 18 0 -2
BITMAP
000000
000000
000000
000000
000000
000000
01fe00
049000
009000
009000
024000
024000
044000
088000
107000
000000
000000
000000
ENDCHAR
STARTCHAR 2651
ENCODING 9809
SWIDTH 1000 0
DWIDTH 18 0
BBX 18 18 0 -2
BITMAP
000000
000000
000000
000000
000000
000000
007800
010800
010800
020800
041000
041000
042000
084000
178000
100000
100000
000000
ENDCHAR
STARTCHAR 2652
ENCODING 9810
SWIDTH 1000 0
DWIDTH 18 0
BBX 18 18 0 -2
BITMAP
000000
000000
000000
000000
000000
000000
007f00
010800
010800
020800
041000
041000
042000
084000
078000
000000
000000
000000
ENDCHAR
STARTCHAR 2653
ENCODING 9811
SWIDTH 1000 0
DWIDTH 18 0
BBX 18 18 0 -2
BITMAP
000000
000000
000000
000000
000000
000000
01fe00
044000
008000
008000
010000
020000
020000
048000
030000
000000
000000
000000
ENDCHAR
STARTCHAR 2654
ENCODING 9812
SWIDTH 1000 0
DWIDTH 18 0
BBX 18 18 0 -2
BITMAP
000000
000000
000000
000000
000000
000000
010400
010800
010800
010800
041000
042000
042000
088000
070000
000000
000000
000000
ENDCHAR
STARTCHAR 2655
ENCODING 9813
SWIDTH 1000 0
DWIDTH 18 0
BBX 18 18 0 -2
BITMAP
000000
000000
000400
000400
000800
000800
007c00
012400
022200
042200
088400
088400
088800
092000
07c000
020000
020000
000000
ENDCHAR
STARTCHAR 2656
ENCODING 9814
SWIDTH 1000 0
DWIDTH 18 0
BBX 18 18 0 -2
BITMAP
000000
000000
000000
000000
000000
00c000
012400
004800
005000
005000
00c000
008000
008000
030000
050000
051000
08e000
000000
ENDCHAR
STARTCHAR 2657
ENCODING 9815
SWIDTH 1000 0
DWIDTH 18 0
BBX 18 18 0 -2
BITMAP
000000
000000
000800
000800
001000
001000
032400
0c4600
044400
084400
110800
111000
111000
12c000
0f0000
040000
040000
000000
ENDCHAR
STARTCHAR 2658
ENCODING 9816
SWIDTH 1000 0
DWIDTH 18 0
BBX 18 18 0 -2
BITMAP
000000
000000
000000
000000
000000
000000
008200
022200
042200
044200
108400
110800
110800
222000
1dc000
000000
000000
000000
ENDCHAR
STARTCHAR 2721
ENCODING 10017
SWIDTH 1000 0
DWIDTH 18 0
BBX 18 18 0 -2
BITMAP
000000
000000
001000
003000
005000
005000
008800
010800
020800
020800
0ff800
080800
100800
200800
701c00
000000
000000
000000
ENDCHAR
STARTCHAR 2722
ENCODING 10018
SWIDTH 1000 0
DWIDTH 18 0
BBX 18 18 0 -2
BITMAP
000000
000000
03fe00
010100
010000
020000
020000
040000
07f000
040c00
080400
080400
100400
103800
3fc000
000000
000000
000000
ENDCHAR
STARTCHAR 2723
ENCODING 10019
SWIDTH 1000 0
DWIDTH 18 0
BBX 18 18 0 -2
BITMAP
000000
000000
03fc00
010300
010100
020100
020100
040e00
07f000
040c00
080400
080400
100400
103800
3fc000
000000
000000
000000
ENDCHAR
STARTCHAR 2724
ENCODING 10020
SWIDTH 1000 0
DWIDTH 18 0
BBX 18 18 0 -2
BITMAP
000000
000000
03ff00
010080
020000
020000
020000
040000
040000
040000
080000
080000
080000
100000
380000
000000
000000
000000
ENDCHAR
STARTCHAR 2725
ENCODING 10021
SWIDTH 1000 0
DWIDTH 18 0
BBX 18 18 0 -2
BITMAP
000000
000000
00ff80
004100
004100
008200
008200
010400
010400
020400
040800
040800
081000
101000
7ff800
400800
000000
000000
ENDCHAR
STARTCHAR 2726
ENCODING 10022
SWIDTH 1000 0
DWIDTH 18 0
BBX 18 18 0 -2
BITMAP
000000
000000
03ff00
010100
010200
020000
020000
041000
07f000
041000
080000
080000
100800
101000
3ff000
000000
000000
000000
ENDCHAR
STARTCHAR 2727
ENCODING 10023
SWIDTH 1000 0
DWIDTH 18 0
BBX 18 18 0 -2
BITMAP
000000
00cc00
000000
03ff00
010200
020200
020000
041000
07f000
041000
080000
080000
100800
101000
3ff000
000000
000000
000000
ENDCHAR
STARTCHAR 2728
ENCODING 10024
SWIDTH 1000 0
DWIDTH 18 0
BBX 18 18 0 -2
BITMAP
000000
000000
0739c0
021100
022200
022200
022400
024800
01f000
024800
048800
088800
108800
210800
739c00
000000
000000
000000
ENDCHAR
STARTCHAR 2729
ENCODING 10025
SWIDTH 1000 0
DWIDTH 18 0
BBX 18 18 0 -2
BITMAP
000000
000000
01fc00
020300
000100
000100
000200
000c00
01f000
000c00
000400
000400
000400
203800
1fc000
000000
000000
000000
ENDCHAR
STARTCHAR 272a
ENCODING 10026
SWIDTH 1000 0
DWIDTH 18 0
BBX 18 18 0 -2
BITMAP
000000
000000
0701c0
020180
020280
040500
041900
082200
084200
098200
120400
140400
280800
300800
701c00
000000
000000
000000
ENDCHAR
STARTCHAR 272b
ENCODING 10027
SWIDTH 1000 0
DWIDTH 18 0
BBX 18 18 0 -2
BITMAP
000000
004400
0739c0
020080
040300
040500
040900
082200
084200
088200
120400
140400
180400
200800
701c00
000000
000000
000000
ENDCHAR
STARTCHAR 272c
ENCODING 10028
SWIDTH 1000 0
DWIDTH 18 0
BBX 18 18 0 -2
BITMAP
000000
000000
038300
010480
021000
021000
022000
044000
078000
044000
084000
084000
082000
102000
381800
000000
000000
000000
ENDCHAR
STARTCHAR 272d
ENCODING 10029
SWIDTH 1000 0
DWIDTH 18 0
BBX 18 18 0 -2
BITMAP
000000
000000
00ff80
002100
004200
004200
004200
010400
010400
010400
020800
040800
040800
481000
303800
000000
000000
000000
ENDCHAR
STARTCHAR 272e
ENCODING 10030
SWIDTH 1000 0
DWIDTH 18 0
BBX 18 18 0 -2
BITMAP
000000
000000
0e00e0
050140
0a0280
090480
090480
120900
111100
111100
222200
214200
214200
410400
e10e00
000000
000000
000000
ENDCHAR
STARTCHAR 272f
ENCODING 10031
SWIDTH 1000 0
DWIDTH 18 0
BBX 18 18 0 -2
BITMAP
000000
000000
038380
010100
020200
020200
020200
040400
07fc00
040400
080800
080800
080800
101000
383800
000000
000000
000000
ENDCHAR
STARTCHAR 2730
ENCODING 10032
SWIDTH 1000 0
DWIDTH 18 0
BBX 18 18 0 -2
BITMAP
000000
000000
007c00
018300
040100
040100
080080
100100
100100
100100
200200
100400
100400
183000
07c000
000000
000000
000000
ENDCHAR
STARTCHAR 2731
ENCODING 10033
SWIDTH 1000 0
DWIDTH 18 0
BBX 18 18 0 -2
BITMAP
000000
000000
03ff80
010100
020200
020200
020200
040400
040400
040400
080800
080800
080800
101000
383800
000000
000000
000000
ENDCHAR
STARTCHAR 2732
ENCODING 10034
SWIDTH 1000 0
DWIDTH 18 0
BBX 18 18 0 -2
BITMAP
000000
000000
03fc00
010300
020100
020100
020100
040c00
07f000
040000
080000
080000
080000
100000
380000
000000
000000
000000
ENDCHAR
STARTCHAR 2733
ENCODING 10035
SWIDTH 1000 0
DWIDTH 18 0
BBX 18 18 0 -2
BITMAP
000000
000000
003e00
00c100
020100
020100
040000
080000
080000
080000
100000
080400
080400
0c1000
03e000
000000
000000
000000
ENDCHAR
STARTCHAR 2734
ENCODING 10036
SWIDTH 1000 0
DWIDTH 18 0
BBX 18 18 0 -2
BITMAP
000000
000000
07ffc0
041040
082080
002000
002000
004000
004000
004000
008000
008000
008000
010000
038000
000000
000000
000000
ENDCHAR
STARTCHAR 2735
ENCODING 10037
SWIDTH 1000 0
DWIDTH 18 0
BBX 18 18 0 -2
BITMAP
000000
000000
0701c0
020080
040100
020200
020200
020800
020800
011000
022000
014000
088000
120000
0c0000
000000
000000
000000
ENDCHAR
STARTCHAR 2736
ENCODING 10038
SWIDTH 1000 0
DWIDTH 18 0
BBX 18 18 0 -2
BITMAP
000000
000000
003800
001000
03fe00
042100
082080
104100
104100
104100
208200
108400
0ff800
010000
038000
000000
000000
000000
ENDCHAR
STARTCHAR 2737
ENCODING 10039
SWIDTH 1000 0
DWIDTH 18 0
BBX 18 18 0 -2
BITMAP
000000
000000
0701c0
010100
010400
008800
008800
00a000
004000
00a000
022000
022000
041000
101000
701c00
000000
000000
000000
ENDCHAR
STARTCHAR 2738
ENCODING 10040
SWIDTH 1000 0
DWIDTH 18 0
BBX 18 18 0 -2
BITMAP
000000
000000
038380
010100
020200
020200
020200
040400
040400
040400
080800
080800
080800
101000
3ff800
000400
000000
000000
ENDCHAR
STARTCHAR 2739
ENCODING 10041
SWIDTH 1000 0
DWIDTH 18 0
BBX 18 18 0 -2
BITMAP
000000
000000
070380
020100
040200
040200
040200
080400
080400
060c00
03e800
000800
000800
001000
003800
000000
000000
000000
ENDCHAR
STARTCHAR 273a
ENCODING 10042
SWIDTH 1000 0
DWIDTH 18 0
BBX 18 18 0 -2
BITMAP
000000
000000
0739c0
021080
042100
042100
042100
084200
084200
084200
108400
108400
108400
210800
7ffc00
000000
000000
000000
ENDCHAR
STARTCHAR 273b
ENCODING 10043
SWIDTH 1000 0
DWIDTH 18 0
BBX 18 18 0 -2
BITMAP
000000
000000
0739c0
021080
042100
042100
042100
084200
084200
084200
108400
108400
108400
210800
7ffc00
000600
000000
000000
ENDCHAR
STARTCHAR 273c
ENCODING 10044
SWIDTH 1000 0
DWIDTH 18 0
BBX 18 18 0 -2
BITMAP
000000
000000
03f000
022000
044000
004000
004000
00f800
008600
008100
010200
010200
010200
021800
07e000
000000
000000
000000
ENDCHAR
STARTCHAR 273d
ENCODING 10045
SWIDTH 1000 0
DWIDTH 18 0
BBX 18 18 0 -2
BITMAP
000000
000000
0701c0
020080
040100
040100
040100
0f8200
086200
081200
102400
102400
102400
218800
7e1c00
000000
000000
000000
ENDCHAR
STARTCHAR 273e
ENCODING 10046
SWIDTH 1000 0
DWIDTH 18 0
BBX 18 18 0 -2
BITMAP
000000
000000
038000
010000
020000
020000
020000
07f000
040c00
040200
080400
080400
080400
103000
3fc000
000000
000000
000000
ENDCHAR
STARTCHAR 273f
ENCODING 10047
SWIDTH 1000 0
DWIDTH 18 0
BBX 18 18 0 -2
BITMAP
000000
000000
00f800
010600
040200
000200
000100
00f200
030e00
000200
000400
000800
100800
106000
0f8000
000000
000000
000000
ENDCHAR
STARTCHAR 2740
ENCODING 10048
SWIDTH 1000 0
DWIDTH 18 0
BBX 18 18 0 -2
BITMAP
000000
000000
071e00
022100
044200
048100
048100
090200
0f0200
090200
120400
120400
110800
221000
71e000
000000
000000
000000
ENDCHAR
STARTCHAR 2741
ENCODING 10049
SWIDTH 1000 0
DWIDTH 18 0
BBX 18 18 0 -2
BITMAP
000000
000000
007f80
018100
040200
040200
040200
060400
01fc00
008400
010800
020800
020800
081000
303800
000000
000000
000000
ENDCHAR
STARTCHAR 2751
ENCODING 10065
SWIDTH 1000 0
DWIDTH 18 0
BBX 18 18 0 -2
BITMAP
000000
000000
000000
000000
000000
000000
01f000
021000
040800
01f800
061000
081000
081000
106000
0fb000
000000
000000
000000
ENDCHAR
STARTCHAR 2752
ENCODING 10066
SWIDTH 1000 0
DWIDTH 18 0
BBX 18 18 0 -2
BITMAP
000000
000000
000100
003e00
008000
010000
017800
030800
020400
020400
040800
040800
040800
042000
03c000
000000
000000
000000
ENDCHAR
STARTCHAR 2753
ENCODING 10067
SWIDTH 1000 0
DWIDTH 18 0
BBX 18 18 0 -2
BITMAP
000000
000000
000000
000000
000000
000000
03f800
020800
020400
020400
07f000
040800
040800
082000
1fc000
000000
000000
000000
ENDCHAR
STARTCHAR 2754
ENCODING 10068
SWIDTH 1000 0
DWIDTH 18 0
BBX 18 18 0 -2
BITMAP
000000
000000
000000
000000
000000
000000
03fe00
020400
020400
020000
040000
040000
040000
080000
1c0000
000000
000000
000000
ENDCHAR
STARTCHAR 2755
ENCODING 10069
SWIDTH 1000 0
DWIDTH 18 0
BBX 18 18 0 -2
BITMAP
000000
000000
000000
000000
000000
000000
03fe00
010800
010800
020800
041000
041000
081000
102000
1fe000
201000
000000
000000
ENDCHAR
STARTCHAR 2756
ENCODING 10070
SWIDTH 1000 0
DWIDTH 18 0
BBX 18 18 0 -2
BITMAP
000000
000000
000000
000000
000000
000000
00f800
020800
040400
040400
0ff000
080000
080000
082000
07c000
000000
000000
000000
ENDCHAR
STARTCHAR 2757
ENCODING 10071
SWIDTH 1000 0
DWIDTH 18 0
BBX 18 18 0 -2
BITMAP
000000
000000
000000
000000
008800
000000
00f800
020800
040400
040400
0ff800
080000
080000
082000
07c000
000000
000000
000000
ENDCHAR
STARTCHAR 2758
ENCODING 10072
SWIDTH 1000 0
DWIDTH 18 0
BBX 18 18 0 -2
BITMAP
000000
000000
000000
000000
000000
000000
067300
124900
024800
015000
01c000
02a000
049000
111000
739c00
000000
000000
000000
ENDCHAR
STARTCHAR 2759
ENCODING 10073
SWIDTH 1000 0
DWIDTH 18 0
BBX 18 18 0 -2
BITMAP
000000
000000
000000
000000
000000
000000
01f800
040800
000400
000800
03e000
001000
000800
102000
0fc000
000000
000000
000000
ENDCHAR
STARTCHAR 275a
ENCODING 10074
SWIDTH 1000 0
DWIDTH 18 0
BBX 18 18 0 -2
BITMAP
000000
000000
000000
000000
000000
000000
038e00
020800
021800
022800
049000
051000
061000
082000
1c7000
000000
000000
000000
ENDCHAR
STARTCHAR 275b
ENCODING 10075
SWIDTH 1000 0
DWIDTH 18 0
BBX 18 18 0 -2
BITMAP
000000
000000
000000
004400
007000
000000
038e00
020800
021800
022800
049000
051000
061000
082000
1c7000
000000
000000
000000
ENDCHAR
STARTCHAR 275c
ENCODING 10076
SWIDTH 1000 0
DWIDTH 18 0
BBX 18 18 0 -2
BITMAP
000000
000000
000000
000000
000000
000000
038c00
022400
022000
024000
070000
048000
044000
084000
1c3000
000000
000000
000000
ENDCHAR
STARTCHAR 275d
ENCODING 10077
SWIDTH 1000 0
DWIDTH 18 0
BBX 18 18 0 -2
BITMAP
000000
000000
000000
000000
000000
000000
01fe00
010800
010800
010800
021000
021000
041000
482000
307000
000000
000000
000000
ENDCHAR
STARTCHAR 275e
ENCODING 10078
SWIDTH 1000 0
DWIDTH 18 0
BBX 18 18 0 -2
BITMAP
000000
000000
000000
000000
000000
000000
070700
051400
051400
051400
094800
094800
094800
111000
393800
000000
000000
000000
ENDCHAR
STARTCHAR 275f
ENCODING 10079
SWIDTH 1000 0
DWIDTH 18 0
BBX 18 18 0 -2
BITMAP
000000
000000
000000
000000
000000
000000
038e00
020800
020800
020800
07f000
041000
041000
082000
1c7000
000000
000000
000000
ENDCHAR
STARTCHAR 2760
ENCODING 10080
SWIDTH 1000 0
DWIDTH 18 0
BBX 18 18 0 -2
BITMAP
000000
000000
000000
000000
000000
000000
00f800
020800
040400
040400
080800
080800
080800
082000
07c000
000000
000000
000000
ENDCHAR
STARTCHAR 2761
ENCODING 10081
SWIDTH 1000 0
DWIDTH 18 0
BBX 18 18 0 -2
BITMAP
000000
000000
000000
000000
000000
000000
03fe00
020800
020800
020800
041000
041000
041000
082000
1c7000
000000
000000
000000
ENDCHAR
STARTCHAR 2762
ENCODING 10082
SWIDTH 1000 0
DWIDTH 18 0
BBX 18 18 0 -2
BITMAP
000000
000000
000000
000000
000000
000000
037800
030800
020400
020400
040800
040800
061000
0bc000
080000
080000
1c0000
000000
ENDCHAR
STARTCHAR 2763
ENCODING 10083
SWIDTH 1000 0
DWIDTH 18 0
BBX 18 18 0 -2
BITMAP
000000
000000
000000
000000
000000
000000
00f800
020800
040400
040000
080000
080000
080800
082000
07c000
000000
000000
000000
ENDCHAR
STARTCHAR 2764
ENCODING 10084
SWIDTH 1000 0
DWIDTH 18 0
BBX 18 18 0 -2
BITMAP
000000
000000
000000
000000
000000
000000
07ff00
084200
004000
004000
008000
008000
008000
010000
038000
000000
000000
000000
ENDCHAR
STARTCHAR 2765
ENCODING 10085
SWIDTH 1000 0
DWIDTH 18 0
BBX 18 18 0 -2
BITMAP
000000
000000
000000
000000
000000
000000
070700
040400
020800
020800
022000
022000
014000
028000
010000
120000
0c0000
000000
ENDCHAR
STARTCHAR 2766
ENCODING 10086
SWIDTH 1000 0
DWIDTH 18 0
BBX 18 18 0 -2
BITMAP
000000
000000
000000
000000
000000
000000
007000
004000
03f800
044400
088800
088800
07f000
010000
038000
000000
000000
000000
ENDCHAR
STARTCHAR 2767
ENCODING 10087
SWIDTH 1000 0
DWIDTH 18 0
BBX 18 18 0 -2
BITMAP
000000
000000
000000
000000
000000
000000
070700
020800
011000
00a000
008000
014000
022000
082000
383800
000000
000000
000000
ENDCHAR
STARTCHAR 2768
ENCODING 10088
SWIDTH 1000 0
DWIDTH 18 0
BBX 18 18 0 -2
BITMAP
000000
000000
000000
000000
000000
000000
038e00
020800
020800
020800
041000
041000
041000
082000
1fe000
001000
000000
000000
ENDCHAR
STARTCHAR 2769
ENCODING 10089
SWIDTH 1000 0
DWIDTH 18 0
BBX 18 18 0 -2
BITMAP
000000
000000
000000
000000
000000
000000
070e00
040800
040800
040800
081000
043000
03d000
002000
007000
000000
000000
000000
ENDCHAR
STARTCHAR 276a
ENCODING 10090
SWIDTH 1000 0
DWIDTH 18 0
BBX 18 18 0 -2
BITMAP
000000
000000
000000
000000
000000
000000
0e7380
084200
084200
084200
108400
108400
108400
210800
7ffc00
000000
000000
000000
ENDCHAR
STARTCHAR 276b
ENCODING 10091
SWIDTH 1000 0
DWIDTH 18 0
BBX 18 18 0 -2
BITMAP
000000
000000
000000
000000
000000
000000
0e7380
084200
084200
084200
108400
108400
108400
210800
7ff800
000400
000000
000000
ENDCHAR
STARTCHAR 276c
ENCODING 10092
SWIDTH 1000 0
DWIDTH 18 0
BBX 18 18 0 -2
BITMAP
000000
000000
000000
000000
000000
000000
07e000
090000
010000
01f000
021000
020800
020800
042000
0fc000
000000
000000
000000
ENDCHAR
STARTCHAR 276d
ENCODING 10093
SWIDTH 1000 0
DWIDTH 18 0
BBX 18 18 0 -2
BITMAP
000000
000000
000000
000000
000000
000000
070700
040400
040400
07c400
084800
082800
082800
109000
3f3800
000000
000000
000000
ENDCHAR
STARTCHAR 276e
ENCODING 10094
SWIDTH 1000 0
DWIDTH 18 0
BBX 18 18 0 -2
BITMAP
000000
000000
000000
000000
000000
000000
038000
020000
020000
03f000
041000
040800
040800
082000
1fc000
000000
000000
000000
ENDCHAR
STARTCHAR 276f
ENCODING 10095
SWIDTH 1000 0
DWIDTH 18 0
BBX 18 18 0 -2
BITMAP
000000
000000
000000
000000
000000
000000
00f800
020800
000400
006400
033800
000800
000800
082000
07c000
000000
000000
000000
ENDCHAR
STARTCHAR 2770
ENCODING 10096
SWIDTH 1000 0
DWIDTH 18 0
BBX 18 18 0 -2
BITMAP
000000
000000
000000
000000
000000
000000
071c00
044400
048200
048200
0f0400
090400
090400
111000
38e000
000000
000000
000000
ENDCHAR
STARTCHAR 2771
ENCODING 10097
SWIDTH 1000 0
DWIDTH 18 0
BBX 18 18 0 -2
BITMAP
000000
000000
000000
000000
000000
000000
00fe00
020800
040800
040800
041000
03f000
011000
042000
187000
000000
000000
000000
ENDCHAR
STARTCHAR 2821
ENCODING 10273
SWIDTH 1000 0
DWIDTH 18 0
BBX 18 18 0 -2
BITMAP
000000
000000
000000
000000
000000
000000
000000
000000
ffffc0
000000
000000
000000
000000
000000
000000
000000
000000
000000
ENDCHAR
STARTCHAR 2822
ENCODING 10274
SWIDTH 1000 0
DWIDTH 18 0
BBX 18 18 0 -2
BITMAP
002000
002000
002000
004000
004000
004000
004000
008000
008000
008000
008000
010000
010000
010000
010000
020000
020000
020000
ENDCHAR
STARTCHAR 2823
ENCODING 10275
SWIDTH 1000 0
DWIDTH 18 0
BBX 18 18 0 -2
BITMAP
000000
000000
000000
000000
000000
000000
000000
000000
00ffc0
008000
008000
008000
010000
010000
010000
020000
020000
020000
ENDCHAR
STARTCHAR 2824
ENCODING 10276
SWIDTH 1000 0
DWIDTH 18 0
BBX 18 18 0 -2
BITMAP
000000
000000
000000
000000
000000
000000
000000
000000
ff8000
008000
008000
010000
010000
010000
010000
020000
020000
020000
ENDCHAR
STARTCHAR 2825
ENCODING 10277
SWIDTH 1000 0
DWIDTH 18 0
BBX 18 18 0 -2
BITMAP
002000
002000
002000
004000
004000
004000
008000
008000
ff8000
000000
000000
000000
000000
000000
000000
000000
000000
000000
ENDCHAR
STARTCHAR 2826
ENCODING 10278
SWIDTH 1000 0
DWIDTH 18 0
BBX 18 18 0 -2
BITMAP
002000
002000
002000
004000
004000
004000
008000
008000
00ffc0
000000
000000
000000
000000
000000
000000
000000
000000
000000
ENDCHAR
STARTCHAR 2827
ENCODING 10279
SWIDTH 1000 0
DWIDTH 18 0
BBX 18 18 0 -2
BITMAP
002000
002000
002000
004000
004000
004000
004000
008000
00ffc0
008000
008000
010000
010000
010000
010000
020000
020000
020000
ENDCHAR
STARTCHAR 2828
ENCODING 10280
SWIDTH 1000 0
DWIDTH 18 0
BBX 18 18 0 -2
BITMAP
000000
000000
000000
000000
000000
000000
000000
000000
ffffc0
008000
008000
008000
010000
010000
010000
020000
020000
020000
ENDCHAR
STARTCHAR 2829
ENCODING 10281
SWIDTH 1000 0
DWIDTH 18 0
BBX 18 18 0 -2
BITMAP
002000
002000
002000
004000
004000
004000
004000
008000
ff8000
008000
008000
010000
010000
010000
010000
020000
020000
020000
ENDCHAR
STARTCHAR 282a
ENCODING 10282
SWIDTH 1000 0
DWIDTH 18 0
BBX 18 18 0 -2
BITMAP
002000
002000
002000
004000
004000
004000
008000
008000
ffffc0
000000
000000
000000
000000
000000
000000
000000
000000
000000
ENDCHAR
STARTCHAR 282b
ENCODING 10283
SWIDTH 1000 0
DWIDTH 18 0
BBX 18 18 0 -2
BITMAP
002000
002000
002000
004000
004000
004000
004000
008000
ffffc0
008000
008000
010000
010000
010000
010000
020000
020000
020000
ENDCHAR
STARTCHAR 282c
ENCODING 10284
SWIDTH 1000 0
DWIDTH 18 0
BBX 18 18 0 -2
BITMAP
000000
000000
000000
000000
000000
000000
000000
000000
ffffc0
ffffc0
000000
000000
000000
000000
000000
000000
000000
000000
ENDCHAR
STARTCHAR 282d
ENCODING 10285
SWIDTH 1000 0
DWIDTH 18 0
BBX 18 18 0 -2
BITMAP
003000
003000
003000
006000
006000
006000
006000
00c000
00c000
00c000
00c000
018000
018000
018000
018000
030000
030000
030000
ENDCHAR
STARTCHAR 282e
ENCODING 10286
SWIDTH 1000 0
DWIDTH 18 0
BBX 18 18 0 -2
BITMAP
000000
000000
000000
000000
000000
000000
000000
000000
00ffc0
00ffc0
00c000
018000
018000
018000
018000
030000
030000
030000
ENDCHAR
STARTCHAR 282f
ENCODING 10287
SWIDTH 1000 0
DWIDTH 18 0
BBX 18 18 0 -2
BITMAP
000000
000000
000000
000000
000000
000000
000000
000000
ffc000
ffc000
00c000
00c000
018000
018000
018000
030000
030000
030000
ENDCHAR
STARTCHAR 2830
ENCODING 10288
SWIDTH 1000 0
DWIDTH 18 0
BBX 18 18 0 -2
BITMAP
003000
003000
003000
006000
006000
006000
00c000
00c000
ffc000
ffc000
000000
000000
000000
000000
000000
000000
000000
000000
ENDCHAR
STARTCHAR 2831
ENCODING 10289
SWIDTH 1000 0
DWIDTH 18 0
BBX 18 18 0 -2
BITMAP
003000
003000
003000
006000
006000
006000
00c000
00c000
00ffc0
00ffc0
000000
000000
000000
000000
000000
000000
000000
000000
ENDCHAR
STARTCHAR 2832
ENCODING 10290
SWIDTH 1000 0
DWIDTH 18 0
BBX 18 18 0 -2
BITMAP
003000
003000
003000
006000
006000
006000
006000
00c000
00ffc0
00ffc0
00c000
018000
018000
018000
018000
030000
030000
030000
ENDCHAR
STARTCHAR 2833
ENCODING 10291
SWIDTH 1000 0
DWIDTH 18 0
BBX 18 18 0 -2
BITMAP
000000
000000
000000
000000
000000
000000
000000
000000
ffffc0
ffffc0
00c000
00c000
018000
018000
018000
030000
030000
030000
ENDCHAR
STARTCHAR 2834
ENCODING 10292
SWIDTH 1000 0
DWIDTH 18 0
BBX 18 18 0 -2
BITMAP
003000
003000
003000
006000
006000
006000
006000
00c000
ffc000
ffc000
00c000
018000
018000
018000
018000
030000
030000
030000
ENDCHAR
STARTCHAR 2835
ENCODING 10293
SWIDTH 1000 0
DWIDTH 18 0
BBX 18 18 0 -2
BITMAP
003000
003000
003000
006000
006000
006000
00c000
00c000
ffffc0
ffffc0
000000
000000
000000
000000
000000
000000
000000
000000
ENDCHAR
STARTCHAR 2836
ENCODING 10294
SWIDTH 1000 0
DWIDTH 18 0
BBX 18 18 0 -2
BITMAP
003000
003000
003000
006000
006000
006000
006000
00c000
ffffc0
ffffc0
00c000
018000
018000
018000
018000
030000
030000
030000
ENDCHAR
STARTCHAR 2837
ENCODING 10295
SWIDTH 1000 0
DWIDTH 18 0
BBX 18 18 0 -2
BITMAP
003000
003000
003000
006000
006000
006000
006000
00c000
00ffc0
00c000
00c000
018000
018000
018000
018000
030000
030000
030000
ENDCHAR
STARTCHAR 2838
ENCODING 10296
SWIDTH 1000 0
DWIDTH 18 0
BBX 18 18 0 -2
BITMAP
000000
000000
000000
000000
000000
000000
000000
000000
ffffc0
ffffc0
008000
008000
010000
010000
010000
020000
020000
020000
ENDCHAR
STARTCHAR 2839
ENCODING 10297
SWIDTH 1000 0
DWIDTH 18 0
BBX 18 18 0 -2
BITMAP
003000
003000
003000
006000
006000
006000
006000
00c000
ffc000
00c000
00c000
018000
018000
018000
018000
030000
030000
030000
ENDCHAR
STARTCHAR 283a
ENCODING 10298
SWIDTH 1000 0
DWIDTH 18 0
BBX 18 18 0 -2
BITMAP
002000
002000
002000
004000
004000
004000
008000
008000
ffffc0
ffffc0
000000
000000
000000
000000
000000
000000
000000
000000
ENDCHAR
STARTCHAR 283b
ENCODING 10299
SWIDTH 1000 0
DWIDTH 18 0
BBX 18 18 0 -2
BITMAP
002000
002000
002000
004000
004000
004000
004000
008000
ffffc0
ffffc0
008000
008000
010000
010000
010000
020000
020000
020000
ENDCHAR
STARTCHAR 283c
ENCODING 10300
SWIDTH 1000 0
DWIDTH 18 0
BBX 18 18 0 -2
BITMAP
002000
002000
002000
004000
004000
004000
004000
008000
00ffc0
00ffc0
008000
010000
010000
010000
010000
020000
020000
020000
ENDCHAR
STARTCHAR 283d
ENCODING 10301
SWIDTH 1000 0
DWIDTH 18 0
BBX 18 18 0 -2
BITMAP
000000
000000
000000
000000
000000
000000
000000
000000
ffffc0
00c000
00c000
00c000
018000
018000
018000
030000
030000
030000
ENDCHAR
STARTCHAR 283e
ENCODING 10302
SWIDTH 1000 0
DWIDTH 18 0
BBX 18 18 0 -2
BITMAP
002000
002000
002000
004000
004000
004000
004000
008000
ff8000
ff8000
008000
010000
010000
010000
010000
020000
020000
020000
ENDCHAR
STARTCHAR 283f
ENCODING 10303
SWIDTH 1000 0
DWIDTH 18 0
BBX 18 18 0 -2
BITMAP
003000
003000
003000
006000
006000
006000
00c000
00c000
ffffc0
000000
000000
000000
000000
000000
000000
000000
000000
000000
ENDCHAR
STARTCHAR 2840
ENCODING 10304
SWIDTH 1000 0
DWIDTH 18 0
BBX 18 18 0 -2
BITMAP
003000
003000
003000
006000
006000
006000
006000
00c000
ffffc0
00c000
00c000
018000
018000
018000
018000
030000
030000
030000
ENDCHAR
STARTCHAR 3021
ENCODING 12321
SWIDTH 1000 0
DWIDTH 18 0
BBX 18 18 0 -2
BITMAP
000000
000000
0fffc0
008800
011000
011000
0fff00
122200
122200
122200
244400
3ffc00
044000
088000
088000
fffe00
000000
000000
ENDCHAR
STARTCHAR 3022
ENCODING 12322
SWIDTH 1000 0
DWIDTH 18 0
BBX 18 18 0 -2
BITMAP
000000
000000
01ffe0
1e1200
242400
242400
25ff80
4a4900
4a4900
4a4900
97fe00
909000
f09000
012000
012000
1ffe00
000000
000000
ENDCHAR
STARTCHAR 3023
ENCODING 12323
SWIDTH 1000 0
DWIDTH 18 0
BBX 18 18 0 -2
BITMAP
000000
040200
040200
041fc0
080400
3f0400
090400
12ff80
320000
220800
4c1000
e8fe00
181000
282000
682000
c02000
83fe00
000000
ENDCHAR
STARTCHAR 3024
ENCODING 12324
SWIDTH 1000 0
DWIDTH 18 0
BBX 18 18 0 -2
BITMAP
000000
000000
0fbfe0
088080
130100
167900
144900
249200
229200
229200
452400
45e400
440400
b80800
800800
800800
803800
000000
ENDCHAR
STARTCHAR 3025
ENCODING 12325
SWIDTH 1000 0
DWIDTH 18 0
BBX 18 18 0 -2
BITMAP
000000
002000
002000
1fffe0
000000
07fe00
040200
080400
080400
0ffc00
064200
0c6600
382c00
d06000
103000
1f1800
f00e00
000000
ENDCHAR
STARTCHAR 3026
ENCODING 12326
SWIDTH 1000 0
DWIDTH 18 0
BBX 18 18 0 -2
BITMAP
000000
000380
0ffe00
044080
044200
3fffc0
204040
4a4680
1a0b00
33f900
080000
0ff800
3c3000
ccc000
078000
3cf000
e01e00
000000
ENDCHAR
STARTCHAR 3027
ENCODING 12327
SWIDTH 1000 0
DWIDTH 18 0
BBX 18 18 0 -2
BITMAP
000000
041000
041080
043080
3e4f80
09f8c0
084000
108000
11ff00
1b1000
e02000
27ff00
205000
41b000
431800
460c00
cc0600
000000
ENDCHAR
STARTCHAR 3028
ENCODING 12328
SWIDTH 1000 0
DWIDTH 18 0
BBX 18 18 0 -2
BITMAP
000000
040200
040700
040500
081b00
3f3180
0960c0
120000
323e00
260000
480000
e8fe00
188200
290400
690400
c10400
81fc00
000000
ENDCHAR
STARTCHAR 3029
ENCODING 12329
SWIDTH 1000 0
DWIDTH 18 0
BBX 18 18 0 -2
BITMAP
000000
001000
0c1f80
062080
05a200
001c00
007700
038380
781000
08fe00
102000
11fc00
102000
27fc00
604000
d00000
8ffe00
000000
ENDCHAR
STARTCHAR 302a
ENCODING 12330
SWIDTH 1000 0
DWIDTH 18 0
BBX 18 18 0 -2
BITMAP
000000
008400
008400
1fffe0
010800
000000
1f9100
021480
240900
1ffe00
e10700
010000
7ffe00
048000
0cc000
387000
e01c00
000000
ENDCHAR
STARTCHAR 302b
ENCODING 12331
SWIDTH 1000 0
DWIDTH 18 0
BBX 18 18 0 -2
BITMAP
000000
008400
008400
1fffe0
010800
000000
3fffc0
022000
022000
3fff00
444200
4c4200
787e00
800400
800400
fffc00
000000
000000
ENDCHAR
STARTCHAR 302c
ENCODING 12332
SWIDTH 1000 0
DWIDTH 18 0
BBX 18 18 0 -2
BITMAP
000000
011000
073e00
1c4400
09ff00
089100
3eff00
112200
19fe00
342000
67fe00
644200
a7fe00
488400
4ffc00
408200
407e00
000000
ENDCHAR
STARTCHAR 302d
ENCODING 12333
SWIDTH 1000 0
DWIDTH 18 0
BBX 18 18 0 -2
BITMAP
000000
000000
0fffc0
008800
011000
0fff00
091100
122200
1ffe00
022000
044000
ffff00
008000
498c00
489600
cc3200
87e000
000000
ENDCHAR
STARTCHAR 302e
ENCODING 12334
SWIDTH 1000 0
DWIDTH 18 0
BBX 18 18 0 -2
BITMAP
000000
040000
047fc0
044040
088080
3eff80
088000
117f00
111000
112200
3afe00
e21200
221000
4dfc00
482000
582000
c3fe00
000000
ENDCHAR
STARTCHAR 302f
ENCODING 12335
SWIDTH 1000 0
DWIDTH 18 0
BBX 18 18 0 -2
BITMAP
000000
000000
0c7fc0
064040
048080
00ff80
308000
317f00
111000
012200
12fe00
121200
321000
4dfc00
c82000
982000
83fe00
000000
ENDCHAR
STARTCHAR 3030
ENCODING 12336
SWIDTH 1000 0
DWIDTH 18 0
BBX 18 18 0 -2
BITMAP
000000
040000
041f80
041080
082100
3f2100
092100
127e00
124200
124200
248400
248400
24fc00
480000
c80200
8c0600
87fc00
000000
ENDCHAR
STARTCHAR 3031
ENCODING 12337
SWIDTH 1000 0
DWIDTH 18 0
BBX 18 18 0 -2
BITMAP
000000
008400
1fffe0
008400
008000
0ffe00
010200
7fff80
000000
0ffc00
100800
1ff800
004000
7ff800
108000
fffe00
008000
000000
ENDCHAR
STARTCHAR 3032
ENCODING 12338
SWIDTH 1000 0
DWIDTH 18 0
BBX 18 18 0 -2
BITMAP
000000
008400
008400
1fffe0
010800
000000
1fff80
000000
0ffe00
080200
100400
1ffc00
100000
600000
400000
c00000
800000
000000
ENDCHAR
STARTCHAR 3033
ENCODING 12339
SWIDTH 1000 0
DWIDTH 18 0
BBX 18 18 0 -2
BITMAP
000000
040400
078c80
0c88c0
123e80
3f8400
14ffc0
291400
3f2200
29c980
522000
7ec400
001800
aac200
aa0c00
a83000
01c000
000000
ENDCHAR
STARTCHAR 3034
ENCODING 12340
SWIDTH 1000 0
DWIDTH 18 0
BBX 18 18 0 -2
BITMAP
000000
020400
020400
027fc0
3f0000
044100
046300
1c4400
1bff80
1a1000
502000
502000
93fe00
204000
204000
204000
204000
000000
ENDCHAR
STARTCHAR 3035
ENCODING 12341
SWIDTH 1000 0
DWIDTH 18 0
BBX 18 18 0 -2
BITMAP
000000
000000
07ffc0
040000
081000
081000
081000
102000
17ff00
102000
204000
204000
604000
808000
808000
3ffe00
000000
000000
ENDCHAR
STARTCHAR 3036
ENCODING 12342
SWIDTH 1000 0
DWIDTH 18 0
BBX 18 18 0 -2
BITMAP
000000
020200
020700
1fc500
041b00
1f3180
1160c0
223200
3e1a00
220200
44c400
7c6400
100700
fc7800
21c800
200800
200800
000000
ENDCHAR
STARTCHAR 3037
ENCODING 12343
SWIDTH 1000 0
DWIDTH 18 0
BBX 18 18 0 -2
BITMAP
000000
040000
04ff00
042100
084600
3e4400
084400
11de00
114200
116200
3a4c00
e26800
223800
4c2000
487000
48d800
db8e00
000000
ENDCHAR
STARTCHAR 3038
ENCODING 12344
SWIDTH 1000 0
DWIDTH 18 0
BBX 18 18 0 -2
BITMAP
000000
002000
002000
0fffc0
100080
140080
040000
0fbe00
18a200
11a200
7a4400
ce4400
044c00
188000
308200
60c600
c07c00
000000
ENDCHAR
STARTCHAR 3039
ENCODING 12345
SWIDTH 1000 0
DWIDTH 18 0
BBX 18 18 0 -2
BITMAP
000000
040000
041f80
041080
082100
3f2100
093f00
124200
324200
264200
488400
e8fc00
188400
290800
690800
c10800
87fe00
000000
ENDCHAR
STARTCHAR 303a
ENCODING 12346
SWIDTH 1000 0
DWIDTH 18 0
BBX 18 18 0 -2
BITMAP
000000
020200
020200
020200
3f8400
24ffc0
249000
492000
492000
7f2000
104000
104000
124000
248000
3ec000
e27c00
000000
000000
ENDCHAR
STARTCHAR 303b
ENCODING 12347
SWIDTH 1000 0
DWIDTH 18 0
BBX 18 18 0 -2
BITMAP
000000
020400
070400
058c80
199180
143080
3f27c0
22f880
3e0000
220000
7cfe00
408200
448200
890400
bd0400
e50400
81fc00
000000
ENDCHAR
STARTCHAR 303c
ENCODING 12348
SWIDTH 1000 0
DWIDTH 18 0
BBX 18 18 0 -2
BITMAP
000000
020800
060800
0c1fe0
312040
1b6040
061e40
182480
322480
7f3c80
124900
104900
547900
ac0200
a40600
200400
201c00
000000
ENDCHAR
STARTCHAR 303d
ENCODING 12349
SWIDTH 1000 0
DWIDTH 18 0
BBX 18 18 0 -2
BITMAP
000000
020400
060400
0c3fc0
310800
1bffc0
061200
186400
32c780
7f2000
127c00
10c400
558c00
acb000
a46000
21d800
270e00
000000
ENDCHAR
STARTCHAR 303e
ENCODING 12350
SWIDTH 1000 0
DWIDTH 18 0
BBX 18 18 0 -2
BITMAP
000000
040200
07c200
0c4200
110400
3fc7c0
124400
248800
3f8800
248800
497e00
7f4200
004200
aa8400
aa8400
a88400
00fc00
000000
ENDCHAR
STARTCHAR 303f
ENCODING 12351
SWIDTH 1000 0
DWIDTH 18 0
BBX 18 18 0 -2
BITMAP
000000
000900
000980
000880
3fffc0
001000
001000
3f2100
213300
211200
422c00
7e3800
001000
0e7200
78da00
c38e00
0e0400
000000
ENDCHAR
STARTCHAR 3040
ENCODING 12352
SWIDTH 1000 0
DWIDTH 18 0
BBX 18 18 0 -2
BITMAP
000000
000000
1fffe0
008800
1fff80
111080
111080
3fff00
088400
0c8c00
091000
ffff00
052000
1a6000
723800
c20e00
020000
000000
ENDCHAR
STARTCHAR 3041
ENCODING 12353
SWIDTH 1000 0
DWIDTH 18 0
BBX 18 18 0 -2
BITMAP
000000
020200
020700
020500
3f1b00
013180
0360c0
0c0000
093e00
1b0000
7c0000
d6fe00
128200
210400
210400
210400
21fc00
000000
ENDCHAR
STARTCHAR 3042
ENCODING 12354
SWIDTH 1000 0
DWIDTH 18 0
BBX 18 18 0 -2
BITMAP
000000
002000
002000
0fffc0
100080
108080
018000
020000
7fff80
040400
181800
103000
3e6000
078000
0ce000
383800
e00c00
000000
ENDCHAR
STARTCHAR 3043
ENCODING 12355
SWIDTH 1000 0
DWIDTH 18 0
BBX 18 18 0 -2
BITMAP
000000
001000
001000
0fffe0
104000
17ff80
108800
224800
27fe00
3c4580
488800
4ff800
488800
911000
1ff200
010600
00fc00
000000
ENDCHAR
STARTCHAR 3044
ENCODING 12356
SWIDTH 1000 0
DWIDTH 18 0
BBX 18 18 0 -2
BITMAP
000000
040800
040800
04ffc0
090080
3f2080
082000
104000
17ff80
1c8200
e30c00
220800
27d800
40e000
41b000
431800
ce0c00
000000
ENDCHAR
STARTCHAR 3045
ENCODING 12357
SWIDTH 1000 0
DWIDTH 18 0
BBX 18 18 0 -2
BITMAP
000000
000400
000400
1f7fc0
224100
226300
222200
47ff80
7c0000
440000
89fc00
890400
890400
f3f800
020800
020800
03f800
000000
ENDCHAR
STARTCHAR 3046
ENCODING 12358
SWIDTH 1000 0
DWIDTH 18 0
BBX 18 18 0 -2
BITMAP
000000
002000
0fffc0
080040
008000
3fffc0
020400
0f1800
01f000
071c00
780c00
010000
ffff00
0a4000
3a7000
e21e00
020000
000000
ENDCHAR
STARTCHAR 3047
ENCODING 12359
SWIDTH 1000 0
DWIDTH 18 0
BBX 18 18 0 -2
BITMAP
000000
000000
0fcfc0
084840
1f9f80
109080
1f9f80
208100
27f900
221100
5ffa00
400200
47e200
884400
8fc400
884400
8fdc00
000000
ENDCHAR
STARTCHAR 3048
ENCODING 12360
SWIDTH 1000 0
DWIDTH 18 0
BBX 18 18 0 -2
BITMAP
000000
088200
088200
1fdfc0
112080
112880
1f0800
081000
7f7f80
491200
926400
fe4c00
10e800
fc7000
205800
20cc00
218400
000000
ENDCHAR
STARTCHAR 3049
ENCODING 12361
SWIDTH 1000 0
DWIDTH 18 0
BBX 18 18 0 -2
BITMAP
000000
002000
002000
002000
3fffc0
015000
035800
0c9800
188e00
708380
000000
3ffc00
200400
400800
400800
400800
7ff800
000000
ENDCHAR
STARTCHAR 304a
ENCODING 12362
SWIDTH 1000 0
DWIDTH 18 0
BBX 18 18 0 -2
BITMAP
000000
000000
040080
040080
080100
098100
08c100
10c200
104200
100600
200800
200800
201c00
5c6c00
70c400
c18600
070200
000000
ENDCHAR
STARTCHAR 304b
ENCODING 12363
SWIDTH 1000 0
DWIDTH 18 0
BBX 18 18 0 -2
BITMAP
000000
010000
017fc0
030440
040880
0c0880
09ffc0
301100
501100
101100
23fe00
202000
202000
40c000
408000
418000
430000
000000
ENDCHAR
STARTCHAR 304c
ENCODING 12364
SWIDTH 1000 0
DWIDTH 18 0
BBX 18 18 0 -2
BITMAP
000000
010400
010400
030400
04ff80
0c0000
080000
308200
508200
10c600
208800
208800
209800
402000
402000
4ffe00
400000
000000
ENDCHAR
STARTCHAR 304d
ENCODING 12365
SWIDTH 1000 0
DWIDTH 18 0
BBX 18 18 0 -2
BITMAP
000000
010400
010400
030400
05ffc0
0c1000
081000
307100
50d300
119600
273800
2d1000
211800
421000
42d800
438c00
4e0600
000000
ENDCHAR
STARTCHAR 304e
ENCODING 12366
SWIDTH 1000 0
DWIDTH 18 0
BBX 18 18 0 -2
BITMAP
000000
010800
017f80
031080
042100
0dffc0
080000
31fe00
510200
11fe00
201000
27fe00
211000
422000
5ffe00
402000
402000
000000
ENDCHAR
STARTCHAR 304f
ENCODING 12367
SWIDTH 1000 0
DWIDTH 18 0
BBX 18 18 0 -2
BITMAP
000000
000000
0fffc0
080040
110880
110880
17fe80
221100
221100
221100
5ffa00
442200
4c2200
b04400
800400
fffc00
000000
000000
ENDCHAR
STARTCHAR 3050
ENCODING 12368
SWIDTH 1000 0
DWIDTH 18 0
BBX 18 18 0 -2
BITMAP
000000
002000
002000
1fffe0
004000
1fff00
004100
1ffe00
108000
108000
3ffe00
028200
06c200
089c00
18c000
707000
c01e00
000000
ENDCHAR
STARTCHAR 3051
ENCODING 12369
SWIDTH 1000 0
DWIDTH 18 0
BBX 18 18 0 -2
BITMAP
000000
000700
07fc00
002000
3fffc0
014800
034c00
1c8e00
708380
008000
020000
ffff00
042000
10c000
3f8000
06f000
f81c00
000000
ENDCHAR
STARTCHAR 3052
ENCODING 12370
SWIDTH 1000 0
DWIDTH 18 0
BBX 18 18 0 -2
BITMAP
000000
000900
000980
000880
1fffc0
101000
17d000
202200
223200
2fd600
492800
493800
5e1000
867200
8ada00
318e00
030400
000000
ENDCHAR
STARTCHAR 3053
ENCODING 12371
SWIDTH 1000 0
DWIDTH 18 0
BBX 18 18 0 -2
BITMAP
000000
000080
0fe080
082080
104100
1fc100
101fc0
200200
2f8200
201200
5f3400
441400
550400
aa0800
2a0800
4a0800
183800
000000
ENDCHAR
STARTCHAR 3054
ENCODING 12372
SWIDTH 1000 0
DWIDTH 18 0
BBX 18 18 0 -2
BITMAP
000000
021000
021100
023300
064400
157fc0
14c400
6a8800
48ff00
088800
111000
111000
11fe00
222000
222000
222000
23fe00
000000
ENDCHAR
STARTCHAR 3055
ENCODING 12373
SWIDTH 1000 0
DWIDTH 18 0
BBX 18 18 0 -2
BITMAP
000000
002000
002000
0fffc0
020400
010800
3fffc0
000000
0ffc00
080400
1ff800
100800
1ff800
020000
490c00
c82600
87e200
000000
ENDCHAR
STARTCHAR 3056
ENCODING 12374
SWIDTH 1000 0
DWIDTH 18 0
BBX 18 18 0 -2
BITMAP
000000
000080
0fe080
082080
1fc100
101fc0
17c100
201200
2f8a00
220a00
d50400
950400
2c1c00
020000
490c00
c82600
87e200
000000
ENDCHAR
STARTCHAR 3057
ENCODING 12375
SWIDTH 1000 0
DWIDTH 18 0
BBX 18 18 0 -2
BITMAP
000000
000000
03ff00
020100
040200
07fe00
040200
080400
0ffc00
040000
1ffe00
322200
e66200
188400
718c00
070800
003800
000000
ENDCHAR
STARTCHAR 3058
ENCODING 12376
SWIDTH 1000 0
DWIDTH 18 0
BBX 18 18 0 -2
BITMAP
000000
020400
020400
027fc0
3f1400
043600
046300
1c0000
1bff80
1a0200
51e400
512400
912400
23c800
200800
200800
203800
000000
ENDCHAR
STARTCHAR 3059
ENCODING 12377
SWIDTH 1000 0
DWIDTH 18 0
BBX 18 18 0 -2
BITMAP
000000
044000
064000
024000
1ffe00
010200
010400
07ff00
040100
0c0200
3fff00
600100
c01100
291200
249600
448400
001c00
000000
ENDCHAR
STARTCHAR 305a
ENCODING 12378
SWIDTH 1000 0
DWIDTH 18 0
BBX 18 18 0 -2
BITMAP
000000
000000
07ff80
042080
084100
0fff00
084100
108200
1ffe00
000000
ffff00
108400
10cc00
20d000
2e6000
383800
e00e00
000000
ENDCHAR
STARTCHAR 305b
ENCODING 12379
SWIDTH 1000 0
DWIDTH 18 0
BBX 18 18 0 -2
BITMAP
000000
000000
07ff80
042080
084100
0fff00
084100
108200
1ffe00
021000
7ffe00
042000
042000
fffe00
102000
703800
c00e00
000000
ENDCHAR
STARTCHAR 305c
ENCODING 12380
SWIDTH 1000 0
DWIDTH 18 0
BBX 18 18 0 -2
BITMAP
000000
00c400
0387c0
1e0c40
043180
046b00
3f8600
081800
087400
1c0780
341900
523300
50ea00
200c00
201800
207000
23c000
000000
ENDCHAR
STARTCHAR 305d
ENCODING 12381
SWIDTH 1000 0
DWIDTH 18 0
BBX 18 18 0 -2
BITMAP
000000
020800
060880
0c1980
312200
1b7fc0
06a200
184400
327f00
7f4400
128800
108800
54fe00
ad1000
a51000
211000
21fe00
000000
ENDCHAR
STARTCHAR 305e
ENCODING 12382
SWIDTH 1000 0
DWIDTH 18 0
BBX 18 18 0 -2
BITMAP
000000
020400
061f80
0c0880
311100
1b7fc0
060000
187f00
324100
7f7f00
120800
10fe00
544800
a89000
abfe00
201000
201000
000000
ENDCHAR
STARTCHAR 305f
ENCODING 12383
SWIDTH 1000 0
DWIDTH 18 0
BBX 18 18 0 -2
BITMAP
000000
0fffc0
082040
082040
1fff80
104080
104080
3fff00
000000
1ffe00
200400
3ffc00
200400
7ff800
400800
400800
403800
000000
ENDCHAR
STARTCHAR 3060
ENCODING 12384
SWIDTH 1000 0
DWIDTH 18 0
BBX 18 18 0 -2
BITMAP
000000
008400
1fffe0
008400
001e00
0ff000
004000
7fff80
02a000
1c9c00
e10f00
040000
ffff00
102000
7e4000
03f000
fc1c00
000000
ENDCHAR
STARTCHAR 3061
ENCODING 12385
SWIDTH 1000 0
DWIDTH 18 0
BBX 18 18 0 -2
BITMAP
000000
002000
002000
002000
3fffc0
00a000
01a080
066300
0c2600
1c3c00
e82000
083000
081000
103000
171800
3c0c00
e00600
000000
ENDCHAR
STARTCHAR 3062
ENCODING 12386
SWIDTH 1000 0
DWIDTH 18 0
BBX 18 18 0 -2
BITMAP
000000
000000
0f9fc0
001240
3fbf80
002480
1f2480
007f00
000000
3e7f00
008200
00fe00
7c8200
89fc00
890400
890400
f90c00
000000
ENDCHAR
STARTCHAR 3063
ENCODING 12387
SWIDTH 1000 0
DWIDTH 18 0
BBX 18 18 0 -2
BITMAP
000000
000800
0c7f80
061080
042100
01ffc0
000000
00fe00
788200
08fe00
101000
13fe00
111000
2ffe00
602000
d02000
8ffe00
000000
ENDCHAR
STARTCHAR 3064
ENCODING 12388
SWIDTH 1000 0
DWIDTH 18 0
BBX 18 18 0 -2
BITMAP
000000
000400
0c3f80
062480
047f00
000800
01ffc0
000000
78fe00
088200
11fc00
110400
11fc00
220800
63f800
d40400
8ffe00
000000
ENDCHAR
STARTCHAR 3065
ENCODING 12389
SWIDTH 1000 0
DWIDTH 18 0
BBX 18 18 0 -2
BITMAP
000000
000000
0fffc0
088000
110000
13fe00
162000
204000
2ffe00
20a000
436000
422000
463000
983000
800000
fffc00
000000
000000
ENDCHAR
STARTCHAR 3066
ENCODING 12390
SWIDTH 1000 0
DWIDTH 18 0
BBX 18 18 0 -2
BITMAP
000000
008400
008400
008400
010800
1fff80
010800
021000
021000
021000
ffff00
042000
042000
184000
104000
304000
604000
000000
ENDCHAR
STARTCHAR 3067
ENCODING 12391
SWIDTH 1000 0
DWIDTH 18 0
BBX 18 18 0 -2
BITMAP
000000
002000
002000
002000
3fffc0
004000
00c800
1b3000
0c6400
06cc00
033000
066000
1cc000
e36000
0e3000
381800
e00c00
000000
ENDCHAR
STARTCHAR 3068
ENCODING 12392
SWIDTH 1000 0
DWIDTH 18 0
BBX 18 18 0 -2
BITMAP
000000
040500
040480
040480
09ffc0
3e0800
080800
13d100
125900
124b00
249400
279c00
380800
c73200
9c5a00
018e00
060400
000000
ENDCHAR
STARTCHAR 3069
ENCODING 12393
SWIDTH 1000 0
DWIDTH 18 0
BBX 18 18 0 -2
BITMAP
000000
002000
002000
1fffe0
010000
020200
07ff00
380300
000000
0ffc00
100800
1ff800
100800
3ff000
201000
201000
207000
000000
ENDCHAR
STARTCHAR 306a
ENCODING 12394
SWIDTH 1000 0
DWIDTH 18 0
BBX 18 18 0 -2
BITMAP
000000
010000
0107c0
1ff440
040980
040900
0fcb00
109400
309200
5f9100
212200
212200
3f2200
424400
425c00
424000
4e4000
000000
ENDCHAR
STARTCHAR 306b
ENCODING 12395
SWIDTH 1000 0
DWIDTH 18 0
BBX 18 18 0 -2
BITMAP
000000
002440
1f4480
04d5a0
084880
088940
08abc0
3bd200
281100
69ff80
522000
531200
529400
e51000
0c2a00
084e00
198400
000000
ENDCHAR
STARTCHAR 306c
ENCODING 12396
SWIDTH 1000 0
DWIDTH 18 0
BBX 18 18 0 -2
BITMAP
000000
000000
000000
000000
000000
000000
000000
000000
3fff00
000000
000000
000000
000000
000000
000000
000000
000000
000000
ENDCHAR
STARTCHAR 306d
ENCODING 12397
SWIDTH 1000 0
DWIDTH 18 0
BBX 18 18 0 -2
BITMAP
000000
002000
002000
1fffe0
004000
004000
0fff00
000000
7fff80
400080
903100
11e000
1f0000
200400
200c00
300800
1ff800
000000
ENDCHAR
STARTCHAR 306e
ENCODING 12398
SWIDTH 1000 0
DWIDTH 18 0
BBX 18 18 0 -2
BITMAP
000000
004080
0c6180
062100
05ff80
004200
30c300
310200
130300
060180
000000
17fe00
349200
492400
c92400
892400
9ffe00
000000
ENDCHAR
STARTCHAR 306f
ENCODING 12399
SWIDTH 1000 0
DWIDTH 18 0
BBX 18 18 0 -2
BITMAP
000000
001000
0c1f80
063100
04c400
01ff80
008880
011100
791100
09ff00
109000
119000
111100
262200
6c1e00
d00000
8ffe00
000000
ENDCHAR
STARTCHAR 3070
ENCODING 12400
SWIDTH 1000 0
DWIDTH 18 0
BBX 18 18 0 -2
BITMAP
000000
00c0c0
038780
1e3c00
040000
044880
3f6d80
084a00
080000
1c9f00
352200
512200
513e00
224400
224400
224400
227c00
000000
ENDCHAR
STARTCHAR 3071
ENCODING 12401
SWIDTH 1000 0
DWIDTH 18 0
BBX 18 18 0 -2
BITMAP
000000
008400
008400
1fffe0
010800
014800
184000
18ff00
099100
011300
067400
105000
30d800
411000
c31800
860c00
0c0600
000000
ENDCHAR
STARTCHAR 3072
ENCODING 12402
SWIDTH 1000 0
DWIDTH 18 0
BBX 18 18 0 -2
BITMAP
000000
008400
008400
1fffe0
010800
010800
000000
1ffe00
008000
008000
ffff00
010000
010000
020000
020000
020000
0e0000
000000
ENDCHAR
STARTCHAR 3073
ENCODING 12403
SWIDTH 1000 0
DWIDTH 18 0
BBX 18 18 0 -2
BITMAP
000000
043de0
078420
0c8420
127bc0
3f4200
154200
2af780
3e1080
2a9480
54a500
7c2100
016300
ab4a00
aa5200
a8c600
018c00
000000
ENDCHAR
STARTCHAR 3074
ENCODING 12404
SWIDTH 1000 0
DWIDTH 18 0
BBX 18 18 0 -2
BITMAP
000000
008000
008000
018200
020600
060300
047f80
3f9100
021000
021000
042000
042000
0c2000
104200
304200
606600
c03c00
000000
ENDCHAR
STARTCHAR 3075
ENCODING 12405
SWIDTH 1000 0
DWIDTH 18 0
BBX 18 18 0 -2
BITMAP
000000
006000
01c000
0f1fc0
102080
102080
102080
204100
3f4100
204100
408200
408200
408200
810400
fd3c00
010000
010000
000000
ENDCHAR
STARTCHAR 3076
ENCODING 12406
SWIDTH 1000 0
DWIDTH 18 0
BBX 18 18 0 -2
BITMAP
000000
000000
007fc0
1e4040
248880
248880
24be80
491100
491100
493900
925200
f25200
028a00
040400
040400
07fc00
000000
000000
ENDCHAR
STARTCHAR 3077
ENCODING 12407
SWIDTH 1000 0
DWIDTH 18 0
BBX 18 18 0 -2
BITMAP
000000
000000
03ff00
020100
040200
07fe00
000000
1ffe00
100200
1ffe00
200400
3ffc00
200400
7ff800
000000
303000
e01c00
000000
ENDCHAR
STARTCHAR 3078
ENCODING 12408
SWIDTH 1000 0
DWIDTH 18 0
BBX 18 18 0 -2
BITMAP
000000
000000
0fffc0
080040
104080
104080
17fe80
208100
21c100
216100
466200
4c3200
581a00
800400
800400
fffc00
000000
000000
ENDCHAR
STARTCHAR 3079
ENCODING 12409
SWIDTH 1000 0
DWIDTH 18 0
BBX 18 18 0 -2
BITMAP
000000
040000
047fc0
044040
088880
3e8880
0abe80
151100
351100
253900
5a5200
525200
d28a00
740400
540400
c7fc00
800000
000000
ENDCHAR
STARTCHAR 307a
ENCODING 12410
SWIDTH 1000 0
DWIDTH 18 0
BBX 18 18 0 -2
BITMAP
000000
000080
1fe080
002080
004100
004100
1fc100
200200
200200
200200
7f0400
010400
010400
060800
040800
0c0800
780800
000000
ENDCHAR
STARTCHAR 307b
ENCODING 12411
SWIDTH 1000 0
DWIDTH 18 0
BBX 18 18 0 -2
BITMAP
000000
020800
070800
058800
199fc0
141040
3f34c0
224900
3e0800
220800
7c3800
402800
442800
88d800
bc8800
e58c00
830600
000000
ENDCHAR
STARTCHAR 307c
ENCODING 12412
SWIDTH 1000 0
DWIDTH 18 0
BBX 18 18 0 -2
BITMAP
000000
0c01c0
067f00
020040
009180
30d900
184800
100e00
00f800
001000
102000
17ff00
302000
404000
c04000
87fc00
800000
000000
ENDCHAR
STARTCHAR 307d
ENCODING 12413
SWIDTH 1000 0
DWIDTH 18 0
BBX 18 18 0 -2
BITMAP
000000
042080
044080
058880
09a100
084100
088900
17fa00
100a00
13f200
242400
27e400
242400
4fc800
c84a00
884a00
88c600
000000
ENDCHAR
STARTCHAR 307e
ENCODING 12414
SWIDTH 1000 0
DWIDTH 18 0
BBX 18 18 0 -2
BITMAP
000000
008400
1fffe0
008400
000000
1e0c00
121200
245a00
298180
287e00
480800
49fe00
480000
b7fe00
810800
827c00
87c600
000000
ENDCHAR
STARTCHAR 3121
ENCODING 12577
SWIDTH 1000 0
DWIDTH 18 0
BBX 18 18 0 -2
BITMAP
000000
000400
0f0400
097fc0
128080
128080
147f00
280000
240000
27ff80
489000
489000
489000
b32000
822200
862600
8c1c00
000000
ENDCHAR
STARTCHAR 3122
ENCODING 12578
SWIDTH 1000 0
DWIDTH 18 0
BBX 18 18 0 -2
BITMAP
000000
000400
0f0e00
091b00
126300
12dd80
1580c0
28fe00
240400
240800
49fc00
480000
4fff00
b10000
810800
827c00
87c600
000000
ENDCHAR
STARTCHAR 3123
ENCODING 12579
SWIDTH 1000 0
DWIDTH 18 0
BBX 18 18 0 -2
BITMAP
000000
0000c0
0f0780
097c40
124980
122500
147f80
280100
24ff00
240100
49fe00
482000
481000
b2a400
828600
868a00
847800
000000
ENDCHAR
STARTCHAR 3124
ENCODING 12580
SWIDTH 1000 0
DWIDTH 18 0
BBX 18 18 0 -2
BITMAP
000000
020000
021fc0
1fd040
112080
1b3f80
0a0000
7f7f00
004100
3e7f00
448200
44fe00
7c8200
89fc00
888800
f98c00
030600
000000
ENDCHAR
STARTCHAR 3125
ENCODING 12581
SWIDTH 1000 0
DWIDTH 18 0
BBX 18 18 0 -2
BITMAP
000000
000100
0f8100
088100
110200
11ffc0
110200
220400
22c400
226400
444800
440800
7c0800
001000
001000
001000
007000
000000
ENDCHAR
STARTCHAR 3126
ENCODING 12582
SWIDTH 1000 0
DWIDTH 18 0
BBX 18 18 0 -2
BITMAP
000000
004000
004000
004000
3fffc0
010000
010000
060000
040000
0ffe00
380400
680400
c80400
100800
100800
1ff800
000000
000000
ENDCHAR
STARTCHAR 3127
ENCODING 12583
SWIDTH 1000 0
DWIDTH 18 0
BBX 18 18 0 -2
BITMAP
000000
002000
002000
0fffc0
100080
100080
17fe80
008000
008000
008000
ffff00
010000
010000
020000
020000
020000
0e0000
000000
ENDCHAR
STARTCHAR 3128
ENCODING 12584
SWIDTH 1000 0
DWIDTH 18 0
BBX 18 18 0 -2
BITMAP
000000
001000
002000
03ff00
040200
040200
040200
0ffc00
080000
0fff80
100000
1ffe00
002200
526400
db2c00
890800
003800
000000
ENDCHAR
STARTCHAR 3129
ENCODING 12585
SWIDTH 1000 0
DWIDTH 18 0
BBX 18 18 0 -2
BITMAP
000000
000000
1fdfc0
004040
008080
189880
0c8c80
090900
010100
070700
1a1a00
323200
626200
858400
040400
040400
1c1c00
000000
ENDCHAR
STARTCHAR 312a
ENCODING 12586
SWIDTH 1000 0
DWIDTH 18 0
BBX 18 18 0 -2
BITMAP
000000
000000
0c7fc0
060400
040800
000800
000800
03ff80
781000
081000
102000
102000
102000
204000
61c000
d00000
8ffe00
000000
ENDCHAR
STARTCHAR 312b
ENCODING 12587
SWIDTH 1000 0
DWIDTH 18 0
BBX 18 18 0 -2
BITMAP
000000
000000
1fffe0
002000
004000
1fff80
104080
2cb100
269900
228900
410200
596200
4d3200
8a2400
820400
820400
801c00
000000
ENDCHAR
STARTCHAR 312c
ENCODING 12588
SWIDTH 1000 0
DWIDTH 18 0
BBX 18 18 0 -2
BITMAP
000000
006000
01c000
0f0fc0
109080
109080
109080
212100
212100
212100
424200
424200
7e4200
889c00
188000
308000
e08000
000000
ENDCHAR
STARTCHAR 312d
ENCODING 12589
SWIDTH 1000 0
DWIDTH 18 0
BBX 18 18 0 -2
BITMAP
000000
088200
0d8400
051fc0
3fa080
04bf80
1fa080
287f00
284000
3f7f80
128000
12ff00
360100
a2aa00
22aa00
240600
201c00
000000
ENDCHAR
STARTCHAR 312e
ENCODING 12590
SWIDTH 1000 0
DWIDTH 18 0
BBX 18 18 0 -2
BITMAP
000000
002000
002000
0fffc0
111080
161e80
000000
087e00
3e4200
087e00
108400
fefc00
108400
71f800
589200
c19200
870e00
000000
ENDCHAR
STARTCHAR 312f
ENCODING 12591
SWIDTH 1000 0
DWIDTH 18 0
BBX 18 18 0 -2
BITMAP
000000
000000
0ffe00
008200
010400
010400
010400
020800
7fff80
040800
081000
081000
081000
102000
102000
fffe00
000000
000000
ENDCHAR
STARTCHAR 3130
ENCODING 12592
SWIDTH 1000 0
DWIDTH 18 0
BBX 18 18 0 -2
BITMAP
000000
000480
000d80
1fc900
043fc0
046200
0ca200
104400
1e7f00
324400
a48800
248800
24fe00
491000
491000
791000
01fe00
000000
ENDCHAR
STARTCHAR 3131
ENCODING 12593
SWIDTH 1000 0
DWIDTH 18 0
BBX 18 18 0 -2
BITMAP
000000
006000
01c000
070f80
080100
080100
080100
100200
100200
1f3e00
200400
200400
200400
400800
400800
7ff800
000000
000000
ENDCHAR
STARTCHAR 3132
ENCODING 12594
SWIDTH 1000 0
DWIDTH 18 0
BBX 18 18 0 -2
BITMAP
000000
000000
0c7f80
064080
048100
009f00
309100
312200
13ff00
020100
14f200
149200
349200
492400
c9e400
880400
881c00
000000
ENDCHAR
STARTCHAR 3133
ENCODING 12595
SWIDTH 1000 0
DWIDTH 18 0
BBX 18 18 0 -2
BITMAP
000000
000800
000fc0
1e0800
25ffc0
251040
251e80
4ae000
4a2100
4a1f00
940000
f44800
0d4900
129400
329400
609000
07fe00
000000
ENDCHAR
STARTCHAR 3134
ENCODING 12596
SWIDTH 1000 0
DWIDTH 18 0
BBX 18 18 0 -2
BITMAP
000000
000000
003fc0
1f2040
224080
227f80
224080
448100
448100
44ff00
890200
890200
f90200
03fc00
010800
030c00
060600
000000
ENDCHAR
STARTCHAR 3135
ENCODING 12597
SWIDTH 1000 0
DWIDTH 18 0
BBX 18 18 0 -2
BITMAP
000000
044880
1f33e0
044880
1c6380
2a9540
0fff00
122200
1ffe00
000000
7e0400
42ff00
7e0400
848800
fc4800
880800
f43800
000000
ENDCHAR
STARTCHAR 3136
ENCODING 12598
SWIDTH 1000 0
DWIDTH 18 0
BBX 18 18 0 -2
BITMAP
000000
008400
008400
1fffe0
010800
000100
1fc100
208200
3fbf80
200200
5f2400
401400
5f1400
880800
aa0800
490800
183800
000000
ENDCHAR
STARTCHAR 3137
ENCODING 12599
SWIDTH 1000 0
DWIDTH 18 0
BBX 18 18 0 -2
BITMAP
000000
040f80
078880
0c8f80
121100
3f9f00
148000
297f00
3f5500
297f00
520000
7efc00
004400
aad800
aa7000
a8d800
038e00
000000
ENDCHAR
STARTCHAR 3138
ENCODING 12600
SWIDTH 1000 0
DWIDTH 18 0
BBX 18 18 0 -2
BITMAP
000000
020440
020440
023fc0
040900
3f0b00
090a00
13ff80
121800
323000
4dc600
4b5c00
e87000
308000
688200
c8c600
807c00
000000
ENDCHAR
STARTCHAR 3139
ENCODING 12601
SWIDTH 1000 0
DWIDTH 18 0
BBX 18 18 0 -2
BITMAP
000000
000000
0fffe0
080000
17df80
144a00
144a00
2f9400
289400
28bf80
5f0800
501800
521800
a47000
3e5200
62d200
018e00
000000
ENDCHAR
STARTCHAR 313a
ENCODING 12602
SWIDTH 1000 0
DWIDTH 18 0
BBX 18 18 0 -2
BITMAP
000000
000480
0c0440
06ffe0
040800
000800
30ff80
311100
111100
01ff00
122200
122200
33fe00
444400
c44400
844400
844c00
000000
ENDCHAR
STARTCHAR 313b
ENCODING 12603
SWIDTH 1000 0
DWIDTH 18 0
BBX 18 18 0 -2
BITMAP
000000
000180
000f00
07f900
080200
084200
084200
108400
108400
108400
210c00
210400
212400
424800
c3ec00
9e2400
800600
000000
ENDCHAR
STARTCHAR 313c
ENCODING 12604
SWIDTH 1000 0
DWIDTH 18 0
BBX 18 18 0 -2
BITMAP
000000
000000
0fcfc0
084840
1f9f80
109080
1f9f80
200100
27f900
208100
410200
47e200
410200
820400
bff400
800400
801c00
000000
ENDCHAR
STARTCHAR 313d
ENCODING 12605
SWIDTH 1000 0
DWIDTH 18 0
BBX 18 18 0 -2
BITMAP
000000
002080
001100
00ffe0
3c1400
24ff80
249480
49cf00
490100
49ff00
920200
93fe00
f00400
0ffe00
020800
010800
003800
000000
ENDCHAR
STARTCHAR 313e
ENCODING 12606
SWIDTH 1000 0
DWIDTH 18 0
BBX 18 18 0 -2
BITMAP
000000
000000
000000
07ff80
000000
000000
000000
7fff80
020000
020000
041000
0c1800
080800
11f800
3f0800
e00c00
000000
000000
ENDCHAR
STARTCHAR 313f
ENCODING 12607
SWIDTH 1000 0
DWIDTH 18 0
BBX 18 18 0 -2
BITMAP
000000
000000
0cffe0
068020
050840
00ff80
000800
01ff00
791100
09ff00
122200
13fe00
102000
2ffe00
604000
d00000
8ffe00
000000
ENDCHAR
STARTCHAR 3140
ENCODING 12608
SWIDTH 1000 0
DWIDTH 18 0
BBX 18 18 0 -2
BITMAP
000000
000000
07ff80
002000
1fff80
104080
174e80
208100
0e9c00
000000
3ffc00
000000
ffff00
101000
301000
21f800
7f0c00
000000
ENDCHAR
STARTCHAR 3141
ENCODING 12609
SWIDTH 1000 0
DWIDTH 18 0
BBX 18 18 0 -2
BITMAP
000000
008400
008400
1fffe0
010800
010800
020300
0c1c00
09f000
181000
702000
d7ff00
102000
204000
204000
27fc00
200000
000000
ENDCHAR
STARTCHAR 3142
ENCODING 12610
SWIDTH 1000 0
DWIDTH 18 0
BBX 18 18 0 -2
BITMAP
000000
010000
03bfe0
02c880
0cd100
1a1100
2f9f00
112200
1f2200
112200
3e7c00
204400
224400
448e00
5ff800
720800
c00800
000000
ENDCHAR
STARTCHAR 3143
ENCODING 12611
SWIDTH 1000 0
DWIDTH 18 0
BBX 18 18 0 -2
BITMAP
000000
010000
01efc0
010440
3fe880
202880
070d80
208a00
4e4a00
110e00
7f0800
c18800
7f1c00
822800
fe6c00
824400
fec600
000000
ENDCHAR
STARTCHAR 3144
ENCODING 12612
SWIDTH 1000 0
DWIDTH 18 0
BBX 18 18 0 -2
BITMAP
000000
044080
066180
022100
3fffc0
200040
27fe40
080400
080400
0ffc00
010000
020000
3ffc00
400800
400800
400800
7ff800
000000
ENDCHAR
STARTCHAR 3145
ENCODING 12613
SWIDTH 1000 0
DWIDTH 18 0
BBX 18 18 0 -2
BITMAP
000000
0fcfc0
084840
0fcfc0
109080
1f9f80
109080
3f3f00
121200
212100
020000
ffff00
041000
10c000
3f8000
03f000
fc1c00
000000
ENDCHAR
STARTCHAR 3146
ENCODING 12614
SWIDTH 1000 0
DWIDTH 18 0
BBX 18 18 0 -2
BITMAP
000000
000040
0fe0c0
082180
1fc600
104c00
1fc080
040300
7fc600
000c00
7f3000
410100
7f0300
100c00
921800
113000
306000
000000
ENDCHAR
STARTCHAR 3147
ENCODING 12615
SWIDTH 1000 0
DWIDTH 18 0
BBX 18 18 0 -2
BITMAP
000000
000400
000400
1f0400
22ff80
228880
228880
451100
7d1100
451100
8fff00
885000
88d800
f11000
031800
060c00
0c0600
000000
ENDCHAR
STARTCHAR 3148
ENCODING 12616
SWIDTH 1000 0
DWIDTH 18 0
BBX 18 18 0 -2
BITMAP
000000
002000
002000
0fffc0
104080
104080
1fff80
208100
208100
208100
7ffe00
010800
019800
016200
03c200
1e7200
f01e00
000000
ENDCHAR
STARTCHAR 3149
ENCODING 12617
SWIDTH 1000 0
DWIDTH 18 0
BBX 18 18 0 -2
BITMAP
000000
00c080
0c6180
062300
040400
1fff80
100080
208100
008000
7fff80
054000
0d6000
093000
323000
621800
c20e00
020000
000000
ENDCHAR
STARTCHAR 314a
ENCODING 12618
SWIDTH 1000 0
DWIDTH 18 0
BBX 18 18 0 -2
BITMAP
000000
00e000
003800
000800
000000
07e000
002180
004600
3e6c00
027800
0ca000
08b000
189800
611800
c10c00
810600
0f0000
000000
ENDCHAR
STARTCHAR 314b
ENCODING 12619
SWIDTH 1000 0
DWIDTH 18 0
BBX 18 18 0 -2
BITMAP
000000
007000
0c1c00
060400
040000
01f000
301080
303300
17b600
00bc00
015000
235800
224800
cc9800
988c00
b08600
038000
000000
ENDCHAR
STARTCHAR 314c
ENCODING 12620
SWIDTH 1000 0
DWIDTH 18 0
BBX 18 18 0 -2
BITMAP
000000
000800
0c0800
06ffc0
051080
011080
31ff80
322100
122100
03ff00
104000
106400
302c00
407000
c0e200
83ba00
9e0e00
000000
ENDCHAR
STARTCHAR 314d
ENCODING 12621
SWIDTH 1000 0
DWIDTH 18 0
BBX 18 18 0 -2
BITMAP
000000
001100
1f1100
04ffe0
082200
082200
080800
7dff00
111100
111100
222200
27ff00
205000
71b000
c31800
060c00
0c0600
000000
ENDCHAR
STARTCHAR 314e
ENCODING 12622
SWIDTH 1000 0
DWIDTH 18 0
BBX 18 18 0 -2
BITMAP
000000
000000
1ffe00
020200
040400
07f780
041080
1a4100
118100
366700
c00000
3ffc00
244400
488800
488800
fffe00
000000
000000
ENDCHAR
STARTCHAR 314f
ENCODING 12623
SWIDTH 1000 0
DWIDTH 18 0
BBX 18 18 0 -2
BITMAP
000000
080000
08dfe0
0f8200
101f80
105080
0fd080
003f00
072100
3c2100
087e00
ff4200
284200
5cfc00
d64800
90cc00
118600
000000
ENDCHAR
STARTCHAR 3150
ENCODING 12624
SWIDTH 1000 0
DWIDTH 18 0
BBX 18 18 0 -2
BITMAP
000000
080000
08dfe0
0f8200
101f80
105080
0fd080
003f00
3fa100
002100
fffe00
084200
2a4200
d6fc00
924800
90cc00
318600
000000
ENDCHAR
STARTCHAR 3151
ENCODING 12625
SWIDTH 1000 0
DWIDTH 18 0
BBX 18 18 0 -2
BITMAP
000000
010200
010200
1fffe0
020400
024400
004000
1ffe00
108200
108200
210400
ffff00
024000
0cc000
186000
703800
c00e00
000000
ENDCHAR
STARTCHAR 3152
ENCODING 12626
SWIDTH 1000 0
DWIDTH 18 0
BBX 18 18 0 -2
BITMAP
000000
022000
06fde0
0c4400
308800
03fc00
040000
1bf780
321100
73f100
204200
2ff200
224200
448400
7ff400
408400
408c00
000000
ENDCHAR
STARTCHAR 3153
ENCODING 12627
SWIDTH 1000 0
DWIDTH 18 0
BBX 18 18 0 -2
BITMAP
000000
001800
0f0e00
000200
3f0000
007800
1e0800
001100
01db00
3c5e00
00a800
00a800
79ac00
924800
964c00
9c4600
f1c000
000000
ENDCHAR
STARTCHAR 3154
ENCODING 12628
SWIDTH 1000 0
DWIDTH 18 0
BBX 18 18 0 -2
BITMAP
000000
021040
0718c0
058880
19bf80
10a080
3f2080
084100
084100
7f7f00
104800
944800
d44800
a19000
3d1200
e31200
060e00
000000
ENDCHAR
STARTCHAR 3155
ENCODING 12629
SWIDTH 1000 0
DWIDTH 18 0
BBX 18 18 0 -2
BITMAP
000000
000400
0c0400
06ffe0
042400
002400
306780
308900
119900
029500
116600
111400
311c00
421000
c23800
826c00
82c600
000000
ENDCHAR
STARTCHAR 3156
ENCODING 12630
SWIDTH 1000 0
DWIDTH 18 0
BBX 18 18 0 -2
BITMAP
000000
001000
001000
07ffe0
280000
18fc00
088400
130800
160f80
100000
6ffc00
a20c00
231800
c36000
81c000
877000
3c1e00
000000
ENDCHAR
STARTCHAR 3157
ENCODING 12631
SWIDTH 1000 0
DWIDTH 18 0
BBX 18 18 0 -2
BITMAP
000000
020100
030300
018600
010800
3fffc0
010800
061800
0c0c00
180600
e00700
1ff800
124800
249000
249000
249000
fffe00
000000
ENDCHAR
STARTCHAR 3158
ENCODING 12632
SWIDTH 1000 0
DWIDTH 18 0
BBX 18 18 0 -2
BITMAP
000000
000000
0ff7c0
090440
120880
1fc880
120880
241100
3f9f00
241400
482800
7fac00
00a400
554800
554c00
034400
068600
000000
ENDCHAR
STARTCHAR 3159
ENCODING 12633
SWIDTH 1000 0
DWIDTH 18 0
BBX 18 18 0 -2
BITMAP
000000
022040
0230c0
021080
047f80
164080
154080
2a8100
688100
48ff00
104800
104800
104800
219000
211200
231200
260e00
000000
ENDCHAR
STARTCHAR 315a
ENCODING 12634
SWIDTH 1000 0
DWIDTH 18 0
BBX 18 18 0 -2
BITMAP
000000
000000
0f3fc0
002040
3f7f80
004080
1e7f80
004000
007f80
3cc080
031900
01f100
790100
921200
91f600
900400
f01c00
000000
ENDCHAR
STARTCHAR 315b
ENCODING 12635
SWIDTH 1000 0
DWIDTH 18 0
BBX 18 18 0 -2
BITMAP
000000
020280
020240
0f8200
047fc0
044400
3fc480
088900
088b00
288a00
5d1c00
51c800
531d00
a06e00
e0c400
b80000
0ffe00
000000
ENDCHAR
STARTCHAR 315c
ENCODING 12636
SWIDTH 1000 0
DWIDTH 18 0
BBX 18 18 0 -2
BITMAP
000000
000000
0fcfc0
084840
1f9f80
109080
1f9f80
221100
212100
27f900
481200
481200
4ff200
848400
8c9400
b87400
800c00
000000
ENDCHAR
STARTCHAR 315d
ENCODING 12637
SWIDTH 1000 0
DWIDTH 18 0
BBX 18 18 0 -2
BITMAP
000000
020000
027fe0
020400
3f7f80
044080
047f80
1c8100
1aff00
1a8100
51fe00
504000
90fe00
270c00
219800
20f000
279e00
000000
ENDCHAR
STARTCHAR 315e
ENCODING 12638
SWIDTH 1000 0
DWIDTH 18 0
BBX 18 18 0 -2
BITMAP
000000
000000
0fffe0
080000
17c280
144240
17c200
28bf80
2f8400
200400
5f1c00
511400
5f1400
a22800
3e6c00
224400
26c600
000000
ENDCHAR
STARTCHAR 315f
ENCODING 12639
SWIDTH 1000 0
DWIDTH 18 0
BBX 18 18 0 -2
BITMAP
000000
000000
0fffc0
082040
104080
104080
104080
208100
208100
3fff00
400200
400200
400200
800400
800400
801c00
000000
000000
ENDCHAR
STARTCHAR 3160
ENCODING 12640
SWIDTH 1000 0
DWIDTH 18 0
BBX 18 18 0 -2
BITMAP
000000
000000
0fffc0
082040
13fc80
104080
17fe80
200100
27f900
240900
4ff200
434a00
453200
b23400
820400
fffc00
000000
000000
ENDCHAR
STARTCHAR 3161
ENCODING 12641
SWIDTH 1000 0
DWIDTH 18 0
BBX 18 18 0 -2
BITMAP
000000
040000
04ffe0
048000
093f00
092100
3f3f00
124200
127e00
121000
25fe00
244800
3cd800
c86000
0b9c00
080000
0ffe00
000000
ENDCHAR
STARTCHAR 3162
ENCODING 12642
SWIDTH 1000 0
DWIDTH 18 0
BBX 18 18 0 -2
BITMAP
000000
004000
004000
1fffe0
010800
024400
044200
1ffe00
708380
108200
3ffc00
210400
210400
7ff800
020200
030600
01fc00
000000
ENDCHAR
STARTCHAR 3163
ENCODING 12643
SWIDTH 1000 0
DWIDTH 18 0
BBX 18 18 0 -2
BITMAP
000000
002000
002000
0fffc0
100080
13fc80
020400
07f800
040800
07f800
020000
ffff00
041000
106000
3fc000
067000
781800
000000
ENDCHAR
STARTCHAR 3164
ENCODING 12644
SWIDTH 1000 0
DWIDTH 18 0
BBX 18 18 0 -2
BITMAP
000000
0000c0
1f8380
013e00
040400
080400
1e2400
044f00
044800
244800
689000
289000
389000
27fe00
700000
dc0000
87fe00
000000
ENDCHAR
STARTCHAR 3165
ENCODING 12645
SWIDTH 1000 0
DWIDTH 18 0
BBX 18 18 0 -2
BITMAP
000000
020000
03efc0
062840
08d080
1c9380
359000
062080
0c3180
181f00
e00000
018000
24c400
488c00
c81600
8c3200
87e000
000000
ENDCHAR
STARTCHAR 3166
ENCODING 12646
SWIDTH 1000 0
DWIDTH 18 0
BBX 18 18 0 -2
BITMAP
000000
041000
041000
05ffe0
084200
3e5200
089100
13ff00
152280
112200
3bfc00
e24400
224400
47f800
408200
40c600
c07c00
000000
ENDCHAR
STARTCHAR 3167
ENCODING 12647
SWIDTH 1000 0
DWIDTH 18 0
BBX 18 18 0 -2
BITMAP
000000
0401c0
04ff00
044840
3ed980
084900
08ff80
104000
13ff80
1c4000
e0fc00
218400
230c00
4db000
40e000
43b800
ce0e00
000000
ENDCHAR
STARTCHAR 3168
ENCODING 12648
SWIDTH 1000 0
DWIDTH 18 0
BBX 18 18 0 -2
BITMAP
000000
0c2100
062100
022100
00c300
008100
318180
360180
100000
01fe00
120400
120400
320400
440800
c40800
840800
87f800
000000
ENDCHAR
STARTCHAR 3169
ENCODING 12649
SWIDTH 1000 0
DWIDTH 18 0
BBX 18 18 0 -2
BITMAP
000000
000400
0c0400
06ffe0
050040
017f40
300800
31ff00
111100
011100
13fe00
122200
322200
47fc00
c20800
860c00
8c0600
000000
ENDCHAR
STARTCHAR 316a
ENCODING 12650
SWIDTH 1000 0
DWIDTH 18 0
BBX 18 18 0 -2
BITMAP
000000
002000
022080
022180
0ce600
08b000
019800
0e1c00
388700
008200
110c00
339800
62c000
0cc000
186000
703800
c00e00
000000
ENDCHAR
STARTCHAR 316b
ENCODING 12651
SWIDTH 1000 0
DWIDTH 18 0
BBX 18 18 0 -2
BITMAP
000000
020400
020400
020fc0
049080
15b180
156300
280400
689f80
489080
112100
392100
293f00
5a4200
ca4200
824200
827e00
000000
ENDCHAR
STARTCHAR 316c
ENCODING 12652
SWIDTH 1000 0
DWIDTH 18 0
BBX 18 18 0 -2
BITMAP
000000
020000
027fe0
020a00
051400
157f80
155480
28a900
68a900
48ff00
102000
382000
29fe00
584000
c84000
87fe00
800000
000000
ENDCHAR
STARTCHAR 316d
ENCODING 12653
SWIDTH 1000 0
DWIDTH 18 0
BBX 18 18 0 -2
BITMAP
000000
008400
008400
1fffe0
010800
01f800
040240
79e500
092600
092400
124900
73c900
d00f00
000000
488800
cccc00
844600
000000
ENDCHAR
STARTCHAR 316e
ENCODING 12654
SWIDTH 1000 0
DWIDTH 18 0
BBX 18 18 0 -2
BITMAP
000000
010400
110400
0a7fc0
080800
09ffc0
140000
49ff00
090100
190100
53fe00
909100
119b00
2e1400
221800
63cc00
ce0600
000000
ENDCHAR
STARTCHAR 316f
ENCODING 12655
SWIDTH 1000 0
DWIDTH 18 0
BBX 18 18 0 -2
BITMAP
000000
020000
063f80
0c0080
317f00
1b0100
06ffc0
182000
325100
7e9a00
145800
109000
553800
a8a800
a92400
222200
20c000
000000
ENDCHAR
STARTCHAR 3170
ENCODING 12656
SWIDTH 1000 0
DWIDTH 18 0
BBX 18 18 0 -2
BITMAP
000000
028400
0fe7c0
0aa440
1fd980
157100
1fdfc0
002480
7fe480
002480
7f7f00
414000
7f4000
448000
6c8200
288200
ff7e00
000000
ENDCHAR
STARTCHAR 3171
ENCODING 12657
SWIDTH 1000 0
DWIDTH 18 0
BBX 18 18 0 -2
BITMAP
000000
008400
008400
1fffe0
010800
010800
040000
0fbf00
18a100
11a100
7a4200
ce4200
044e00
188000
308200
60c600
c07c00
000000
ENDCHAR
STARTCHAR 3172
ENCODING 12658
SWIDTH 1000 0
DWIDTH 18 0
BBX 18 18 0 -2
BITMAP
000000
008400
1fffe0
008400
1fff80
104080
13fc80
208100
2ffd00
200100
4ff200
481200
4ff200
863400
bbc400
823400
fffc00
000000
ENDCHAR
STARTCHAR 3173
ENCODING 12659
SWIDTH 1000 0
DWIDTH 18 0
BBX 18 18 0 -2
BITMAP
000000
000400
0c0400
067fc0
040800
01ffc0
000000
01ff00
790100
09ff00
106300
10e600
11b800
2e5c00
604600
d04000
8ffe00
000000
ENDCHAR
STARTCHAR 3174
ENCODING 12660
SWIDTH 1000 0
DWIDTH 18 0
BBX 18 18 0 -2
BITMAP
000000
020480
070480
058480
199980
109080
3f30c0
084080
080000
7f3f00
104200
944200
d44200
a08400
3c8400
e08400
80fc00
000000
ENDCHAR
STARTCHAR 3175
ENCODING 12661
SWIDTH 1000 0
DWIDTH 18 0
BBX 18 18 0 -2
BITMAP
000000
020f80
07e880
1c4820
051fc0
064000
3ffe00
080400
0ffc00
080400
1ff800
100000
1fff00
200000
bffc00
924400
092c00
000000
ENDCHAR
STARTCHAR 3176
ENCODING 12662
SWIDTH 1000 0
DWIDTH 18 0
BBX 18 18 0 -2
BITMAP
000000
004000
044000
04ffc0
0b0000
08ff00
3e8100
110200
11fe00
100000
27fe00
249200
3c9200
c92400
092400
092400
1ffe00
000000
ENDCHAR
STARTCHAR 3177
ENCODING 12663
SWIDTH 1000 0
DWIDTH 18 0
BBX 18 18 0 -2
BITMAP
000000
020200
020200
020700
3fca00
041b00
041100
0f6300
09d980
090c00
120c00
320400
226000
4c6000
c83000
881800
980800
000000
ENDCHAR
STARTCHAR 3178
ENCODING 12664
SWIDTH 1000 0
DWIDTH 18 0
BBX 18 18 0 -2
BITMAP
000000
0c0000
06ffc0
021000
002000
002000
33ffc0
308000
108000
008000
13fe00
100200
300200
400400
c00c00
800800
807800
000000
ENDCHAR
STARTCHAR 3179
ENCODING 12665
SWIDTH 1000 0
DWIDTH 18 0
BBX 18 18 0 -2
BITMAP
000000
020000
023fc0
0a2440
144880
1f7f80
344880
489100
08ff00
3e1000
13ff00
102100
106100
388200
e18600
830400
0e1c00
000000
ENDCHAR
STARTCHAR 317a
ENCODING 12666
SWIDTH 1000 0
DWIDTH 18 0
BBX 18 18 0 -2
BITMAP
000000
000000
0f87c0
088440
110880
110880
110880
221100
221100
23f100
400200
400200
400200
800400
800400
fffc00
000000
000000
ENDCHAR
STARTCHAR 317b
ENCODING 12667
SWIDTH 1000 0
DWIDTH 18 0
BBX 18 18 0 -2
BITMAP
000000
002000
002000
002000
0fff00
084100
084100
108200
108200
108200
ffff00
028000
06c000
08c000
186000
703800
c00e00
000000
ENDCHAR
STARTCHAR 317c
ENCODING 12668
SWIDTH 1000 0
DWIDTH 18 0
BBX 18 18 0 -2
BITMAP
000000
002000
004000
07ff80
080100
0a4900
095100
17fa00
11c200
12a200
293400
210400
220400
fffe00
0cc000
387000
e01c00
000000
ENDCHAR
STARTCHAR 317d
ENCODING 12669
SWIDTH 1000 0
DWIDTH 18 0
BBX 18 18 0 -2
BITMAP
000000
011800
030c00
060400
18ff80
320800
060800
181000
301000
71ff00
202000
202000
202000
404000
404000
4ffe00
400000
000000
ENDCHAR
STARTCHAR 317e
ENCODING 12670
SWIDTH 1000 0
DWIDTH 18 0
BBX 18 18 0 -2
BITMAP
000000
001000
001000
07ffe0
080000
083000
081800
109800
108800
128000
250400
250600
2d0300
d20200
920800
831800
01f000
000000
ENDCHAR
STARTCHAR 3221
ENCODING 12833
SWIDTH 1000 0
DWIDTH 18 0
BBX 18 18 0 -2
BITMAP
000000
040000
047fc0
044440
088880
3e8880
08ff80
111100
111100
111100
3a2200
e3fe00
202000
404000
404000
404000
c04000
000000
ENDCHAR
STARTCHAR 3222
ENCODING 12834
SWIDTH 1000 0
DWIDTH 18 0
BBX 18 18 0 -2
BITMAP
000000
000000
1f7fc0
110400
220800
220800
220800
7c1000
45ff00
441000
882000
882000
882000
f04000
004000
0ffe00
000000
000000
ENDCHAR
STARTCHAR 3223
ENCODING 12835
SWIDTH 1000 0
DWIDTH 18 0
BBX 18 18 0 -2
BITMAP
000000
021100
027fc0
021100
3f2200
05ffc0
040800
1dff00
1b1100
191100
53fe00
522200
922200
27fc00
220800
260c00
2c0600
000000
ENDCHAR
STARTCHAR 3224
ENCODING 12836
SWIDTH 1000 0
DWIDTH 18 0
BBX 18 18 0 -2
BITMAP
000000
000800
0fc800
080800
101fc0
153040
1524c0
24c900
240800
240800
483800
542800
542800
80d800
808800
fd8c00
030600
000000
ENDCHAR
STARTCHAR 3225
ENCODING 12837
SWIDTH 1000 0
DWIDTH 18 0
BBX 18 18 0 -2
BITMAP
000000
000000
0fcf80
080880
101100
153100
1561c0
240000
247f00
242100
546600
542c00
403800
802000
fc7000
00d800
038e00
000000
ENDCHAR
STARTCHAR 3226
ENCODING 12838
SWIDTH 1000 0
DWIDTH 18 0
BBX 18 18 0 -2
BITMAP
000000
000000
0fffc0
002000
004000
004000
004000
008000
1ffe00
008000
010000
010000
010000
020000
020000
fffe00
000000
000000
ENDCHAR
STARTCHAR 3227
ENCODING 12839
SWIDTH 1000 0
DWIDTH 18 0
BBX 18 18 0 -2
BITMAP
000000
008400
018600
074380
3981c0
010400
03fe00
1c0600
000000
7f7f00
222200
121200
0e0e00
747400
c5c400
040400
1c1c00
000000
ENDCHAR
STARTCHAR 3228
ENCODING 12840
SWIDTH 1000 0
DWIDTH 18 0
BBX 18 18 0 -2
BITMAP
000000
040400
040800
047fc0
3e8080
02aa80
068880
097d00
193900
355500
f22200
2a4200
27ff00
40a000
41b000
431800
4e0e00
000000
ENDCHAR
STARTCHAR 3229
ENCODING 12841
SWIDTH 1000 0
DWIDTH 18 0
BBX 18 18 0 -2
BITMAP
000000
044080
022100
1fffe0
204040
27fe40
040200
0ffc00
080400
0ffc00
100000
1fff00
100000
3ffc00
924400
892400
000c00
000000
ENDCHAR
STARTCHAR 322a
ENCODING 12842
SWIDTH 1000 0
DWIDTH 18 0
BBX 18 18 0 -2
BITMAP
000000
000400
1f8800
103f80
204100
2a7f00
2a4100
48fe00
488000
48ff80
a90000
a9fe00
800200
055400
f55400
080c00
001800
000000
ENDCHAR
STARTCHAR 322b
ENCODING 12843
SWIDTH 1000 0
DWIDTH 18 0
BBX 18 18 0 -2
BITMAP
000000
008400
008400
0fffc0
010800
010800
3fffc0
008000
0ffc00
088400
110800
1ff800
110800
221000
3ff000
102000
e01c00
000000
ENDCHAR
STARTCHAR 322c
ENCODING 12844
SWIDTH 1000 0
DWIDTH 18 0
BBX 18 18 0 -2
BITMAP
000000
000000
0fffc0
090240
110880
110880
17fe80
208100
208100
248900
491200
491200
491200
9fe400
800400
800400
801c00
000000
ENDCHAR
STARTCHAR 322d
ENCODING 12845
SWIDTH 1000 0
DWIDTH 18 0
BBX 18 18 0 -2
BITMAP
000000
000400
0c0400
060400
040800
01ffc0
310840
321080
121080
021080
142100
17ff00
302000
404000
c04000
804000
804000
000000
ENDCHAR
STARTCHAR 322e
ENCODING 12846
SWIDTH 1000 0
DWIDTH 18 0
BBX 18 18 0 -2
BITMAP
000000
008400
008400
1fffe0
010800
000000
220800
281080
109180
289300
932400
327000
505000
21b000
231800
660c00
cc0600
000000
ENDCHAR
STARTCHAR 322f
ENCODING 12847
SWIDTH 1000 0
DWIDTH 18 0
BBX 18 18 0 -2
BITMAP
000000
020800
020800
06ffc0
084200
082400
1bffc0
300000
51fe00
110200
23fc00
220400
23fc00
408000
4a4400
4a1200
51f000
000000
ENDCHAR
STARTCHAR 3230
ENCODING 12848
SWIDTH 1000 0
DWIDTH 18 0
BBX 18 18 0 -2
BITMAP
000000
000000
07ffc0
040040
080080
0fff80
080000
17ff00
110000
110200
247e00
2fc200
204000
cff800
808000
808000
3ffe00
000000
ENDCHAR
STARTCHAR 3231
ENCODING 12849
SWIDTH 1000 0
DWIDTH 18 0
BBX 18 18 0 -2
BITMAP
000000
040800
040800
04ffc0
084200
2c2400
2bffc0
540000
51fe00
110200
23fc00
220400
23fc00
408000
4a4400
4a1200
51f000
000000
ENDCHAR
STARTCHAR 3232
ENCODING 12850
SWIDTH 1000 0
DWIDTH 18 0
BBX 18 18 0 -2
BITMAP
000000
000400
0f0400
097fc0
124100
122200
1fffc0
240000
24fe00
248200
79fc00
490400
49fc00
904000
92a400
928a00
347800
000000
ENDCHAR
STARTCHAR 3233
ENCODING 12851
SWIDTH 1000 0
DWIDTH 18 0
BBX 18 18 0 -2
BITMAP
000000
020000
027fc0
020080
3f3200
040c00
04ff80
1d1100
1b1100
29ff00
522200
922200
13fe00
244400
244400
244400
244c00
000000
ENDCHAR
STARTCHAR 3234
ENCODING 12852
SWIDTH 1000 0
DWIDTH 18 0
BBX 18 18 0 -2
BITMAP
000000
020400
0a0400
0a0400
140800
1f0800
347f80
481000
081000
081000
1c2000
f02000
102000
204000
204000
27fe00
200000
000000
ENDCHAR
STARTCHAR 3235
ENCODING 12853
SWIDTH 1000 0
DWIDTH 18 0
BBX 18 18 0 -2
BITMAP
000000
000000
0fff00
000600
001800
003000
006000
018000
030000
060000
180000
300200
600200
800c00
c00800
7ff800
000000
000000
ENDCHAR
STARTCHAR 3236
ENCODING 12854
SWIDTH 1000 0
DWIDTH 18 0
BBX 18 18 0 -2
BITMAP
000000
021000
021000
07ffe0
084400
085400
189200
33fe00
562300
1a2280
27fc00
244400
244400
4ff800
408200
40c600
407c00
000000
ENDCHAR
STARTCHAR 3237
ENCODING 12855
SWIDTH 1000 0
DWIDTH 18 0
BBX 18 18 0 -2
BITMAP
000000
040000
040fc0
0fe840
121080
221080
021080
7fa100
042100
242100
4f4200
484200
484200
9e9c00
f08000
808000
008000
000000
ENDCHAR
STARTCHAR 3238
ENCODING 12856
SWIDTH 1000 0
DWIDTH 18 0
BBX 18 18 0 -2
BITMAP
000000
000000
07ff80
042080
084100
0bfd00
089100
121200
140a00
100200
3ffc00
008000
24c600
488600
c81200
8c3000
87e000
000000
ENDCHAR
STARTCHAR 3239
ENCODING 12857
SWIDTH 1000 0
DWIDTH 18 0
BBX 18 18 0 -2
BITMAP
000000
000000
0c7f80
064080
048100
00ff00
308100
310200
11fe00
000000
17fe00
149200
349200
492400
c92400
892400
9ffe00
000000
ENDCHAR
STARTCHAR 323a
ENCODING 12858
SWIDTH 1000 0
DWIDTH 18 0
BBX 18 18 0 -2
BITMAP
000000
0180c0
070780
1cfc40
089180
084900
3eff80
100100
19ff00
140100
6bfe00
600000
a02000
456400
452600
4d0a00
48f800
000000
ENDCHAR
STARTCHAR 323b
ENCODING 12859
SWIDTH 1000 0
DWIDTH 18 0
BBX 18 18 0 -2
BITMAP
000000
002000
002000
0fffc0
020400
030c00
010800
7fff80
000000
0ffc00
100800
100800
1ff800
201000
201000
201000
3ff000
000000
ENDCHAR
STARTCHAR 323c
ENCODING 12860
SWIDTH 1000 0
DWIDTH 18 0
BBX 18 18 0 -2
BITMAP
000000
000000
1fffe0
002000
004000
004000
007000
00b000
009800
008c00
010800
010000
010000
020000
020000
020000
020000
000000
ENDCHAR
STARTCHAR 323d
ENCODING 12861
SWIDTH 1000 0
DWIDTH 18 0
BBX 18 18 0 -2
BITMAP
000000
008800
008800
018800
021080
061180
041700
183800
382000
682000
104000
104000
104100
208200
208600
20c400
207c00
000000
ENDCHAR
STARTCHAR 323e
ENCODING 12862
SWIDTH 1000 0
DWIDTH 18 0
BBX 18 18 0 -2
BITMAP
000000
010000
017fc0
034000
048000
0c8000
08ff00
314200
514600
116400
225800
227000
262000
48e000
59b000
431800
460e00
000000
ENDCHAR
STARTCHAR 323f
ENCODING 12863
SWIDTH 1000 0
DWIDTH 18 0
BBX 18 18 0 -2
BITMAP
000000
010000
010000
03ffe0
040100
0c0100
08f100
312200
512200
112200
224400
224400
23c400
400800
400800
400800
403800
000000
ENDCHAR
STARTCHAR 3240
ENCODING 12864
SWIDTH 1000 0
DWIDTH 18 0
BBX 18 18 0 -2
BITMAP
000000
024000
024000
0243c0
0c8480
0bf480
189480
312900
512900
112900
225200
225200
265200
48a400
49a400
593c00
530000
000000
ENDCHAR
STARTCHAR 3241
ENCODING 12865
SWIDTH 1000 0
DWIDTH 18 0
BBX 18 18 0 -2
BITMAP
000000
010000
010000
03ffe0
042400
0c2400
082400
33ff00
524900
124900
249200
249200
249200
492400
492400
4ffc00
400000
000000
ENDCHAR
STARTCHAR 3242
ENCODING 12866
SWIDTH 1000 0
DWIDTH 18 0
BBX 18 18 0 -2
BITMAP
000000
010400
010400
037fc0
040800
0c0800
080800
33ff80
500000
101000
202000
23fe00
202000
404000
404000
4ffe00
400000
000000
ENDCHAR
STARTCHAR 3243
ENCODING 12867
SWIDTH 1000 0
DWIDTH 18 0
BBX 18 18 0 -2
BITMAP
000000
020000
020000
0207c0
040880
3fc880
044880
089100
089100
089100
112200
312200
212200
464400
c44400
847c00
8c0000
000000
ENDCHAR
STARTCHAR 3244
ENCODING 12868
SWIDTH 1000 0
DWIDTH 18 0
BBX 18 18 0 -2
BITMAP
000000
000000
1fffe0
000100
000200
07e200
042200
084400
084400
084400
108800
1f8800
000800
001000
001000
001000
007000
000000
ENDCHAR
STARTCHAR 3245
ENCODING 12869
SWIDTH 1000 0
DWIDTH 18 0
BBX 18 18 0 -2
BITMAP
000000
002000
002000
1fffe0
004000
1fff80
000000
0ffc00
080400
0ffc00
042000
ffff00
100000
fcfc00
248400
448400
9cfc00
000000
ENDCHAR
STARTCHAR 3246
ENCODING 12870
SWIDTH 1000 0
DWIDTH 18 0
BBX 18 18 0 -2
BITMAP
000000
000000
1fffe0
002000
07fe00
040200
07fe00
080400
0ffc00
080400
1ff800
040000
0ff800
302000
c84000
078000
f87e00
000000
ENDCHAR
STARTCHAR 3247
ENCODING 12871
SWIDTH 1000 0
DWIDTH 18 0
BBX 18 18 0 -2
BITMAP
000000
040400
040400
047fc0
3e8080
0a0000
0a7f00
142000
345100
259300
505400
f09000
133800
50a800
512c00
862600
00c000
000000
ENDCHAR
STARTCHAR 3248
ENCODING 12872
SWIDTH 1000 0
DWIDTH 18 0
BBX 18 18 0 -2
BITMAP
000000
002000
002000
0fffc0
100080
100080
07fe00
010000
068300
38c600
069800
1cc000
71e000
0d6000
393800
e30e00
0e0000
000000
ENDCHAR
STARTCHAR 3249
ENCODING 12873
SWIDTH 1000 0
DWIDTH 18 0
BBX 18 18 0 -2
BITMAP
000000
002000
1fffe0
100020
2fff40
004000
07fe00
080400
0ffc00
080400
1ff800
100800
ffff00
400800
bff600
081000
707000
000000
ENDCHAR
STARTCHAR 324a
ENCODING 12874
SWIDTH 1000 0
DWIDTH 18 0
BBX 18 18 0 -2
BITMAP
000000
00c080
039880
1e0c80
040900
040100
3f8100
086200
083200
1c1200
340400
520700
503c00
23c800
200800
200800
200800
000000
ENDCHAR
STARTCHAR 324b
ENCODING 12875
SWIDTH 1000 0
DWIDTH 18 0
BBX 18 18 0 -2
BITMAP
000000
000000
00f7c0
1e9040
252080
252080
25ef80
4a0000
7a3f00
4bd100
943600
941400
941c00
ef1000
083800
086c00
08c600
000000
ENDCHAR
STARTCHAR 324c
ENCODING 12876
SWIDTH 1000 0
DWIDTH 18 0
BBX 18 18 0 -2
BITMAP
000000
000000
07ff80
042080
084100
0fff00
084100
108200
1ffe00
008000
ffff00
052000
0d3000
323000
621800
c20e00
020000
000000
ENDCHAR
STARTCHAR 324d
ENCODING 12877
SWIDTH 1000 0
DWIDTH 18 0
BBX 18 18 0 -2
BITMAP
000000
020000
0207c0
1fe440
044880
044880
0c4880
109100
339f00
600000
010000
ffff00
052000
1a6000
723800
c20e00
020000
000000
ENDCHAR
STARTCHAR 324e
ENCODING 12878
SWIDTH 1000 0
DWIDTH 18 0
BBX 18 18 0 -2
BITMAP
000000
000800
1fe800
008800
1d1fc0
153040
1d24c0
02c900
060800
000800
ff3800
042800
742800
a8d800
e88800
098c00
1b0600
000000
ENDCHAR
STARTCHAR 324f
ENCODING 12879
SWIDTH 1000 0
DWIDTH 18 0
BBX 18 18 0 -2
BITMAP
000000
0c0000
06ffe0
020080
000100
00f100
309100
312200
112200
012200
124400
13c400
300400
400800
c00800
800800
803800
000000
ENDCHAR
STARTCHAR 3250
ENCODING 12880
SWIDTH 1000 0
DWIDTH 18 0
BBX 18 18 0 -2
BITMAP
000000
002000
002000
002040
044180
044100
044300
188c00
108800
31c000
028000
06c000
046000
186000
303000
601800
c00e00
000000
ENDCHAR
STARTCHAR 3251
ENCODING 12881
SWIDTH 1000 0
DWIDTH 18 0
BBX 18 18 0 -2
BITMAP
000000
000000
1f7fe0
040080
080100
087900
084900
7c9200
109200
109200
212400
21e400
200400
700800
c00800
000800
003800
000000
ENDCHAR
STARTCHAR 3252
ENCODING 12882
SWIDTH 1000 0
DWIDTH 18 0
BBX 18 18 0 -2
BITMAP
000000
020000
021f80
021080
3f2f00
012900
032900
045200
0cff00
188100
7d7a00
d74a00
114a00
229400
22f400
220400
220c00
000000
ENDCHAR
STARTCHAR 3253
ENCODING 12883
SWIDTH 1000 0
DWIDTH 18 0
BBX 18 18 0 -2
BITMAP
000000
000300
003e00
07e000
004000
004000
004000
7fff80
029000
069800
091000
191800
310c00
c20c00
820600
020000
020000
000000
ENDCHAR
STARTCHAR 3254
ENCODING 12884
SWIDTH 1000 0
DWIDTH 18 0
BBX 18 18 0 -2
BITMAP
000000
008400
038400
1e7fc0
048080
040000
3f7f00
082000
085100
1c9300
345400
509000
533800
20b800
212c00
262600
20c000
000000
ENDCHAR
STARTCHAR 3255
ENCODING 12885
SWIDTH 1000 0
DWIDTH 18 0
BBX 18 18 0 -2
BITMAP
000000
040400
040400
0fefe0
122400
210200
1fff80
208100
2ffd00
208100
410200
4ff200
481200
902400
9fe400
800400
fffc00
000000
ENDCHAR
STARTCHAR 3256
ENCODING 12886
SWIDTH 1000 0
DWIDTH 18 0
BBX 18 18 0 -2
BITMAP
000000
008400
008400
1fffe0
010800
010800
021000
042000
082300
182e00
507000
904000
104000
208000
208200
20c600
207c00
000000
ENDCHAR
STARTCHAR 3257
ENCODING 12887
SWIDTH 1000 0
DWIDTH 18 0
BBX 18 18 0 -2
BITMAP
000000
008400
008400
1fffe0
010800
010800
000000
7fff80
000400
0fc400
108800
108800
108800
3f1000
001000
001000
007000
000000
ENDCHAR
STARTCHAR 3258
ENCODING 12888
SWIDTH 1000 0
DWIDTH 18 0
BBX 18 18 0 -2
BITMAP
000000
008400
008400
1fffe0
010800
010800
040000
081f00
7f9100
089100
112200
312200
212200
464400
c44400
847c00
9c0000
000000
ENDCHAR
STARTCHAR 3259
ENCODING 12889
SWIDTH 1000 0
DWIDTH 18 0
BBX 18 18 0 -2
BITMAP
000000
008400
008400
1fffe0
010800
010800
040000
0bff80
100400
11e400
624800
a24800
224800
479000
401000
401000
407000
000000
ENDCHAR
STARTCHAR 325a
ENCODING 12890
SWIDTH 1000 0
DWIDTH 18 0
BBX 18 18 0 -2
BITMAP
000000
008400
008400
1fffe0
010800
1fff80
044200
088400
7fff80
088400
110800
7ffe00
010000
020000
fffc00
020000
020000
000000
ENDCHAR
STARTCHAR 325b
ENCODING 12891
SWIDTH 1000 0
DWIDTH 18 0
BBX 18 18 0 -2
BITMAP
000000
008400
008400
1fffe0
010800
0fff00
084100
1ffe00
108200
1ffe00
010000
ffff00
052000
1a6000
723800
c20e00
020000
000000
ENDCHAR
STARTCHAR 325c
ENCODING 12892
SWIDTH 1000 0
DWIDTH 18 0
BBX 18 18 0 -2
BITMAP
000000
000000
047bc0
044840
089080
3e9080
2af780
550000
551f00
55e900
fa1600
221400
2bdc00
541000
f43800
946c00
04c600
000000
ENDCHAR
STARTCHAR 325d
ENCODING 12893
SWIDTH 1000 0
DWIDTH 18 0
BBX 18 18 0 -2
BITMAP
000000
000000
0f3fc0
002440
3f4880
007f80
1e4880
009100
00ff00
3c1000
03ff00
00a800
78ac00
934800
924c00
964600
f04000
000000
ENDCHAR
STARTCHAR 325e
ENCODING 12894
SWIDTH 1000 0
DWIDTH 18 0
BBX 18 18 0 -2
BITMAP
000000
001100
001100
1effe0
242200
24ff80
244900
489200
4bff80
489200
912400
93fe00
f02000
004000
0ffe00
004000
004000
000000
ENDCHAR
STARTCHAR 325f
ENCODING 12895
SWIDTH 1000 0
DWIDTH 18 0
BBX 18 18 0 -2
BITMAP
000000
008800
0188c0
070f80
3a1000
021080
020f80
000000
0ffc00
080400
1ff800
100800
1ff800
201000
3ff000
102000
e01c00
000000
ENDCHAR
STARTCHAR 3260
ENCODING 12896
SWIDTH 1000 0
DWIDTH 18 0
BBX 18 18 0 -2
BITMAP
000000
004000
184000
0c43c0
0bf480
009480
009480
012900
712900
112900
265200
245200
24d200
593c00
c30000
a00000
9ffe00
000000
ENDCHAR
STARTCHAR 3261
ENCODING 12897
SWIDTH 1000 0
DWIDTH 18 0
BBX 18 18 0 -2
BITMAP
000000
007f80
0c4080
064f80
049100
009100
009100
03ff00
720100
12fd00
250a00
250a00
25fa00
480400
c80c00
a00000
9ffe00
000000
ENDCHAR
STARTCHAR 3262
ENCODING 12898
SWIDTH 1000 0
DWIDTH 18 0
BBX 18 18 0 -2
BITMAP
000000
0fffc0
002000
1fffe0
204040
2f4f40
004000
1e9e00
000000
3f7f00
420200
7efe00
400000
f9fc00
808800
f87000
838e00
000000
ENDCHAR
STARTCHAR 3263
ENCODING 12899
SWIDTH 1000 0
DWIDTH 18 0
BBX 18 18 0 -2
BITMAP
000000
020200
020200
020200
3fffc0
249100
249100
492200
493600
491400
fe3800
101000
143800
285000
3cd800
e58c00
830600
000000
ENDCHAR
STARTCHAR 3264
ENCODING 12900
SWIDTH 1000 0
DWIDTH 18 0
BBX 18 18 0 -2
BITMAP
000000
021a80
0232c0
06e240
084400
084400
1bffc0
308800
508900
108900
21d600
2f1400
211c00
421200
423a00
426e00
4ec400
000000
ENDCHAR
STARTCHAR 3265
ENCODING 12901
SWIDTH 1000 0
DWIDTH 18 0
BBX 18 18 0 -2
BITMAP
000000
041a80
0432c0
04e240
084400
2a4400
2bffc0
548800
548900
548900
a9d600
af1400
a91c00
f21200
023a00
026e00
0ec400
000000
ENDCHAR
STARTCHAR 3266
ENCODING 12902
SWIDTH 1000 0
DWIDTH 18 0
BBX 18 18 0 -2
BITMAP
000000
006800
01c980
0f08c0
021080
021000
3fffc0
042000
042100
043300
0f2c00
f83800
081000
107200
10da00
118e00
770400
000000
ENDCHAR
STARTCHAR 3267
ENCODING 12903
SWIDTH 1000 0
DWIDTH 18 0
BBX 18 18 0 -2
BITMAP
000000
000000
0fffc0
010200
020400
020400
020400
040800
7fff80
004800
019000
031000
061000
182000
702000
c02000
00e000
000000
ENDCHAR
STARTCHAR 3268
ENCODING 12904
SWIDTH 1000 0
DWIDTH 18 0
BBX 18 18 0 -2
BITMAP
000000
000000
1fffe0
002000
004000
13fc80
124480
248900
248900
27f900
491200
491200
491200
9fe400
800400
fffc00
000000
000000
ENDCHAR
STARTCHAR 3269
ENCODING 12905
SWIDTH 1000 0
DWIDTH 18 0
BBX 18 18 0 -2
BITMAP
000000
000200
0fe200
090200
120400
120400
1fc400
208800
209c00
209400
7f2800
482800
486c00
908800
908800
ff8c00
010600
000000
ENDCHAR
STARTCHAR 326a
ENCODING 12906
SWIDTH 1000 0
DWIDTH 18 0
BBX 18 18 0 -2
BITMAP
000000
008400
008400
1fffe0
010800
000000
1fff80
040800
040800
040800
ffff00
00d000
019000
0e2000
382000
e02000
00e000
000000
ENDCHAR
STARTCHAR 326b
ENCODING 12907
SWIDTH 1000 0
DWIDTH 18 0
BBX 18 18 0 -2
BITMAP
000000
040a80
0412c0
047240
3e2400
2a2400
2affc0
544800
544900
7c4900
20d400
239400
289800
511200
f11a00
912e00
074400
000000
ENDCHAR
STARTCHAR 326c
ENCODING 12908
SWIDTH 1000 0
DWIDTH 18 0
BBX 18 18 0 -2
BITMAP
000000
020000
020fc0
1fe840
045080
0c5080
19df80
600000
0ffc00
080400
1ff800
100800
1ff800
201000
3ff000
102000
e01c00
000000
ENDCHAR
STARTCHAR 326d
ENCODING 12909
SWIDTH 1000 0
DWIDTH 18 0
BBX 18 18 0 -2
BITMAP
000000
000440
0fc4c0
048480
091fc0
093200
095200
122400
7fbf00
0a2400
144800
144800
347e00
489000
c89000
889000
38fe00
000000
ENDCHAR
STARTCHAR 326e
ENCODING 12910
SWIDTH 1000 0
DWIDTH 18 0
BBX 18 18 0 -2
BITMAP
000000
020540
070920
05b920
191200
341200
1f7fc0
222400
3e2480
222480
7c6a00
41ca00
484c00
908a00
b88a00
e89600
83a200
000000
ENDCHAR
STARTCHAR 326f
ENCODING 12911
SWIDTH 1000 0
DWIDTH 18 0
BBX 18 18 0 -2
BITMAP
000000
020000
1fefe0
022820
0c5040
19dfc0
300000
0ffe00
084000
0ffc00
108000
1ff800
108000
3ffc00
924400
892400
000c00
000000
ENDCHAR
STARTCHAR 3270
ENCODING 12912
SWIDTH 1000 0
DWIDTH 18 0
BBX 18 18 0 -2
BITMAP
000000
002000
007000
00d800
031800
060c00
0e0700
740b80
040800
040800
081000
081000
081000
302000
202000
602000
c02000
000000
ENDCHAR
STARTCHAR 3271
ENCODING 12913
SWIDTH 1000 0
DWIDTH 18 0
BBX 18 18 0 -2
BITMAP
000000
002000
007000
00d800
031c00
0e0700
3801c0
0ffc00
000000
000000
ffff00
040000
041000
182000
11f000
3f1800
e00c00
000000
ENDCHAR
STARTCHAR 3272
ENCODING 12914
SWIDTH 1000 0
DWIDTH 18 0
BBX 18 18 0 -2
BITMAP
000000
040000
07dfc0
0c4440
110880
3fd880
127380
248000
3f9400
249400
497e00
7f4800
410800
83fe00
821000
821000
0e1000
000000
ENDCHAR
STARTCHAR 3273
ENCODING 12915
SWIDTH 1000 0
DWIDTH 18 0
BBX 18 18 0 -2
BITMAP
000000
000000
0fffc0
080040
100080
100080
11f880
221100
221100
221100
442200
47e200
400200
800400
800400
fffc00
000000
000000
ENDCHAR
STARTCHAR 3274
ENCODING 12916
SWIDTH 1000 0
DWIDTH 18 0
BBX 18 18 0 -2
BITMAP
000000
040400
040800
047fc0
088880
3e8880
08ff80
111100
111100
11ff00
209000
389400
609500
833e00
022000
062200
1c1e00
000000
ENDCHAR
STARTCHAR 3275
ENCODING 12917
SWIDTH 1000 0
DWIDTH 18 0
BBX 18 18 0 -2
BITMAP
000000
040400
040400
04ffe0
080800
3eff80
08a480
114900
11ff00
101000
27ff00
389000
619900
861400
1a1800
03cc00
0e0600
000000
ENDCHAR
STARTCHAR 3276
ENCODING 12918
SWIDTH 1000 0
DWIDTH 18 0
BBX 18 18 0 -2
BITMAP
000000
000000
1fbfc0
012040
044080
085e80
1e5280
04a500
04a500
24a500
697a00
290200
390200
23fc00
700000
dc0000
87fe00
000000
ENDCHAR
STARTCHAR 3277
ENCODING 12919
SWIDTH 1000 0
DWIDTH 18 0
BBX 18 18 0 -2
BITMAP
000000
020800
020800
020800
04ff00
161100
151100
2a2200
682200
4bff80
10a000
10a000
10b000
232000
223000
261800
2c0e00
000000
ENDCHAR
STARTCHAR 3278
ENCODING 12920
SWIDTH 1000 0
DWIDTH 18 0
BBX 18 18 0 -2
BITMAP
000000
020000
02ff80
022080
046300
163600
151c00
2a6c00
68c600
4b9380
102000
13fe00
102000
204000
204000
2ffe00
200000
000000
ENDCHAR
STARTCHAR 3279
ENCODING 12921
SWIDTH 1000 0
DWIDTH 18 0
BBX 18 18 0 -2
BITMAP
000000
022000
022000
027fc0
048000
150000
167f00
2a9200
689200
489200
1fff00
124400
124400
248800
27fe00
201000
207000
000000
ENDCHAR
STARTCHAR 327a
ENCODING 12922
SWIDTH 1000 0
DWIDTH 18 0
BBX 18 18 0 -2
BITMAP
000000
040000
04ffe0
048000
090800
290880
2d2980
565200
52d600
129400
242000
247000
245000
49b000
511800
430c00
460600
000000
ENDCHAR
STARTCHAR 327b
ENCODING 12923
SWIDTH 1000 0
DWIDTH 18 0
BBX 18 18 0 -2
BITMAP
000000
040400
040400
04ffe0
080800
2cff80
2aa480
554900
51ff00
101000
27ff00
209000
219900
461400
5a1800
43cc00
4e0600
000000
ENDCHAR
STARTCHAR 327c
ENCODING 12924
SWIDTH 1000 0
DWIDTH 18 0
BBX 18 18 0 -2
BITMAP
000000
000980
0008c0
000840
3fffc0
001000
049000
093100
091300
3fd600
123800
121000
323800
44d200
c59a00
830e00
0e0400
000000
ENDCHAR
STARTCHAR 327d
ENCODING 12925
SWIDTH 1000 0
DWIDTH 18 0
BBX 18 18 0 -2
BITMAP
000000
040000
043f80
042080
084100
3e4100
087f00
100000
100000
1dff00
e04200
204200
20c200
410400
430c00
460800
cc3800
000000
ENDCHAR
STARTCHAR 327e
ENCODING 12926
SWIDTH 1000 0
DWIDTH 18 0
BBX 18 18 0 -2
BITMAP
000000
000800
000800
1fc800
009fc0
009100
00b100
3f5200
20d600
201400
403800
401000
423800
c45000
7cd800
018c00
030600
000000
ENDCHAR
STARTCHAR 3321
ENCODING 13089
SWIDTH 1000 0
DWIDTH 18 0
BBX 18 18 0 -2
BITMAP
000000
010080
020c80
0fe680
124500
124100
1fd900
249a00
248a00
3f8380
247c00
250400
254400
4f8800
c80a00
8c0600
87fc00
000000
ENDCHAR
STARTCHAR 3322
ENCODING 13090
SWIDTH 1000 0
DWIDTH 18 0
BBX 18 18 0 -2
BITMAP
000000
002000
002000
0f7fc0
128000
130000
127f00
249200
3c9200
249200
4fff00
4a4400
4a4400
f48800
07fe00
001000
007000
000000
ENDCHAR
STARTCHAR 3323
ENCODING 13091
SWIDTH 1000 0
DWIDTH 18 0
BBX 18 18 0 -2
BITMAP
000000
020280
020240
020200
3f7fc0
040400
045400
1ca900
1aa900
19fb00
515400
515c00
914800
22ba00
246a00
20ce00
238400
000000
ENDCHAR
STARTCHAR 3324
ENCODING 13092
SWIDTH 1000 0
DWIDTH 18 0
BBX 18 18 0 -2
BITMAP
000000
002000
0c2000
067fc0
048000
018000
307f00
309200
109200
009200
17ff00
124400
324400
448800
c7fe00
801000
807000
000000
ENDCHAR
STARTCHAR 3325
ENCODING 13093
SWIDTH 1000 0
DWIDTH 18 0
BBX 18 18 0 -2
BITMAP
000000
000000
07ffc0
040000
082000
082080
092180
124600
164400
144000
21c000
614000
436000
846000
8c3000
181800
700e00
000000
ENDCHAR
STARTCHAR 3326
ENCODING 13094
SWIDTH 1000 0
DWIDTH 18 0
BBX 18 18 0 -2
BITMAP
000000
000000
07ff80
042080
084100
0fff00
084100
108200
1ffe00
021000
0c3000
381c00
e81700
102000
102000
302000
602000
000000
ENDCHAR
STARTCHAR 3327
ENCODING 13095
SWIDTH 1000 0
DWIDTH 18 0
BBX 18 18 0 -2
BITMAP
000000
040800
0408c0
07cf80
081000
081040
0810c0
1f3f00
704000
008000
1ff800
100800
100800
3ff000
201000
201000
3ff000
000000
ENDCHAR
STARTCHAR 3328
ENCODING 13096
SWIDTH 1000 0
DWIDTH 18 0
BBX 18 18 0 -2
BITMAP
000000
020400
060e00
0c0b00
313300
1b6180
06c0c0
187e00
320000
7e0000
15fe00
104000
544000
a98800
a90800
217c00
23c400
000000
ENDCHAR
STARTCHAR 3329
ENCODING 13097
SWIDTH 1000 0
DWIDTH 18 0
BBX 18 18 0 -2
BITMAP
000000
010200
010200
1fffe0
020400
024400
00e000
036000
063800
1c0e00
e81700
081000
081000
302000
202000
602000
c02000
000000
ENDCHAR
STARTCHAR 332a
ENCODING 13098
SWIDTH 1000 0
DWIDTH 18 0
BBX 18 18 0 -2
BITMAP
000000
078fc0
088240
1fe640
125980
1fca00
124f80
3fa400
20ff80
638400
810800
7ffe00
410200
fffc00
020800
0ffc00
f80600
000000
ENDCHAR
STARTCHAR 332b
ENCODING 13099
SWIDTH 1000 0
DWIDTH 18 0
BBX 18 18 0 -2
BITMAP
000000
000000
0fcfc0
084840
1f9f80
109080
1f9f80
200100
27f900
212100
424200
5ffa00
424200
848400
8c8400
988400
801c00
000000
ENDCHAR
STARTCHAR 332c
ENCODING 13100
SWIDTH 1000 0
DWIDTH 18 0
BBX 18 18 0 -2
BITMAP
000000
002200
0fa260
08bbc0
134400
124400
164440
28e780
258800
221000
45fe00
450200
450200
b3fc00
820400
820400
83fc00
000000
ENDCHAR
STARTCHAR 332d
ENCODING 13101
SWIDTH 1000 0
DWIDTH 18 0
BBX 18 18 0 -2
BITMAP
000000
000000
03ff00
020100
040200
07fe00
040200
080400
080400
0ffc00
100800
100800
100800
3ff000
102000
303000
e01c00
000000
ENDCHAR
STARTCHAR 332e
ENCODING 13102
SWIDTH 1000 0
DWIDTH 18 0
BBX 18 18 0 -2
BITMAP
000000
010000
092780
092480
1fc900
000900
3fe900
001200
3f9200
209200
412400
7f2400
222400
444800
2f4a00
78ca00
c18600
000000
ENDCHAR
STARTCHAR 332f
ENCODING 13103
SWIDTH 1000 0
DWIDTH 18 0
BBX 18 18 0 -2
BITMAP
000000
010200
010200
010200
3fe400
041fc0
0c0440
310880
1b0880
060880
191100
331100
c63100
184600
344400
62c400
819c00
000000
ENDCHAR
STARTCHAR 3330
ENCODING 13104
SWIDTH 1000 0
DWIDTH 18 0
BBX 18 18 0 -2
BITMAP
000000
020400
020400
03e400
044800
0c4800
084c00
309c00
699600
051300
062300
042000
0c2000
304000
604000
c04000
804000
000000
ENDCHAR
STARTCHAR 3331
ENCODING 13105
SWIDTH 1000 0
DWIDTH 18 0
BBX 18 18 0 -2
BITMAP
000000
000400
000400
1f0400
23ffc0
221000
223200
44cc00
458900
44db00
886400
88cc00
f99800
0e6000
00d800
038c00
1e0600
000000
ENDCHAR
STARTCHAR 3332
ENCODING 13106
SWIDTH 1000 0
DWIDTH 18 0
BBX 18 18 0 -2
BITMAP
000000
002000
002000
0fffc0
100080
104080
0fff00
008000
1ffe00
008000
ffff00
000000
1ff800
201000
201000
201000
3ff000
000000
ENDCHAR
STARTCHAR 3333
ENCODING 13107
SWIDTH 1000 0
DWIDTH 18 0
BBX 18 18 0 -2
BITMAP
000000
041040
041040
07ffc0
000000
1fffc0
100000
204000
27fe00
204000
5ffe00
400000
408000
9ff800
010000
7ffe00
000000
000000
ENDCHAR
STARTCHAR 3334
ENCODING 13108
SWIDTH 1000 0
DWIDTH 18 0
BBX 18 18 0 -2
BITMAP
000000
040000
04f7c0
049280
092500
29e500
2d2500
564a00
53df80
120200
240400
248c00
248c00
49a800
4eaa00
584a00
408600
000000
ENDCHAR
STARTCHAR 3335
ENCODING 13109
SWIDTH 1000 0
DWIDTH 18 0
BBX 18 18 0 -2
BITMAP
000000
040000
04f7c0
049280
092500
3fe500
092500
124a00
3bdf80
360200
640400
a48c00
248c00
49a800
4eaa00
584a00
408600
000000
ENDCHAR
STARTCHAR 3336
ENCODING 13110
SWIDTH 1000 0
DWIDTH 18 0
BBX 18 18 0 -2
BITMAP
000000
000000
0cffe0
068000
050400
013f80
310400
320800
12ff80
020000
041000
24fe00
2c1000
d02000
b02000
83fe00
000000
000000
ENDCHAR
STARTCHAR 3337
ENCODING 13111
SWIDTH 1000 0
DWIDTH 18 0
BBX 18 18 0 -2
BITMAP
000000
001f80
1fd080
021080
043f00
0c2100
082100
1e7e00
320000
33ff80
a40400
27ff00
248400
488800
788800
000800
003800
000000
ENDCHAR
STARTCHAR 3338
ENCODING 13112
SWIDTH 1000 0
DWIDTH 18 0
BBX 18 18 0 -2
BITMAP
000000
010200
010200
1fffe0
020400
004000
0fff00
008000
7fff80
040400
100400
7ffa00
000000
7ff800
488800
488800
fffe00
000000
ENDCHAR
STARTCHAR 3339
ENCODING 13113
SWIDTH 1000 0
DWIDTH 18 0
BBX 18 18 0 -2
BITMAP
000000
022000
0623c0
05fc00
184000
304000
03f800
080f80
188200
308200
efe400
210400
210400
420800
43c800
5e0800
403800
000000
ENDCHAR
STARTCHAR 333a
ENCODING 13114
SWIDTH 1000 0
DWIDTH 18 0
BBX 18 18 0 -2
BITMAP
000000
000200
0f8200
000200
3fbfc0
000800
1f1800
006200
003600
3e0c00
003200
006600
7ccc00
883000
886800
88cc00
f98600
000000
ENDCHAR
STARTCHAR 333b
ENCODING 13115
SWIDTH 1000 0
DWIDTH 18 0
BBX 18 18 0 -2
BITMAP
000000
020200
071240
059240
19bf80
100000
3f7fc0
080000
087f00
7f4100
108200
94fe00
d44400
a0d800
385000
e3fe00
800000
000000
ENDCHAR
STARTCHAR 333c
ENCODING 13116
SWIDTH 1000 0
DWIDTH 18 0
BBX 18 18 0 -2
BITMAP
000000
000200
0fc200
084200
17bfc0
148400
148c00
7fb200
409600
3f0c00
423200
7e6600
42cc00
fc3000
846800
84cc00
8d8600
000000
ENDCHAR
STARTCHAR 333d
ENCODING 13117
SWIDTH 1000 0
DWIDTH 18 0
BBX 18 18 0 -2
BITMAP
000000
000000
0c7fc0
064440
048880
00ff80
308880
311100
111100
01ff00
102000
302000
23fe00
c04000
804000
8ffe00
000000
000000
ENDCHAR
STARTCHAR 333e
ENCODING 13118
SWIDTH 1000 0
DWIDTH 18 0
BBX 18 18 0 -2
BITMAP
000000
010780
1ff480
0108e0
3fef00
124900
1fc600
203200
4fe180
008000
ffff00
091000
3ffc00
a01600
3ff000
201000
3ff000
000000
ENDCHAR
STARTCHAR 333f
ENCODING 13119
SWIDTH 1000 0
DWIDTH 18 0
BBX 18 18 0 -2
BITMAP
000000
020200
020200
021fc0
3f8400
248400
248400
49ff80
490000
7f0800
101000
14fe00
141000
3c2000
e42000
83fe00
000000
000000
ENDCHAR
STARTCHAR 3340
ENCODING 13120
SWIDTH 1000 0
DWIDTH 18 0
BBX 18 18 0 -2
BITMAP
000000
040000
047fc0
040000
080000
3e7f00
084100
108200
10fe00
108200
210400
390400
61fc00
800000
000000
0ffe00
000000
000000
ENDCHAR
STARTCHAR 3341
ENCODING 13121
SWIDTH 1000 0
DWIDTH 18 0
BBX 18 18 0 -2
BITMAP
000000
020400
020400
020400
3fffc0
040800
040800
19ff00
1d1100
1b1100
522200
522200
922200
245c00
204000
204000
204000
000000
ENDCHAR
STARTCHAR 3342
ENCODING 13122
SWIDTH 1000 0
DWIDTH 18 0
BBX 18 18 0 -2
BITMAP
000000
040000
043fe0
042000
3e4000
2a7fc0
2a4800
549000
549f00
7c9100
212200
292200
3b2200
d4c400
8c8c00
198800
033800
000000
ENDCHAR
STARTCHAR 3343
ENCODING 13123
SWIDTH 1000 0
DWIDTH 18 0
BBX 18 18 0 -2
BITMAP
000000
020800
070800
058800
19bf80
102080
3f6080
082100
082100
7f6900
109200
94fa00
d58a00
a00400
380c00
e00800
803800
000000
ENDCHAR
STARTCHAR 3344
ENCODING 13124
SWIDTH 1000 0
DWIDTH 18 0
BBX 18 18 0 -2
BITMAP
000000
010040
0ff240
011240
3ff480
022480
1fe480
040900
3fc900
040900
ffd200
489200
7f8200
910400
ff0400
000400
ff9c00
000000
ENDCHAR
STARTCHAR 3345
ENCODING 13125
SWIDTH 1000 0
DWIDTH 18 0
BBX 18 18 0 -2
BITMAP
000000
004100
004100
1df7c0
288200
288200
288200
5fff80
528a00
528a00
b5b600
f55500
155500
4a2800
124800
124800
269800
000000
ENDCHAR
STARTCHAR 3346
ENCODING 13126
SWIDTH 1000 0
DWIDTH 18 0
BBX 18 18 0 -2
BITMAP
000000
008000
008000
01fe00
060400
0f0c00
399800
01e000
033000
0e1c00
f00f00
1ff800
100800
201000
201000
201000
3ff000
000000
ENDCHAR
STARTCHAR 3347
ENCODING 13127
SWIDTH 1000 0
DWIDTH 18 0
BBX 18 18 0 -2
BITMAP
000000
001000
001000
0fffe0
108000
17f780
100480
27c900
244a00
27ca00
401200
5f9200
411200
87a400
3c2c00
042000
1c2000
000000
ENDCHAR
STARTCHAR 3348
ENCODING 13128
SWIDTH 1000 0
DWIDTH 18 0
BBX 18 18 0 -2
BITMAP
000000
040400
040400
040400
08ffc0
3e8000
088800
111000
111000
1d3000
e24400
224400
224600
458400
4d0400
493e00
dbe200
000000
ENDCHAR
STARTCHAR 3349
ENCODING 13129
SWIDTH 1000 0
DWIDTH 18 0
BBX 18 18 0 -2
BITMAP
000000
044840
046cc0
042480
09ffc0
3f0040
097f40
108200
10fe00
1c8200
e1fc00
210400
21fc00
412000
412200
432600
ce1c00
000000
ENDCHAR
STARTCHAR 334a
ENCODING 13130
SWIDTH 1000 0
DWIDTH 18 0
BBX 18 18 0 -2
BITMAP
000000
020800
020800
021f80
3f2100
047300
04d600
1c1800
1a3c00
186600
538700
50fc00
908400
210800
210800
210800
21f800
000000
ENDCHAR
STARTCHAR 334b
ENCODING 13131
SWIDTH 1000 0
DWIDTH 18 0
BBX 18 18 0 -2
BITMAP
000000
020400
020400
020400
3fffc0
041000
043000
18c400
1c6c00
1a1800
506400
50cc00
939800
206000
20d800
218c00
270600
000000
ENDCHAR
STARTCHAR 334c
ENCODING 13132
SWIDTH 1000 0
DWIDTH 18 0
BBX 18 18 0 -2
BITMAP
000000
020000
020780
1fe480
040900
040900
1f91c0
000000
7fbf00
409100
bd2600
242400
242c00
4a3000
cc7800
88cc00
818600
000000
ENDCHAR
STARTCHAR 334d
ENCODING 13133
SWIDTH 1000 0
DWIDTH 18 0
BBX 18 18 0 -2
BITMAP
000000
011100
11ffe0
0a1100
084400
08ffc0
158800
4dff00
091000
19ff00
522000
93ff00
100000
2ffc00
211800
60e000
cf1e00
000000
ENDCHAR
STARTCHAR 334e
ENCODING 13134
SWIDTH 1000 0
DWIDTH 18 0
BBX 18 18 0 -2
BITMAP
000000
000400
000400
1fbfe0
044840
045940
0c1200
107f00
1ec800
334800
64fe00
a49000
249000
49fc00
492000
792000
01fe00
000000
ENDCHAR
STARTCHAR 334f
ENCODING 13135
SWIDTH 1000 0
DWIDTH 18 0
BBX 18 18 0 -2
BITMAP
000000
008880
037fe0
1e0880
042400
047fc0
3fc400
08ff00
1c8800
1aff00
351000
51ff00
500000
27fc00
210800
20f000
270e00
000000
ENDCHAR
STARTCHAR 3350
ENCODING 13136
SWIDTH 1000 0
DWIDTH 18 0
BBX 18 18 0 -2
BITMAP
000000
044080
066180
022100
1fff80
100080
17fe80
080400
0ffc00
080400
1ff800
100800
1ff800
084000
184200
706600
c03c00
000000
ENDCHAR
STARTCHAR 3351
ENCODING 13137
SWIDTH 1000 0
DWIDTH 18 0
BBX 18 18 0 -2
BITMAP
000000
008000
01fe00
030400
0c1000
37ff00
042100
084200
0ffe00
084200
108400
1ffc00
100400
600800
400800
c00800
803800
000000
ENDCHAR
STARTCHAR 3352
ENCODING 13138
SWIDTH 1000 0
DWIDTH 18 0
BBX 18 18 0 -2
BITMAP
000000
010200
010200
0fdfc0
020400
020400
020400
7fff80
0a1400
2b1500
556a00
d4ab00
942900
285000
68d000
489000
d9b000
000000
ENDCHAR
STARTCHAR 3353
ENCODING 13139
SWIDTH 1000 0
DWIDTH 18 0
BBX 18 18 0 -2
BITMAP
000000
020200
020200
1fc200
047fc0
1f1100
153180
2ac180
3e2200
2a3600
542800
7c3800
101000
fc7000
20d800
218c00
230600
000000
ENDCHAR
STARTCHAR 3354
ENCODING 13140
SWIDTH 1000 0
DWIDTH 18 0
BBX 18 18 0 -2
BITMAP
000000
010000
0107c0
1ff440
000980
1fc900
104b00
3f9400
001200
7f9100
062200
182200
0fa200
f04400
105800
104000
704000
000000
ENDCHAR
STARTCHAR 3355
ENCODING 13141
SWIDTH 1000 0
DWIDTH 18 0
BBX 18 18 0 -2
BITMAP
000000
000000
0fcfc0
084840
1f9f80
109080
1f9f80
210100
23f100
262100
438200
466200
581a00
8fc400
884400
8fc400
801c00
000000
ENDCHAR
STARTCHAR 3356
ENCODING 13142
SWIDTH 1000 0
DWIDTH 18 0
BBX 18 18 0 -2
BITMAP
000000
000000
0f7fc0
090000
127f00
124100
147f00
280000
25ff00
252900
4a9200
4b0e00
4a0200
b5f400
844400
844400
844c00
000000
ENDCHAR
STARTCHAR 3357
ENCODING 13143
SWIDTH 1000 0
DWIDTH 18 0
BBX 18 18 0 -2
BITMAP
000000
010400
010400
1fffe0
020800
020800
03f800
008000
1ffc00
108400
210800
3ff800
010000
fffe00
020000
020000
020000
000000
ENDCHAR
STARTCHAR 3358
ENCODING 13144
SWIDTH 1000 0
DWIDTH 18 0
BBX 18 18 0 -2
BITMAP
000000
044080
066180
022100
1fff80
100080
100080
0ffc00
001800
006000
010000
ffff00
010000
020000
020000
020000
0e0000
000000
ENDCHAR
STARTCHAR 3359
ENCODING 13145
SWIDTH 1000 0
DWIDTH 18 0
BBX 18 18 0 -2
BITMAP
000000
000300
001e00
03f000
040000
07ff80
040400
080800
080800
7fff80
010000
010000
210400
420800
420800
7ff800
000000
000000
ENDCHAR
STARTCHAR 335a
ENCODING 13146
SWIDTH 1000 0
DWIDTH 18 0
BBX 18 18 0 -2
BITMAP
000000
001000
0c20c0
06fd80
010800
010800
01f800
021000
1a1600
33f300
010000
ffff00
054000
1ac000
727000
c21e00
020000
000000
ENDCHAR
STARTCHAR 335b
ENCODING 13147
SWIDTH 1000 0
DWIDTH 18 0
BBX 18 18 0 -2
BITMAP
000000
020000
023fe0
1fc200
20bf80
28a080
0f2080
227f00
544100
084100
28fe00
c68200
7c8200
89fc00
888800
f98c00
030600
000000
ENDCHAR
STARTCHAR 335c
ENCODING 13148
SWIDTH 1000 0
DWIDTH 18 0
BBX 18 18 0 -2
BITMAP
000000
000000
1ddfe0
154200
2a9f80
3b9080
001080
3e3f00
002100
7f2100
107e00
204200
7c4200
08fc00
084800
18cc00
718600
000000
ENDCHAR
STARTCHAR 335d
ENCODING 13149
SWIDTH 1000 0
DWIDTH 18 0
BBX 18 18 0 -2
BITMAP
000000
041080
041080
047c80
082100
3e2100
09fd00
100300
104280
1c4280
e3e400
208400
208400
410800
41e800
4f0800
c00800
000000
ENDCHAR
STARTCHAR 335e
ENCODING 13150
SWIDTH 1000 0
DWIDTH 18 0
BBX 18 18 0 -2
BITMAP
000000
020400
020400
07efe0
121400
212200
014200
008000
3fff00
000000
100800
181800
081000
106000
004000
fffe00
000000
000000
ENDCHAR
STARTCHAR 335f
ENCODING 13151
SWIDTH 1000 0
DWIDTH 18 0
BBX 18 18 0 -2
BITMAP
000000
040000
04f800
04a7c0
3f4480
09f580
091700
1be400
368e00
329b00
67c300
a02000
23fe00
404000
404000
4ffe00
400000
000000
ENDCHAR
STARTCHAR 3360
ENCODING 13152
SWIDTH 1000 0
DWIDTH 18 0
BBX 18 18 0 -2
BITMAP
000000
040000
04ffe0
040000
3e7f00
084900
087f00
309200
3bff80
340000
a1fc00
a12400
21fc00
424800
43f800
400000
4ffe00
000000
ENDCHAR
STARTCHAR 3361
ENCODING 13153
SWIDTH 1000 0
DWIDTH 18 0
BBX 18 18 0 -2
BITMAP
000000
020000
027fc0
024040
3f8080
04ff80
048000
1d0e00
1b7800
191000
53fe00
522000
93ff00
244000
244200
286600
203c00
000000
ENDCHAR
STARTCHAR 3362
ENCODING 13154
SWIDTH 1000 0
DWIDTH 18 0
BBX 18 18 0 -2
BITMAP
000000
040500
079d00
0cf120
122a40
3f2ac0
15fa80
2a5500
3e4400
2ae400
56a800
7c9c00
009400
012800
552c00
556400
014600
000000
ENDCHAR
STARTCHAR 3363
ENCODING 13155
SWIDTH 1000 0
DWIDTH 18 0
BBX 18 18 0 -2
BITMAP
000000
001800
0c73c0
064040
048080
00f780
308080
310100
11ff00
008000
13ff00
160100
3c0900
454a00
c54600
880400
801c00
000000
ENDCHAR
STARTCHAR 3364
ENCODING 13156
SWIDTH 1000 0
DWIDTH 18 0
BBX 18 18 0 -2
BITMAP
000000
010040
010240
1ff240
202480
222480
1fc480
040900
3f8900
040900
ff9200
001200
7f0200
820400
820400
820400
fe1c00
000000
ENDCHAR
STARTCHAR 3365
ENCODING 13157
SWIDTH 1000 0
DWIDTH 18 0
BBX 18 18 0 -2
BITMAP
000000
007f80
004080
1e4080
24ff00
248100
248100
49fe00
488000
48ff80
930100
f63100
0fe100
040200
042600
03e400
001c00
000000
ENDCHAR
STARTCHAR 3366
ENCODING 13158
SWIDTH 1000 0
DWIDTH 18 0
BBX 18 18 0 -2
BITMAP
000000
020400
020e00
020a00
063600
156300
14c180
2b0180
68fe00
480000
100000
11fc00
110400
220800
220800
220800
23f800
000000
ENDCHAR
STARTCHAR 3367
ENCODING 13159
SWIDTH 1000 0
DWIDTH 18 0
BBX 18 18 0 -2
BITMAP
000000
0200c0
020380
023e00
040400
3f0400
040400
08ff80
080800
0e0800
f01000
10fe00
108200
210400
210400
210400
e1fc00
000000
ENDCHAR
STARTCHAR 3368
ENCODING 13160
SWIDTH 1000 0
DWIDTH 18 0
BBX 18 18 0 -2
BITMAP
000000
0000c0
0c0780
067c00
040800
000800
300800
33ff80
101000
001000
102000
13fe00
320200
440400
c40400
840400
87fc00
000000
ENDCHAR
STARTCHAR 3369
ENCODING 13161
SWIDTH 1000 0
DWIDTH 18 0
BBX 18 18 0 -2
BITMAP
000000
0c7f80
064080
024080
00ff00
008100
308100
31fe00
108000
00ff80
130100
163100
3fe100
440200
c42600
83e400
801c00
000000
ENDCHAR
STARTCHAR 336a
ENCODING 13162
SWIDTH 1000 0
DWIDTH 18 0
BBX 18 18 0 -2
BITMAP
000000
0c3f80
062080
022780
004900
004900
31ffc0
320080
120080
00fe00
110400
11fc00
310400
43f800
c20800
820800
823800
000000
ENDCHAR
STARTCHAR 336b
ENCODING 13163
SWIDTH 1000 0
DWIDTH 18 0
BBX 18 18 0 -2
BITMAP
000000
008400
008400
1fffe0
010800
07fe00
040200
0ffc00
080400
0ffc00
080000
1ffe00
300200
bf0400
204c00
1fc800
003800
000000
ENDCHAR
STARTCHAR 336c
ENCODING 13164
SWIDTH 1000 0
DWIDTH 18 0
BBX 18 18 0 -2
BITMAP
000000
043f80
042080
042080
3e7f00
024100
064100
08fe00
1a4000
347f80
b18100
2b3100
25e100
420200
422600
41e400
401c00
000000
ENDCHAR
STARTCHAR 336d
ENCODING 13165
SWIDTH 1000 0
DWIDTH 18 0
BBX 18 18 0 -2
BITMAP
000000
020200
020200
1fffe0
044040
1f4440
153f80
2a0800
3e7f00
2a0800
55ff00
7c0000
10fe00
fd0400
210400
210400
21fc00
000000
ENDCHAR
STARTCHAR 336e
ENCODING 13166
SWIDTH 1000 0
DWIDTH 18 0
BBX 18 18 0 -2
BITMAP
000000
000000
03ff00
020100
040200
040200
07fe00
080400
080400
080400
1ff800
100800
100800
201000
201000
fffe00
000000
000000
ENDCHAR
STARTCHAR 336f
ENCODING 13167
SWIDTH 1000 0
DWIDTH 18 0
BBX 18 18 0 -2
BITMAP
000000
040000
07bc00
0cabc0
125280
3f7a80
154b80
2af200
3ea700
2aad00
55e300
7c1000
00fe00
542000
542000
03fe00
000000
000000
ENDCHAR
STARTCHAR 3370
ENCODING 13168
SWIDTH 1000 0
DWIDTH 18 0
BBX 18 18 0 -2
BITMAP
000000
000400
000400
1f0400
220800
220800
220800
45ff80
441000
441000
882000
882000
f82000
004000
004000
004000
004000
000000
ENDCHAR
STARTCHAR 3371
ENCODING 13169
SWIDTH 1000 0
DWIDTH 18 0
BBX 18 18 0 -2
BITMAP
000000
021100
021100
027fe0
3f2200
042200
041400
1c6800
1a4980
18cb00
539c00
569000
909000
212000
212200
212600
211c00
000000
ENDCHAR
STARTCHAR 3372
ENCODING 13170
SWIDTH 1000 0
DWIDTH 18 0
BBX 18 18 0 -2
BITMAP
000000
041100
041100
04ffe0
3e2200
08ff80
084900
309200
3bff80
349200
a12400
a3fe00
202000
4ffe00
404000
404000
404000
000000
ENDCHAR
STARTCHAR 3373
ENCODING 13171
SWIDTH 1000 0
DWIDTH 18 0
BBX 18 18 0 -2
BITMAP
000000
088800
088800
1fc800
113f80
112080
1f7c80
080900
7f0900
497900
928600
fe8400
109c00
fd0000
210200
218600
20fc00
000000
ENDCHAR
STARTCHAR 3374
ENCODING 13172
SWIDTH 1000 0
DWIDTH 18 0
BBX 18 18 0 -2
BITMAP
000000
020400
022400
022400
3f4800
04ff80
068800
1a1000
181000
1bff80
50a800
50a800
91ac00
224800
264c00
2c4600
204000
000000
ENDCHAR
STARTCHAR 3375
ENCODING 13173
SWIDTH 1000 0
DWIDTH 18 0
BBX 18 18 0 -2
BITMAP
000000
011000
0321c0
0efc40
110880
110880
11f880
221100
221100
3bf700
000000
044000
044000
188000
308200
60c600
c07c00
000000
ENDCHAR
STARTCHAR 3376
ENCODING 13174
SWIDTH 1000 0
DWIDTH 18 0
BBX 18 18 0 -2
BITMAP
000000
002000
0fffc0
092240
3df7c0
004000
3fffc0
108200
1ffe00
108200
7ffe00
410200
7ffe00
820400
fffc00
020200
01fe00
000000
ENDCHAR
STARTCHAR 3377
ENCODING 13175
SWIDTH 1000 0
DWIDTH 18 0
BBX 18 18 0 -2
BITMAP
000000
008400
008400
1fffe0
010900
180880
0dffc0
081000
61ff00
311100
23fe00
022200
13fe00
644400
444400
c44400
844c00
000000
ENDCHAR
STARTCHAR 3378
ENCODING 13176
SWIDTH 1000 0
DWIDTH 18 0
BBX 18 18 0 -2
BITMAP
000000
004800
00cc00
038700
1d9b80
00f000
019800
0e1c00
7bf780
008000
010000
7ffe00
110800
323000
122000
fffe00
000000
000000
ENDCHAR
STARTCHAR 3379
ENCODING 13177
SWIDTH 1000 0
DWIDTH 18 0
BBX 18 18 0 -2
BITMAP
000000
021080
070900
05ffe0
191400
107f80
3f1480
082900
09ff80
7e2900
105200
95fe00
d45800
a1a800
3aac00
e4a600
00a000
000000
ENDCHAR
STARTCHAR 337a
ENCODING 13178
SWIDTH 1000 0
DWIDTH 18 0
BBX 18 18 0 -2
BITMAP
000000
000400
002400
1e27c0
244800
244800
25ffc0
490100
495500
491100
92fa00
922200
f27200
055400
044400
040400
07fc00
000000
ENDCHAR
STARTCHAR 337b
ENCODING 13179
SWIDTH 1000 0
DWIDTH 18 0
BBX 18 18 0 -2
BITMAP
000000
000200
1fc400
125fc0
24a080
24bf80
3fa080
497f00
494000
497f80
fe8000
10ff00
100100
22aa00
26aa00
240600
200c00
000000
ENDCHAR
STARTCHAR 337c
ENCODING 13180
SWIDTH 1000 0
DWIDTH 18 0
BBX 18 18 0 -2
BITMAP
000000
020000
027fe0
020200
3f0c00
040800
047f80
1c8100
1a8100
1a8100
510200
51fe00
910200
220400
220400
220400
23fc00
000000
ENDCHAR
STARTCHAR 337d
ENCODING 13181
SWIDTH 1000 0
DWIDTH 18 0
BBX 18 18 0 -2
BITMAP
000000
008400
008400
1fffe0
010800
0ffe00
000c00
022000
014000
7fff80
028200
068400
0c8000
310000
610000
c10000
070000
000000
ENDCHAR
STARTCHAR 337e
ENCODING 13182
SWIDTH 1000 0
DWIDTH 18 0
BBX 18 18 0 -2
BITMAP
000000
010200
010200
1fffe0
020400
004000
1fff80
200100
2ffd00
000000
1ff800
100800
1ff800
201000
3ff000
000000
fffe00
000000
ENDCHAR
STARTCHAR 3421
ENCODING 13345
SWIDTH 1000 0
DWIDTH 18 0
BBX 18 18 0 -2
BITMAP
000000
000000
1e23c0
02a840
055080
055080
3c4780
47f800
408800
79cf00
138200
154200
154200
324400
620c00
420800
c03800
000000
ENDCHAR
STARTCHAR 3422
ENCODING 13346
SWIDTH 1000 0
DWIDTH 18 0
BBX 18 18 0 -2
BITMAP
000000
002040
002240
002240
004480
18c480
0c8480
0d0900
070900
020900
0e1200
0b1200
190200
230400
610400
c00400
801c00
000000
ENDCHAR
STARTCHAR 3423
ENCODING 13347
SWIDTH 1000 0
DWIDTH 18 0
BBX 18 18 0 -2
BITMAP
000000
008400
008400
1fffe0
010800
010800
004080
309100
199100
0d1100
0e2200
042200
0e2200
360400
630400
c10400
801c00
000000
ENDCHAR
STARTCHAR 3424
ENCODING 13348
SWIDTH 1000 0
DWIDTH 18 0
BBX 18 18 0 -2
BITMAP
000000
000000
1fffe0
008000
010000
010000
03f800
041000
041000
051000
0b2000
192000
102000
204000
274200
7c6600
c03c00
000000
ENDCHAR
STARTCHAR 3425
ENCODING 13349
SWIDTH 1000 0
DWIDTH 18 0
BBX 18 18 0 -2
BITMAP
000000
020800
020800
1fc800
043fc0
1f6000
11c000
227f00
3e0600
220c00
443000
7c6000
104000
fd8000
210200
218600
20fc00
000000
ENDCHAR
STARTCHAR 3426
ENCODING 13350
SWIDTH 1000 0
DWIDTH 18 0
BBX 18 18 0 -2
BITMAP
000000
010000
017fc0
034040
048080
0c8080
08ff80
300000
509200
109200
212400
212400
212400
424800
464a00
444a00
4c0600
000000
ENDCHAR
STARTCHAR 3427
ENCODING 13351
SWIDTH 1000 0
DWIDTH 18 0
BBX 18 18 0 -2
BITMAP
000000
000000
0fffc0
080040
100080
1f8100
000100
007f80
7f8200
122200
246400
242400
240400
480800
c83a00
8c0600
87fc00
000000
ENDCHAR
STARTCHAR 3428
ENCODING 13352
SWIDTH 1000 0
DWIDTH 18 0
BBX 18 18 0 -2
BITMAP
000000
002000
002000
0fffc0
100080
110880
0fff00
021000
1ffe00
021000
ffff00
081000
3bdc00
c0ce00
1e0000
03c000
006000
000000
ENDCHAR
STARTCHAR 3429
ENCODING 13353
SWIDTH 1000 0
DWIDTH 18 0
BBX 18 18 0 -2
BITMAP
000000
000040
0fe440
010440
020880
020880
020880
7fd100
041100
041100
082200
082200
080200
100400
100400
100400
101c00
000000
ENDCHAR
STARTCHAR 342a
ENCODING 13354
SWIDTH 1000 0
DWIDTH 18 0
BBX 18 18 0 -2
BITMAP
000000
044200
044200
1ff200
088400
0f9fc0
088440
1f0880
110880
7fc880
541100
543100
572100
c04600
80c400
fe8400
019c00
000000
ENDCHAR
STARTCHAR 342b
ENCODING 13355
SWIDTH 1000 0
DWIDTH 18 0
BBX 18 18 0 -2
BITMAP
000000
040200
040200
0ff200
120400
221fc0
1fe440
090880
120880
3fc880
a43100
3f2100
242100
7ec600
488400
7f8400
011c00
000000
ENDCHAR
STARTCHAR 342c
ENCODING 13356
SWIDTH 1000 0
DWIDTH 18 0
BBX 18 18 0 -2
BITMAP
000000
022100
032300
012200
0fff00
009000
010800
7fff80
040800
0ffc00
302c00
e02700
0fe000
100000
100800
181800
0ff000
000000
ENDCHAR
STARTCHAR 342d
ENCODING 13357
SWIDTH 1000 0
DWIDTH 18 0
BBX 18 18 0 -2
BITMAP
000000
002000
003f00
1e6100
248400
25ff80
249480
492900
492900
494f00
930200
922200
f7ff00
00a000
01b000
031800
0e0e00
000000
ENDCHAR
STARTCHAR 342e
ENCODING 13358
SWIDTH 1000 0
DWIDTH 18 0
BBX 18 18 0 -2
BITMAP
000000
042080
042080
04ffe0
084100
3e7f00
084100
10fe00
108200
108200
27ff00
224800
3a4800
c51e00
060000
040000
07fe00
000000
ENDCHAR
STARTCHAR 342f
ENCODING 13359
SWIDTH 1000 0
DWIDTH 18 0
BBX 18 18 0 -2
BITMAP
000000
004000
004000
0fffc0
010400
020800
07f800
009e00
3f0300
080800
ffff00
222200
464600
e8e800
383800
6c6c00
c5c600
000000
ENDCHAR
STARTCHAR 3430
ENCODING 13360
SWIDTH 1000 0
DWIDTH 18 0
BBX 18 18 0 -2
BITMAP
000000
002000
002000
0fffc0
100080
100080
07fe00
000000
000000
7fff80
042000
042000
0c2000
104000
304200
606600
c03c00
000000
ENDCHAR
STARTCHAR 3431
ENCODING 13361
SWIDTH 1000 0
DWIDTH 18 0
BBX 18 18 0 -2
BITMAP
000000
002000
002000
1fffe0
200040
200040
07fe00
080400
080400
0ffc00
100000
100000
1ffc00
200800
200800
200800
3ff800
000000
ENDCHAR
STARTCHAR 3432
ENCODING 13362
SWIDTH 1000 0
DWIDTH 18 0
BBX 18 18 0 -2
BITMAP
000000
002000
002000
1fffe0
210840
2fff40
010800
0ffc00
080400
0ffc00
100800
1ff800
100800
3ff000
084200
384600
e03c00
000000
ENDCHAR
STARTCHAR 3433
ENCODING 13363
SWIDTH 1000 0
DWIDTH 18 0
BBX 18 18 0 -2
BITMAP
000000
000000
0fff80
002000
004000
004000
004000
008000
7fff80
008000
010000
010000
010000
020000
020000
020000
020000
000000
ENDCHAR
STARTCHAR 3434
ENCODING 13364
SWIDTH 1000 0
DWIDTH 18 0
BBX 18 18 0 -2
BITMAP
000000
020200
020700
1fc500
041b00
1f3180
1160c0
223e00
3e0800
220800
441000
7dff00
101000
fc2000
202000
202000
202000
000000
ENDCHAR
STARTCHAR 3435
ENCODING 13365
SWIDTH 1000 0
DWIDTH 18 0
BBX 18 18 0 -2
BITMAP
000000
002000
07ff80
042080
084100
0fff00
004000
1ffe00
108200
108200
3ffc00
010000
004000
48cc00
485600
cc3200
87e000
000000
ENDCHAR
STARTCHAR 3436
ENCODING 13366
SWIDTH 1000 0
DWIDTH 18 0
BBX 18 18 0 -2
BITMAP
000000
000900
000880
0fffe0
101000
17d900
100b00
2f9c00
288800
2f9c80
c0cd00
800700
018000
498c00
489600
cc3200
87e000
000000
ENDCHAR
STARTCHAR 3437
ENCODING 13367
SWIDTH 1000 0
DWIDTH 18 0
BBX 18 18 0 -2
BITMAP
000000
040000
047fc0
044440
09ffc0
2c8880
2aff80
500000
51ff00
110100
23fe00
220200
23fe00
440400
47fc00
420800
4c0600
000000
ENDCHAR
STARTCHAR 3438
ENCODING 13368
SWIDTH 1000 0
DWIDTH 18 0
BBX 18 18 0 -2
BITMAP
000000
040280
040240
04ffe0
090400
297e80
2d0280
56f700
529200
12f680
241700
280200
204000
4acc00
4a4600
5a1200
51f000
000000
ENDCHAR
STARTCHAR 3439
ENCODING 13369
SWIDTH 1000 0
DWIDTH 18 0
BBX 18 18 0 -2
BITMAP
000000
042000
043f00
046100
3e8400
09ff80
089480
112900
112900
1d4f00
e30200
222200
27ff00
40a000
41b000
431800
ce0e00
000000
ENDCHAR
STARTCHAR 343a
ENCODING 13370
SWIDTH 1000 0
DWIDTH 18 0
BBX 18 18 0 -2
BITMAP
000000
000400
0fe400
010400
021fc0
3ff100
089100
117200
1f1600
111400
223800
3e1000
223800
445000
7cd800
c48c00
058600
000000
ENDCHAR
STARTCHAR 343b
ENCODING 13371
SWIDTH 1000 0
DWIDTH 18 0
BBX 18 18 0 -2
BITMAP
000000
021080
021080
021080
3f2100
04ffc0
042100
1c4200
1a4200
1a4200
50fc00
508400
908400
210800
210800
210800
21f800
000000
ENDCHAR
STARTCHAR 343c
ENCODING 13372
SWIDTH 1000 0
DWIDTH 18 0
BBX 18 18 0 -2
BITMAP
000000
020000
027fc0
020000
3f0000
047f00
044100
1c8200
1afe00
1a8200
510400
510400
91fc00
200000
200000
2ffe00
200000
000000
ENDCHAR
STARTCHAR 343d
ENCODING 13373
SWIDTH 1000 0
DWIDTH 18 0
BBX 18 18 0 -2
BITMAP
000000
020400
020400
027fe0
3f8040
048040
043f00
1c4200
1a4200
1a7e00
508000
508000
90fe00
210400
210400
210400
21fc00
000000
ENDCHAR
STARTCHAR 343e
ENCODING 13374
SWIDTH 1000 0
DWIDTH 18 0
BBX 18 18 0 -2
BITMAP
000000
020400
020400
1fe400
041fc0
041040
1f94c0
006900
3f0800
000800
ff3800
102800
542800
a4d800
248800
218c00
630600
000000
ENDCHAR
STARTCHAR 343f
ENCODING 13375
SWIDTH 1000 0
DWIDTH 18 0
BBX 18 18 0 -2
BITMAP
000000
040400
040400
0fe400
340fc0
041840
3fd4c0
126900
140800
3f8800
c83800
7e2800
482800
fcd800
908800
ff8c00
010600
000000
ENDCHAR
STARTCHAR 3440
ENCODING 13376
SWIDTH 1000 0
DWIDTH 18 0
BBX 18 18 0 -2
BITMAP
000000
000000
0c7fc0
060400
040800
000800
300800
301000
13ff80
001000
102000
302000
202000
c04000
804000
804000
004000
000000
ENDCHAR
STARTCHAR 3441
ENCODING 13377
SWIDTH 1000 0
DWIDTH 18 0
BBX 18 18 0 -2
BITMAP
000000
001100
0cffe0
061100
040000
00ff80
308880
311100
11ff00
001000
13fe00
102000
37ff00
40a000
c1b000
831800
8e0e00
000000
ENDCHAR
STARTCHAR 3442
ENCODING 13378
SWIDTH 1000 0
DWIDTH 18 0
BBX 18 18 0 -2
BITMAP
000000
000000
0cfbe0
068a20
05f7c0
011440
31f7c0
320080
127c80
024480
148900
14f900
348900
491200
c9f200
880200
880e00
000000
ENDCHAR
STARTCHAR 3443
ENCODING 13379
SWIDTH 1000 0
DWIDTH 18 0
BBX 18 18 0 -2
BITMAP
000000
002000
0c2000
067fc0
049000
03ffc0
302200
308800
11ff00
031000
13fe00
122000
322000
47fc00
c44000
844000
87fe00
000000
ENDCHAR
STARTCHAR 3444
ENCODING 13380
SWIDTH 1000 0
DWIDTH 18 0
BBX 18 18 0 -2
BITMAP
000000
000000
007fc0
1f5240
08a480
08ff80
080000
13ff80
7c0000
11ff00
220200
23fe00
206100
716400
c25800
0c4600
004000
000000
ENDCHAR
STARTCHAR 3445
ENCODING 13381
SWIDTH 1000 0
DWIDTH 18 0
BBX 18 18 0 -2
BITMAP
000000
010200
010200
010200
020400
3fffc0
020400
040800
040800
040800
0ff000
081000
081000
102000
102000
102000
1fe000
000000
ENDCHAR
STARTCHAR 3446
ENCODING 13382
SWIDTH 1000 0
DWIDTH 18 0
BBX 18 18 0 -2
BITMAP
000000
000400
0fe400
090400
1f9fc0
109000
10b000
3f1f00
240000
3f8000
000000
3ffc00
244400
488800
488800
fffe00
000000
000000
ENDCHAR
STARTCHAR 3447
ENCODING 13383
SWIDTH 1000 0
DWIDTH 18 0
BBX 18 18 0 -2
BITMAP
000000
000300
003e00
07e000
004000
1fff80
008000
7fff80
020000
07fe00
180400
2ffc00
c80400
1ff800
100800
100800
1ff800
000000
ENDCHAR
STARTCHAR 3448
ENCODING 13384
SWIDTH 1000 0
DWIDTH 18 0
BBX 18 18 0 -2
BITMAP
000000
020400
020400
07efe0
122400
210200
000000
1ffe00
008000
008000
010000
ffff00
010000
020000
020000
020000
020000
000000
ENDCHAR
STARTCHAR 3449
ENCODING 13385
SWIDTH 1000 0
DWIDTH 18 0
BBX 18 18 0 -2
BITMAP
000000
020400
020400
07efe0
122400
210200
004000
3fff00
200100
27f900
081000
0ff000
080000
1ff000
101000
101000
1ff000
000000
ENDCHAR
ENDFONT
